G04 Layer_Physical_Order=1*
G04 Layer_Color=255*
%FSLAX23Y23*%
%MOIN*%
G70*
G01*
G75*
%ADD10R,0.047X0.055*%
%ADD11R,0.055X0.047*%
%ADD12O,0.014X0.098*%
%ADD13R,0.014X0.098*%
%ADD14R,0.008X0.098*%
%ADD15R,0.098X0.008*%
%ADD16O,0.098X0.008*%
%ADD17R,0.079X0.024*%
%ADD18C,0.014*%
%ADD19C,0.010*%
%ADD20C,0.020*%
%ADD21C,0.028*%
%ADD22C,0.008*%
%ADD23C,0.079*%
%ADD24C,0.059*%
%ADD25C,0.118*%
%ADD26P,0.213X8X202.5*%
%ADD27R,0.059X0.059*%
%ADD28R,0.059X0.059*%
%ADD29C,0.047*%
%ADD30C,0.025*%
G36*
X3143Y2244D02*
X3148Y2205D01*
X3158Y2167D01*
X3171Y2129D01*
X3188Y2094D01*
X3209Y2060D01*
X3232Y2028D01*
X3259Y1999D01*
X3288Y1972D01*
X3320Y1949D01*
X3354Y1928D01*
X3389Y1911D01*
X3426Y1898D01*
X3465Y1889D01*
X3504Y1883D01*
X3534Y1881D01*
Y403D01*
X3504Y401D01*
X3465Y395D01*
X3426Y386D01*
X3389Y372D01*
X3353Y356D01*
X3319Y335D01*
X3288Y312D01*
X3258Y285D01*
X3232Y256D01*
X3208Y224D01*
X3188Y190D01*
X3171Y154D01*
X3158Y117D01*
X3148Y79D01*
X3142Y40D01*
X3141Y9D01*
X403Y9D01*
X401Y40D01*
X395Y79D01*
X386Y117D01*
X372Y154D01*
X356Y190D01*
X335Y224D01*
X312Y256D01*
X285Y285D01*
X256Y312D01*
X224Y335D01*
X190Y356D01*
X154Y372D01*
X117Y386D01*
X79Y395D01*
X40Y401D01*
X9Y403D01*
X9Y1881D01*
X39Y1883D01*
X79Y1889D01*
X117Y1898D01*
X154Y1911D01*
X190Y1928D01*
X224Y1949D01*
X255Y1972D01*
X285Y1999D01*
X311Y2028D01*
X335Y2060D01*
X355Y2094D01*
X372Y2129D01*
X385Y2167D01*
X395Y2205D01*
X401Y2244D01*
X402Y2274D01*
X3141D01*
X3143Y2244D01*
D02*
G37*
%LPC*%
G36*
X1238Y967D02*
X1209D01*
Y934D01*
X1238D01*
Y967D01*
D02*
G37*
G36*
X1277D02*
X1248D01*
Y934D01*
X1277D01*
Y967D01*
D02*
G37*
G36*
Y924D02*
X1248D01*
Y892D01*
X1277D01*
Y924D01*
D02*
G37*
G36*
X2916Y964D02*
Y911D01*
X2929D01*
Y948D01*
X2927Y954D01*
X2924Y960D01*
X2918Y964D01*
X2916Y964D01*
D02*
G37*
G36*
X1238Y1013D02*
X1209D01*
Y980D01*
X1238D01*
Y1013D01*
D02*
G37*
G36*
X1277D02*
X1248D01*
Y980D01*
X1277D01*
Y1013D01*
D02*
G37*
G36*
X3322Y1019D02*
X3258D01*
X3259Y1010D01*
X3262Y997D01*
X3269Y985D01*
X3278Y975D01*
X3288Y966D01*
X3300Y960D01*
X3313Y956D01*
X3322Y955D01*
Y1019D01*
D02*
G37*
G36*
X3395D02*
X3332D01*
Y955D01*
X3340Y956D01*
X3353Y960D01*
X3365Y966D01*
X3376Y975D01*
X3384Y985D01*
X3391Y997D01*
X3395Y1010D01*
X3395Y1019D01*
D02*
G37*
G36*
X3259Y774D02*
X3250Y773D01*
X3241Y769D01*
X3234Y764D01*
X3228Y756D01*
X3225Y747D01*
X3223Y738D01*
X3225Y729D01*
X3228Y720D01*
X3234Y713D01*
X3241Y707D01*
X3250Y704D01*
X3259Y702D01*
X3269Y704D01*
X3277Y707D01*
X3285Y713D01*
X3290Y720D01*
X3294Y729D01*
X3295Y738D01*
X3294Y747D01*
X3290Y756D01*
X3285Y764D01*
X3277Y769D01*
X3269Y773D01*
X3259Y774D01*
D02*
G37*
G36*
X2384Y1544D02*
X2377Y1543D01*
X2371Y1539D01*
X2366Y1533D01*
X2365Y1526D01*
X2366Y1518D01*
X2371Y1512D01*
X2373Y1511D01*
Y794D01*
X2371Y793D01*
X2366Y787D01*
X2365Y780D01*
X2366Y772D01*
X2371Y766D01*
X2377Y762D01*
X2384Y761D01*
X2391Y762D01*
X2397Y766D01*
X2401Y772D01*
X2403Y780D01*
X2401Y787D01*
X2397Y793D01*
X2395Y794D01*
Y1511D01*
X2397Y1512D01*
X2401Y1518D01*
X2403Y1526D01*
X2401Y1533D01*
X2397Y1539D01*
X2391Y1543D01*
X2384Y1544D01*
D02*
G37*
G36*
X1993Y705D02*
X1960D01*
Y678D01*
X1959Y676D01*
X1993D01*
Y705D01*
D02*
G37*
G36*
X3181Y774D02*
X3171Y773D01*
X3163Y769D01*
X3155Y764D01*
X3149Y756D01*
X3146Y747D01*
X3145Y738D01*
X3146Y729D01*
X3149Y720D01*
X3155Y713D01*
X3163Y707D01*
X3171Y704D01*
X3181Y702D01*
X3190Y704D01*
X3198Y707D01*
X3206Y713D01*
X3212Y720D01*
X3215Y729D01*
X3216Y738D01*
X3215Y747D01*
X3212Y756D01*
X3206Y764D01*
X3198Y769D01*
X3190Y773D01*
X3181Y774D01*
D02*
G37*
G36*
X3264Y876D02*
Y842D01*
X3298D01*
X3298Y847D01*
X3294Y857D01*
X3287Y865D01*
X3279Y871D01*
X3270Y875D01*
X3264Y876D01*
D02*
G37*
G36*
X1238Y924D02*
X1209D01*
Y892D01*
X1238D01*
Y924D01*
D02*
G37*
G36*
X910Y780D02*
X903Y779D01*
X897Y775D01*
X896Y773D01*
X783D01*
X783Y773D01*
X781Y772D01*
X779Y772D01*
X779Y772D01*
X779Y772D01*
X777Y771D01*
X776Y770D01*
X776Y770D01*
X776Y769D01*
X776Y769D01*
X775Y768D01*
X772Y765D01*
X771Y760D01*
X772Y757D01*
X769Y752D01*
X749D01*
Y693D01*
X816D01*
Y750D01*
X896D01*
X897Y748D01*
X903Y744D01*
X910Y743D01*
X918Y744D01*
X924Y748D01*
X928Y754D01*
X929Y761D01*
X928Y769D01*
X924Y775D01*
X918Y779D01*
X910Y780D01*
D02*
G37*
G36*
X3298Y832D02*
X3264D01*
Y797D01*
X3270Y798D01*
X3279Y802D01*
X3287Y808D01*
X3294Y817D01*
X3298Y826D01*
X3298Y832D01*
D02*
G37*
G36*
X1277Y1104D02*
X1248D01*
Y1072D01*
X1277D01*
Y1104D01*
D02*
G37*
G36*
X2204Y1104D02*
X2171D01*
Y1076D01*
X2204D01*
Y1104D01*
D02*
G37*
G36*
X3014Y1076D02*
X2985D01*
Y1047D01*
X2989Y1048D01*
X2997Y1051D01*
X3004Y1057D01*
X3010Y1064D01*
X3013Y1072D01*
X3014Y1076D01*
D02*
G37*
G36*
X1238Y1104D02*
X1209D01*
Y1072D01*
X1238D01*
Y1104D01*
D02*
G37*
G36*
X2975Y1114D02*
X2972Y1113D01*
X2963Y1110D01*
X2956Y1105D01*
X2951Y1098D01*
X2948Y1089D01*
X2947Y1086D01*
X2975D01*
Y1114D01*
D02*
G37*
G36*
X2985D02*
Y1086D01*
X3014D01*
X3013Y1089D01*
X3010Y1098D01*
X3004Y1105D01*
X2997Y1110D01*
X2989Y1113D01*
X2985Y1114D01*
D02*
G37*
G36*
X2246Y1104D02*
X2214D01*
Y1076D01*
X2246D01*
Y1104D01*
D02*
G37*
G36*
X2515Y1112D02*
X2482D01*
Y1084D01*
X2515D01*
Y1112D01*
D02*
G37*
G36*
X3322Y1093D02*
X3313Y1092D01*
X3300Y1088D01*
X3288Y1081D01*
X3278Y1073D01*
X3269Y1062D01*
X3262Y1050D01*
X3259Y1037D01*
X3258Y1029D01*
X3322D01*
Y1093D01*
D02*
G37*
G36*
X3332D02*
Y1029D01*
X3395D01*
X3395Y1037D01*
X3391Y1050D01*
X3384Y1062D01*
X3376Y1073D01*
X3365Y1081D01*
X3353Y1088D01*
X3340Y1092D01*
X3332Y1093D01*
D02*
G37*
G36*
X1238Y1055D02*
X1209D01*
Y1023D01*
X1238D01*
Y1055D01*
D02*
G37*
G36*
X1277D02*
X1248D01*
Y1023D01*
X1277D01*
Y1055D01*
D02*
G37*
G36*
X2515Y1074D02*
X2482D01*
Y1045D01*
X2515D01*
Y1074D01*
D02*
G37*
G36*
X2975Y1076D02*
X2947D01*
X2948Y1072D01*
X2951Y1064D01*
X2956Y1057D01*
X2963Y1051D01*
X2972Y1048D01*
X2975Y1047D01*
Y1076D01*
D02*
G37*
G36*
X2204Y1066D02*
X2171D01*
Y1037D01*
X2204D01*
Y1066D01*
D02*
G37*
G36*
X2246D02*
X2214D01*
Y1037D01*
X2246D01*
Y1066D01*
D02*
G37*
G36*
X1946Y705D02*
X1913D01*
Y676D01*
X1946D01*
Y705D01*
D02*
G37*
G36*
X1046Y191D02*
X1018D01*
Y158D01*
X1046D01*
Y191D01*
D02*
G37*
G36*
X2209Y198D02*
X2204Y197D01*
X2194Y193D01*
X2186Y187D01*
X2179Y178D01*
X2175Y169D01*
X2175Y163D01*
X2209D01*
Y198D01*
D02*
G37*
G36*
X1850Y194D02*
X1778D01*
Y123D01*
X1850D01*
Y194D01*
D02*
G37*
G36*
X1008Y191D02*
X979D01*
Y158D01*
X1008D01*
Y191D01*
D02*
G37*
G36*
X1300Y432D02*
X1291Y431D01*
X1282Y427D01*
X1274Y421D01*
X1269Y414D01*
X1265Y405D01*
X1264Y396D01*
X1265Y387D01*
X1269Y378D01*
X1274Y371D01*
X1282Y365D01*
X1291Y361D01*
X1300Y360D01*
X1309Y361D01*
X1318Y365D01*
X1325Y371D01*
X1331Y378D01*
X1334Y387D01*
X1336Y396D01*
X1334Y405D01*
X1331Y414D01*
X1325Y421D01*
X1318Y427D01*
X1309Y431D01*
X1300Y432D01*
D02*
G37*
G36*
X1295Y491D02*
X1261D01*
X1261Y486D01*
X1265Y476D01*
X1272Y468D01*
X1280Y462D01*
X1289Y458D01*
X1295Y457D01*
Y491D01*
D02*
G37*
G36*
X2219Y198D02*
Y163D01*
X2253D01*
X2252Y169D01*
X2249Y178D01*
X2242Y187D01*
X2234Y193D01*
X2224Y197D01*
X2219Y198D01*
D02*
G37*
G36*
X1008Y233D02*
X979D01*
Y201D01*
X1008D01*
Y233D01*
D02*
G37*
G36*
X2209Y153D02*
X2175D01*
X2175Y148D01*
X2179Y139D01*
X2186Y130D01*
X2194Y124D01*
X2204Y120D01*
X2209Y119D01*
Y153D01*
D02*
G37*
G36*
X2253D02*
X2219D01*
Y119D01*
X2224Y120D01*
X2234Y124D01*
X2242Y130D01*
X2249Y139D01*
X2252Y148D01*
X2253Y153D01*
D02*
G37*
G36*
X840Y262D02*
X735D01*
X683Y210D01*
Y105D01*
X735Y53D01*
X840D01*
X892Y105D01*
Y210D01*
X840Y262D01*
D02*
G37*
G36*
X2808D02*
X2704D01*
X2651Y210D01*
Y105D01*
X2704Y53D01*
X2808D01*
X2860Y105D01*
Y210D01*
X2808Y262D01*
D02*
G37*
G36*
X2114Y194D02*
X2105Y193D01*
X2096Y189D01*
X2089Y184D01*
X2083Y176D01*
X2079Y168D01*
X2078Y158D01*
X2079Y149D01*
X2083Y141D01*
X2089Y133D01*
X2096Y127D01*
X2105Y124D01*
X2114Y123D01*
X2123Y124D01*
X2132Y127D01*
X2139Y133D01*
X2145Y141D01*
X2149Y149D01*
X2150Y158D01*
X2149Y168D01*
X2145Y176D01*
X2139Y184D01*
X2132Y189D01*
X2123Y193D01*
X2114Y194D01*
D02*
G37*
G36*
X2314D02*
X2305Y193D01*
X2296Y189D01*
X2289Y184D01*
X2283Y176D01*
X2279Y168D01*
X2278Y158D01*
X2279Y149D01*
X2283Y141D01*
X2289Y133D01*
X2296Y127D01*
X2305Y124D01*
X2314Y123D01*
X2323Y124D01*
X2332Y127D01*
X2339Y133D01*
X2345Y141D01*
X2349Y149D01*
X2350Y158D01*
X2349Y168D01*
X2345Y176D01*
X2339Y184D01*
X2332Y189D01*
X2323Y193D01*
X2314Y194D01*
D02*
G37*
G36*
X1914D02*
X1905Y193D01*
X1896Y189D01*
X1889Y184D01*
X1883Y176D01*
X1879Y168D01*
X1878Y158D01*
X1879Y149D01*
X1883Y141D01*
X1889Y133D01*
X1896Y127D01*
X1905Y124D01*
X1914Y123D01*
X1923Y124D01*
X1932Y127D01*
X1939Y133D01*
X1945Y141D01*
X1949Y149D01*
X1950Y158D01*
X1949Y168D01*
X1945Y176D01*
X1939Y184D01*
X1932Y189D01*
X1923Y193D01*
X1914Y194D01*
D02*
G37*
G36*
X2014D02*
X2005Y193D01*
X1996Y189D01*
X1989Y184D01*
X1983Y176D01*
X1979Y168D01*
X1978Y158D01*
X1979Y149D01*
X1983Y141D01*
X1989Y133D01*
X1996Y127D01*
X2005Y124D01*
X2014Y123D01*
X2023Y124D01*
X2032Y127D01*
X2039Y133D01*
X2045Y141D01*
X2049Y149D01*
X2050Y158D01*
X2049Y168D01*
X2045Y176D01*
X2039Y184D01*
X2032Y189D01*
X2023Y193D01*
X2014Y194D01*
D02*
G37*
G36*
X2784Y608D02*
X2756D01*
Y576D01*
X2784D01*
Y608D01*
D02*
G37*
G36*
X2823D02*
X2794D01*
Y576D01*
X2823D01*
Y608D01*
D02*
G37*
G36*
X3322Y620D02*
X3313Y619D01*
X3300Y615D01*
X3288Y609D01*
X3278Y600D01*
X3269Y590D01*
X3262Y578D01*
X3259Y565D01*
X3258Y556D01*
X3322D01*
Y620D01*
D02*
G37*
G36*
X3332D02*
Y556D01*
X3395D01*
X3395Y565D01*
X3391Y578D01*
X3384Y590D01*
X3376Y600D01*
X3365Y609D01*
X3353Y615D01*
X3340Y619D01*
X3332Y620D01*
D02*
G37*
G36*
X1993Y666D02*
X1959D01*
X1960Y664D01*
Y638D01*
X1993D01*
Y666D01*
D02*
G37*
G36*
X1903Y705D02*
X1871D01*
Y676D01*
X1903D01*
Y705D01*
D02*
G37*
G36*
Y666D02*
X1871D01*
Y638D01*
X1903D01*
Y666D01*
D02*
G37*
G36*
X1946D02*
X1913D01*
Y638D01*
X1946D01*
Y666D01*
D02*
G37*
G36*
X3322Y546D02*
X3258D01*
X3259Y538D01*
X3262Y525D01*
X3269Y513D01*
X3278Y502D01*
X3288Y493D01*
X3300Y487D01*
X3313Y483D01*
X3322Y482D01*
Y546D01*
D02*
G37*
G36*
X3395D02*
X3332D01*
Y482D01*
X3340Y483D01*
X3353Y487D01*
X3365Y493D01*
X3376Y502D01*
X3384Y513D01*
X3391Y525D01*
X3395Y538D01*
X3395Y546D01*
D02*
G37*
G36*
X1339Y491D02*
X1305D01*
Y457D01*
X1310Y458D01*
X1320Y462D01*
X1328Y468D01*
X1334Y476D01*
X1338Y486D01*
X1339Y491D01*
D02*
G37*
G36*
X1235Y532D02*
X1164D01*
Y461D01*
X1235D01*
Y532D01*
D02*
G37*
G36*
X2784Y566D02*
X2756D01*
Y533D01*
X2784D01*
Y566D01*
D02*
G37*
G36*
X2823D02*
X2794D01*
Y533D01*
X2823D01*
Y566D01*
D02*
G37*
G36*
X1295Y535D02*
X1289Y535D01*
X1280Y531D01*
X1272Y524D01*
X1265Y516D01*
X1261Y506D01*
X1261Y501D01*
X1295D01*
Y535D01*
D02*
G37*
G36*
X1305D02*
Y501D01*
X1339D01*
X1338Y506D01*
X1334Y516D01*
X1328Y524D01*
X1320Y531D01*
X1310Y535D01*
X1305Y535D01*
D02*
G37*
G36*
X1178Y1691D02*
X1149D01*
Y1658D01*
X1178D01*
Y1691D01*
D02*
G37*
G36*
X1217D02*
X1188D01*
Y1658D01*
X1217D01*
Y1691D01*
D02*
G37*
G36*
X1093D02*
X1065D01*
Y1658D01*
X1093D01*
Y1691D01*
D02*
G37*
G36*
X1132D02*
X1103D01*
Y1658D01*
X1132D01*
Y1691D01*
D02*
G37*
G36*
X2565Y1697D02*
X2532D01*
Y1668D01*
X2565D01*
Y1697D01*
D02*
G37*
G36*
X2607D02*
X2575D01*
Y1668D01*
X2607D01*
Y1697D01*
D02*
G37*
G36*
X2476Y1696D02*
X2444D01*
Y1667D01*
X2476D01*
Y1696D01*
D02*
G37*
G36*
X2519D02*
X2486D01*
Y1667D01*
X2519D01*
Y1696D01*
D02*
G37*
G36*
X3170Y1740D02*
X3158Y1738D01*
X3147Y1734D01*
X3138Y1726D01*
X3131Y1717D01*
X3129Y1713D01*
X3089D01*
X3081Y1712D01*
X3075Y1707D01*
X2959Y1592D01*
X2953Y1593D01*
X2943Y1591D01*
X2935Y1588D01*
X2927Y1582D01*
X2923Y1577D01*
X2825D01*
X2821Y1582D01*
X2813Y1588D01*
X2805Y1591D01*
X2795Y1593D01*
X2786Y1591D01*
X2777Y1588D01*
X2770Y1582D01*
X2764Y1575D01*
X2761Y1566D01*
X2759Y1557D01*
X2761Y1547D01*
X2764Y1539D01*
X2770Y1531D01*
X2777Y1526D01*
X2786Y1522D01*
X2795Y1521D01*
X2805Y1522D01*
X2813Y1526D01*
X2821Y1531D01*
X2825Y1537D01*
X2923D01*
X2927Y1531D01*
X2935Y1526D01*
X2943Y1522D01*
X2953Y1521D01*
X2962Y1522D01*
X2971Y1526D01*
X2978Y1531D01*
X2984Y1539D01*
X2987Y1547D01*
X2989Y1557D01*
X2988Y1563D01*
X3097Y1673D01*
X3130D01*
X3131Y1671D01*
X3138Y1662D01*
X3147Y1654D01*
X3158Y1650D01*
X3170Y1648D01*
X3182Y1650D01*
X3193Y1654D01*
X3203Y1662D01*
X3210Y1671D01*
X3214Y1682D01*
X3216Y1694D01*
X3214Y1706D01*
X3210Y1717D01*
X3203Y1726D01*
X3193Y1734D01*
X3182Y1738D01*
X3170Y1740D01*
D02*
G37*
G36*
X2565Y1658D02*
X2532D01*
Y1630D01*
X2565D01*
Y1658D01*
D02*
G37*
G36*
X2607D02*
X2575D01*
Y1630D01*
X2607D01*
Y1658D01*
D02*
G37*
G36*
X2476Y1657D02*
X2444D01*
Y1629D01*
X2476D01*
Y1657D01*
D02*
G37*
G36*
X2519D02*
X2486D01*
Y1629D01*
X2519D01*
Y1657D01*
D02*
G37*
G36*
X1681Y1673D02*
X1649D01*
Y1645D01*
X1681D01*
Y1673D01*
D02*
G37*
G36*
X1752Y2064D02*
X1681D01*
Y2012D01*
X1575Y1906D01*
X1573Y1902D01*
X1572Y1897D01*
Y1649D01*
X1568Y1646D01*
X1563Y1648D01*
Y1673D01*
X1531D01*
Y1645D01*
X1558D01*
X1560Y1641D01*
X1560Y1640D01*
X1558Y1637D01*
X1492D01*
Y1578D01*
X1514D01*
Y1486D01*
Y1426D01*
X1509Y1424D01*
X1509Y1424D01*
X1506Y1427D01*
X1502Y1427D01*
X1411D01*
X1408Y1427D01*
X1404Y1424D01*
X1402Y1421D01*
X1401Y1417D01*
X1402Y1413D01*
X1403Y1413D01*
X1401Y1408D01*
X1401Y1408D01*
Y1368D01*
Y1330D01*
X1369D01*
X1344Y1355D01*
Y1403D01*
X1284D01*
Y1336D01*
X1301D01*
Y1320D01*
X1284D01*
Y1253D01*
X1332D01*
X1358Y1226D01*
X1358Y1226D01*
X1362Y1224D01*
X1366Y1223D01*
X1366Y1223D01*
X1372D01*
X1373Y1218D01*
X1369Y1217D01*
X1363Y1213D01*
X1359Y1207D01*
X1357Y1200D01*
X1359Y1193D01*
X1363Y1186D01*
X1369Y1182D01*
X1374Y1181D01*
X1377Y1177D01*
X1377Y1176D01*
X1376Y1175D01*
X1348D01*
X1344Y1179D01*
Y1226D01*
X1284D01*
Y1159D01*
X1332D01*
X1336Y1155D01*
X1339Y1153D01*
X1344Y1152D01*
X1344Y1152D01*
X1383D01*
X1383Y1152D01*
X1387Y1153D01*
X1391Y1155D01*
X1397Y1162D01*
X1401Y1160D01*
Y1112D01*
Y1074D01*
X1379D01*
X1344Y1109D01*
Y1143D01*
X1284D01*
Y1076D01*
X1301D01*
Y1051D01*
X1284D01*
Y984D01*
X1301D01*
Y963D01*
X1284D01*
Y896D01*
X1303D01*
Y849D01*
X1290Y836D01*
X923D01*
X921Y841D01*
X940Y860D01*
X943Y864D01*
X944Y869D01*
Y1219D01*
X943Y1225D01*
X940Y1229D01*
X915Y1254D01*
X910Y1257D01*
X905Y1258D01*
X645D01*
Y1264D01*
X561D01*
Y1272D01*
X645D01*
Y1277D01*
X727D01*
X728Y1274D01*
X735Y1270D01*
X742Y1269D01*
X749Y1270D01*
X755Y1274D01*
X759Y1281D01*
X761Y1288D01*
X759Y1295D01*
X755Y1301D01*
X749Y1305D01*
X742Y1307D01*
X735Y1305D01*
X728Y1301D01*
X727Y1299D01*
X649D01*
X645Y1303D01*
Y1308D01*
X649Y1311D01*
X649D01*
Y1328D01*
X600D01*
Y1338D01*
X649D01*
Y1355D01*
X649D01*
X646Y1359D01*
X646Y1363D01*
X671D01*
X672Y1361D01*
X678Y1357D01*
X685Y1356D01*
X693Y1357D01*
X699Y1361D01*
X703Y1367D01*
X704Y1374D01*
X703Y1382D01*
X699Y1388D01*
X693Y1392D01*
X685Y1393D01*
X678Y1392D01*
X672Y1388D01*
X671Y1386D01*
X645D01*
Y1394D01*
X561D01*
Y1402D01*
X645D01*
Y1438D01*
X555D01*
Y1432D01*
X550Y1429D01*
X546Y1428D01*
X543Y1426D01*
X543Y1426D01*
X542Y1425D01*
X539Y1421D01*
X538Y1417D01*
X538Y1417D01*
Y1091D01*
X538Y1091D01*
X539Y1087D01*
X542Y1084D01*
X670Y955D01*
Y927D01*
X648D01*
Y868D01*
X715D01*
Y927D01*
X692D01*
Y960D01*
X692Y960D01*
X692Y960D01*
Y1047D01*
X730Y1085D01*
X732Y1085D01*
X740Y1086D01*
X746Y1090D01*
X750Y1096D01*
X751Y1101D01*
X756Y1102D01*
X769Y1089D01*
Y1082D01*
X767Y1081D01*
X763Y1075D01*
X762Y1067D01*
X763Y1060D01*
X767Y1054D01*
X769Y1053D01*
Y927D01*
X747D01*
Y868D01*
X814D01*
Y927D01*
X792D01*
Y1053D01*
X794Y1054D01*
X798Y1060D01*
X799Y1067D01*
X798Y1075D01*
X794Y1081D01*
X792Y1082D01*
Y1094D01*
X792Y1094D01*
X791Y1098D01*
X788Y1102D01*
X755Y1135D01*
X751Y1138D01*
X747Y1139D01*
X747Y1139D01*
X722D01*
X722Y1139D01*
X718Y1138D01*
X714Y1135D01*
X714Y1135D01*
X705Y1126D01*
X645D01*
Y1134D01*
X561D01*
Y1142D01*
X645D01*
Y1143D01*
X649Y1146D01*
X825Y1145D01*
X826Y896D01*
X827Y894D01*
X827Y891D01*
X827Y891D01*
X827Y891D01*
X828Y890D01*
X830Y888D01*
X830Y888D01*
X830Y888D01*
X831Y887D01*
X833Y885D01*
X833Y885D01*
X833Y885D01*
X835Y885D01*
X837Y884D01*
X843D01*
Y868D01*
X904D01*
X906Y863D01*
X899Y856D01*
X843D01*
Y840D01*
X814D01*
Y856D01*
X747D01*
Y840D01*
X715D01*
Y856D01*
X648D01*
Y840D01*
X643D01*
X638Y839D01*
X634Y836D01*
X622Y823D01*
X619Y819D01*
X618Y814D01*
Y664D01*
X619Y659D01*
X622Y655D01*
X634Y642D01*
X638Y639D01*
X643Y638D01*
X648D01*
Y622D01*
X715D01*
Y638D01*
X749D01*
Y622D01*
X816D01*
Y638D01*
X910D01*
Y295D01*
X911Y290D01*
X914Y286D01*
X918Y283D01*
X923Y282D01*
X982D01*
Y263D01*
X1000D01*
X1003Y259D01*
X1024Y238D01*
X1022Y233D01*
X1018D01*
Y201D01*
X1046D01*
Y208D01*
X1051Y210D01*
X1054Y207D01*
Y162D01*
X1113D01*
Y183D01*
X1167D01*
X1169Y178D01*
X1174Y171D01*
X1182Y165D01*
X1191Y161D01*
X1200Y160D01*
X1209Y161D01*
X1218Y165D01*
X1225Y171D01*
X1231Y178D01*
X1234Y187D01*
X1236Y196D01*
X1234Y205D01*
X1232Y210D01*
X1252Y230D01*
X1277D01*
X1279Y225D01*
X1274Y221D01*
X1269Y214D01*
X1265Y205D01*
X1264Y196D01*
X1265Y187D01*
X1269Y178D01*
X1274Y171D01*
X1282Y165D01*
X1291Y161D01*
X1300Y160D01*
X1309Y161D01*
X1318Y165D01*
X1325Y171D01*
X1326Y172D01*
X1571D01*
X1571Y172D01*
X1575Y173D01*
X1579Y175D01*
X1767Y364D01*
X2063D01*
X2063Y364D01*
X2067Y365D01*
X2071Y367D01*
X2381Y678D01*
X2384Y677D01*
X2391Y678D01*
X2397Y683D01*
X2401Y689D01*
X2403Y696D01*
X2401Y703D01*
X2397Y709D01*
X2391Y713D01*
X2384Y715D01*
X2377Y713D01*
X2371Y709D01*
X2366Y703D01*
X2365Y696D01*
X2365Y693D01*
X2058Y386D01*
X1763D01*
X1759Y385D01*
X1755Y383D01*
X1755Y383D01*
X1566Y194D01*
X1337D01*
X1336Y196D01*
X1334Y205D01*
X1331Y214D01*
X1325Y221D01*
X1320Y225D01*
X1322Y230D01*
X1512D01*
X1517Y231D01*
X1521Y234D01*
X1522Y235D01*
X1523Y236D01*
X1526Y240D01*
X1527Y245D01*
Y262D01*
X1543D01*
Y329D01*
X1527D01*
Y426D01*
X1526Y431D01*
X1523Y436D01*
X1500Y458D01*
Y640D01*
X1527D01*
Y673D01*
X1537D01*
Y640D01*
X1560D01*
Y606D01*
X1560Y606D01*
X1561Y602D01*
X1564Y599D01*
X1576Y586D01*
X1576Y586D01*
X1580Y584D01*
X1584Y583D01*
X1584Y583D01*
X1730D01*
X1730Y583D01*
X1734Y584D01*
X1738Y586D01*
X1750Y599D01*
X1750Y599D01*
X1752Y602D01*
X1753Y603D01*
X1754Y607D01*
X1758Y608D01*
X2025D01*
X2025Y608D01*
X2029Y609D01*
X2033Y611D01*
X2045Y624D01*
X2045Y624D01*
X2048Y627D01*
X2049Y631D01*
X2049Y631D01*
Y731D01*
X2544D01*
X2544Y731D01*
X2548Y732D01*
X2552Y734D01*
X2566Y749D01*
X2566Y749D01*
X2569Y752D01*
X2570Y756D01*
Y1047D01*
X2574Y1050D01*
X2575Y1049D01*
X2582Y1048D01*
X2590Y1049D01*
X2596Y1053D01*
X2600Y1059D01*
X2601Y1066D01*
X2600Y1074D01*
X2596Y1080D01*
X2594Y1081D01*
Y1160D01*
X2598Y1162D01*
X2615Y1146D01*
Y705D01*
X2407Y498D01*
X2405Y498D01*
X2397Y497D01*
X2391Y493D01*
X2387Y487D01*
X2386Y479D01*
X2387Y472D01*
X2391Y466D01*
X2397Y462D01*
X2405Y460D01*
X2412Y462D01*
X2418Y466D01*
X2422Y472D01*
X2423Y479D01*
X2423Y482D01*
X2634Y693D01*
X2635Y695D01*
X2640Y694D01*
Y654D01*
X2638Y652D01*
X2634Y646D01*
X2633Y639D01*
X2634Y632D01*
X2638Y625D01*
X2644Y621D01*
X2652Y620D01*
X2659Y621D01*
X2665Y625D01*
X2669Y632D01*
X2670Y639D01*
X2669Y646D01*
X2665Y652D01*
X2663Y654D01*
Y1151D01*
X2663Y1151D01*
X2662Y1155D01*
X2660Y1158D01*
X2660Y1158D01*
X2607Y1211D01*
X2609Y1212D01*
X2610Y1218D01*
Y1302D01*
X2610Y1302D01*
X2614Y1307D01*
X2619D01*
X2822Y1105D01*
Y1050D01*
Y948D01*
Y906D01*
Y863D01*
X2823Y858D01*
X2825Y854D01*
X2830Y851D01*
X2835Y850D01*
X2840Y851D01*
X2844Y854D01*
X2844Y855D01*
X2850D01*
X2851Y854D01*
X2855Y851D01*
X2860Y850D01*
X2865Y851D01*
X2867Y852D01*
X2873Y851D01*
X2874Y851D01*
X2879Y847D01*
X2883Y847D01*
X2885Y841D01*
X2852Y809D01*
X2850Y805D01*
X2849Y801D01*
X2849Y801D01*
Y768D01*
X2848Y764D01*
X2822D01*
Y710D01*
X2822Y709D01*
X2822Y707D01*
Y653D01*
X2848D01*
X2849Y649D01*
Y604D01*
X2831D01*
Y537D01*
X2890D01*
Y585D01*
X2919Y614D01*
X2919Y614D01*
X2922Y618D01*
X2923Y622D01*
X2923Y622D01*
Y660D01*
X2924Y661D01*
X2925Y666D01*
Y751D01*
X2924Y756D01*
X2921Y760D01*
X2916Y763D01*
X2911Y764D01*
X2906Y763D01*
X2902Y760D01*
X2902Y760D01*
X2896D01*
X2895Y760D01*
X2891Y763D01*
X2886Y764D01*
X2881Y763D01*
X2877Y760D01*
X2876Y760D01*
X2871Y762D01*
Y796D01*
X2901Y825D01*
X3147D01*
X3149Y819D01*
X3155Y811D01*
X3163Y806D01*
X3171Y802D01*
X3181Y801D01*
X3190Y802D01*
X3198Y806D01*
X3206Y811D01*
X3212Y819D01*
X3215Y827D01*
X3215Y829D01*
X3220D01*
X3221Y826D01*
X3225Y817D01*
X3231Y808D01*
X3239Y802D01*
X3249Y798D01*
X3254Y797D01*
Y837D01*
Y876D01*
X3249Y875D01*
X3239Y871D01*
X3231Y865D01*
X3225Y857D01*
X3221Y847D01*
X3220Y844D01*
X3215D01*
X3215Y846D01*
X3212Y855D01*
X3206Y862D01*
X3198Y868D01*
X3190Y871D01*
X3181Y872D01*
X3171Y871D01*
X3163Y868D01*
X3155Y862D01*
X3149Y855D01*
X3147Y848D01*
X2927D01*
X2925Y853D01*
X2927Y857D01*
X2929Y863D01*
Y901D01*
X2911D01*
Y906D01*
X2906D01*
Y964D01*
X2905Y964D01*
X2899Y960D01*
X2898D01*
X2892Y964D01*
X2891Y964D01*
Y906D01*
X2881D01*
Y964D01*
X2879Y964D01*
X2878Y963D01*
X2873Y966D01*
Y1038D01*
X2888Y1053D01*
X2890Y1052D01*
X2898Y1051D01*
X2905Y1052D01*
X2913Y1055D01*
X2919Y1060D01*
X2924Y1066D01*
X2926Y1073D01*
X2928Y1081D01*
X2926Y1088D01*
X2924Y1096D01*
X2919Y1102D01*
X2913Y1107D01*
X2905Y1110D01*
X2898Y1111D01*
X2890Y1110D01*
X2883Y1107D01*
X2877Y1102D01*
X2872Y1096D01*
X2869Y1088D01*
X2868Y1081D01*
X2869Y1073D01*
X2870Y1071D01*
X2853Y1055D01*
X2852Y1055D01*
X2848Y1057D01*
Y1110D01*
X2847Y1115D01*
X2844Y1120D01*
X2634Y1330D01*
X2630Y1333D01*
X2624Y1334D01*
X2610D01*
Y1457D01*
Y1499D01*
X2609Y1504D01*
X2606Y1508D01*
X2601Y1511D01*
X2596Y1512D01*
X2591Y1511D01*
X2589Y1510D01*
X2584Y1512D01*
Y1563D01*
X2603D01*
Y1567D01*
X2608Y1569D01*
X2730Y1447D01*
X2734Y1445D01*
X2739Y1444D01*
X2760D01*
Y1421D01*
X2831D01*
Y1492D01*
X2760D01*
Y1470D01*
X2745D01*
X2613Y1602D01*
X2608Y1605D01*
X2603Y1606D01*
Y1622D01*
X2536D01*
Y1563D01*
X2558D01*
Y1529D01*
X2555Y1528D01*
X2553Y1527D01*
X2540Y1540D01*
X2536Y1543D01*
X2532Y1544D01*
X2532Y1544D01*
X2499D01*
X2493Y1550D01*
Y1562D01*
X2515D01*
Y1621D01*
X2448D01*
Y1605D01*
X2384D01*
X2379Y1604D01*
X2375Y1601D01*
X2240Y1466D01*
X2237Y1462D01*
X2236Y1456D01*
Y1451D01*
X2219D01*
Y1429D01*
X2067D01*
X2063Y1428D01*
X2062Y1427D01*
X2012D01*
Y1412D01*
X2008D01*
Y1403D01*
X2126D01*
Y1406D01*
X2219D01*
Y1384D01*
X2279D01*
Y1451D01*
X2269D01*
X2267Y1456D01*
X2389Y1578D01*
X2448D01*
Y1562D01*
X2470D01*
Y1545D01*
X2470Y1545D01*
X2471Y1541D01*
X2473Y1537D01*
X2486Y1525D01*
X2486Y1525D01*
X2490Y1522D01*
X2494Y1521D01*
X2494Y1521D01*
X2526D01*
X2527Y1520D01*
X2525Y1517D01*
Y1457D01*
Y1398D01*
X2526Y1398D01*
X2527Y1399D01*
X2532Y1396D01*
Y1375D01*
X2510Y1353D01*
X2508Y1349D01*
X2507Y1344D01*
Y1319D01*
Y1260D01*
Y1179D01*
X2486D01*
Y1120D01*
X2547D01*
Y1112D01*
X2525D01*
Y1079D01*
Y1045D01*
X2547D01*
Y761D01*
X2539Y753D01*
X2032D01*
Y772D01*
X2009D01*
Y876D01*
X2008Y880D01*
X2008Y881D01*
Y931D01*
X1992D01*
Y935D01*
X1983D01*
Y876D01*
Y817D01*
X1987D01*
Y772D01*
X1964D01*
Y713D01*
X2026D01*
Y705D01*
X2003D01*
Y671D01*
Y638D01*
X2018D01*
X2021Y633D01*
X2019Y630D01*
X1759D01*
X1753Y636D01*
Y646D01*
X1776D01*
Y705D01*
X1709D01*
Y646D01*
X1731D01*
Y631D01*
X1731Y631D01*
X1731Y631D01*
Y611D01*
X1725Y605D01*
X1589D01*
X1583Y611D01*
Y626D01*
X1588Y627D01*
X1591Y622D01*
X1597Y618D01*
X1604Y617D01*
X1612Y618D01*
X1618Y622D01*
X1622Y629D01*
X1623Y636D01*
X1622Y643D01*
X1618Y649D01*
X1616Y651D01*
Y768D01*
X1617Y770D01*
X1621Y771D01*
X1626Y767D01*
X1633Y766D01*
X1640Y767D01*
X1641Y768D01*
X1646Y765D01*
Y654D01*
X1643Y652D01*
X1639Y646D01*
X1638Y639D01*
X1639Y631D01*
X1643Y625D01*
X1649Y621D01*
X1656Y620D01*
X1664Y621D01*
X1670Y625D01*
X1674Y631D01*
X1675Y639D01*
X1674Y646D01*
X1670Y652D01*
X1667Y654D01*
Y808D01*
X1666Y812D01*
X1664Y815D01*
X1663Y816D01*
X1665Y821D01*
X1731D01*
Y776D01*
X1709D01*
Y716D01*
X1776D01*
Y776D01*
X1753D01*
Y821D01*
X1947D01*
Y811D01*
X1926Y789D01*
X1923Y786D01*
X1922Y782D01*
X1922Y782D01*
Y772D01*
X1922Y772D01*
X1875D01*
Y713D01*
X1942D01*
Y760D01*
X1944Y763D01*
X1945Y767D01*
X1945Y767D01*
Y777D01*
X1967Y799D01*
X1967Y799D01*
X1969Y802D01*
X1970Y806D01*
X1970Y806D01*
Y817D01*
X1973D01*
Y876D01*
Y935D01*
X1964D01*
Y931D01*
X1559D01*
Y935D01*
X1550D01*
Y876D01*
Y817D01*
X1553D01*
Y806D01*
X1525Y777D01*
X1522Y774D01*
X1499D01*
Y757D01*
X1494D01*
X1489Y756D01*
X1485Y753D01*
X1478Y746D01*
X1475Y742D01*
X1474Y737D01*
Y453D01*
X1475Y448D01*
X1478Y443D01*
X1501Y421D01*
Y329D01*
X1484D01*
Y262D01*
X1501D01*
Y256D01*
X1308D01*
X1308Y261D01*
X1309Y261D01*
X1318Y265D01*
X1325Y271D01*
X1331Y278D01*
X1334Y287D01*
X1336Y296D01*
X1334Y305D01*
X1332Y310D01*
X1355Y333D01*
X1411D01*
X1413Y329D01*
Y262D01*
X1473D01*
Y329D01*
X1456D01*
Y331D01*
X1455Y337D01*
X1452Y341D01*
X1438Y355D01*
X1434Y358D01*
X1429Y359D01*
X1350D01*
X1345Y358D01*
X1340Y355D01*
X1314Y329D01*
X1309Y331D01*
X1300Y332D01*
X1291Y331D01*
X1282Y327D01*
X1274Y321D01*
X1269Y314D01*
X1267Y310D01*
X1262Y311D01*
Y347D01*
X1261Y352D01*
X1258Y356D01*
X1232Y382D01*
X1234Y387D01*
X1236Y396D01*
X1234Y405D01*
X1231Y414D01*
X1225Y421D01*
X1218Y427D01*
X1209Y431D01*
X1200Y432D01*
X1191Y431D01*
X1182Y427D01*
X1174Y421D01*
X1169Y414D01*
X1165Y405D01*
X1164Y396D01*
X1165Y387D01*
X1169Y378D01*
X1174Y371D01*
X1182Y365D01*
X1191Y361D01*
X1200Y360D01*
X1209Y361D01*
X1214Y363D01*
X1236Y341D01*
Y315D01*
X1231Y314D01*
X1231Y314D01*
X1225Y321D01*
X1218Y327D01*
X1209Y331D01*
X1200Y332D01*
X1191Y331D01*
X1182Y327D01*
X1174Y321D01*
X1169Y314D01*
X1167Y309D01*
X1112D01*
Y330D01*
X1053D01*
Y263D01*
X1112D01*
Y283D01*
X1167D01*
X1169Y278D01*
X1174Y271D01*
X1182Y265D01*
X1191Y261D01*
X1200Y260D01*
X1209Y261D01*
X1218Y265D01*
X1225Y271D01*
X1231Y278D01*
X1231Y278D01*
X1236Y277D01*
Y251D01*
X1214Y229D01*
X1209Y231D01*
X1200Y232D01*
X1191Y231D01*
X1182Y227D01*
X1174Y221D01*
X1169Y214D01*
X1167Y209D01*
X1113D01*
Y229D01*
X1070D01*
X1041Y258D01*
X1041Y263D01*
X1041D01*
X1041Y263D01*
Y330D01*
X982D01*
Y308D01*
X937D01*
Y652D01*
X936Y657D01*
X933Y661D01*
X929Y664D01*
X923Y665D01*
X816D01*
Y681D01*
X749D01*
Y665D01*
X715D01*
Y681D01*
X648D01*
X644Y685D01*
Y689D01*
X648Y693D01*
X649Y693D01*
X715D01*
Y752D01*
X698D01*
X696Y757D01*
X699Y761D01*
X700Y768D01*
X699Y776D01*
X694Y782D01*
X688Y786D01*
X681Y787D01*
X674Y786D01*
X668Y782D01*
X664Y776D01*
X662Y768D01*
X664Y761D01*
X666Y757D01*
X664Y752D01*
X649D01*
X648Y752D01*
X644Y756D01*
Y794D01*
X648Y797D01*
X715D01*
Y814D01*
X747D01*
Y797D01*
X814D01*
Y814D01*
X843D01*
Y797D01*
X911D01*
Y814D01*
X1295D01*
X1295Y814D01*
X1299Y814D01*
X1303Y817D01*
X1315Y829D01*
X1319Y827D01*
Y675D01*
X1319Y675D01*
X1320Y671D01*
X1323Y667D01*
X1424Y566D01*
X1423Y564D01*
X1425Y557D01*
X1429Y551D01*
X1435Y547D01*
X1442Y545D01*
X1449Y547D01*
X1455Y551D01*
X1459Y557D01*
X1461Y564D01*
X1459Y571D01*
X1455Y577D01*
X1449Y581D01*
X1442Y583D01*
X1439Y582D01*
X1342Y680D01*
Y859D01*
X1369Y886D01*
X1373Y884D01*
X1373Y880D01*
X1374Y873D01*
X1378Y867D01*
X1384Y863D01*
X1391Y862D01*
X1399Y863D01*
X1405Y867D01*
X1406Y869D01*
X1516D01*
Y821D01*
X1531D01*
Y817D01*
X1540D01*
Y876D01*
Y935D01*
X1531D01*
Y931D01*
X1516D01*
Y892D01*
X1406D01*
X1405Y894D01*
X1399Y898D01*
X1391Y899D01*
X1388Y899D01*
X1386Y903D01*
X1416Y934D01*
X1457D01*
X1461Y935D01*
X1462Y935D01*
X1512D01*
Y955D01*
Y994D01*
Y1029D01*
X1516D01*
Y1038D01*
X1457D01*
Y1048D01*
X1516D01*
Y1052D01*
X1576D01*
X1576Y1052D01*
X1580Y1053D01*
X1584Y1055D01*
X1633Y1104D01*
X1633Y1104D01*
X1635Y1108D01*
X1636Y1112D01*
Y1229D01*
X1635Y1233D01*
X1633Y1237D01*
X1633Y1237D01*
X1631Y1238D01*
X1628Y1241D01*
X1623Y1242D01*
X1623Y1242D01*
X1578D01*
X1578Y1242D01*
X1574Y1241D01*
X1570Y1238D01*
X1570Y1238D01*
X1563Y1232D01*
X1516D01*
Y1235D01*
X1457D01*
Y1245D01*
X1516D01*
Y1254D01*
X1512D01*
Y1303D01*
X1513Y1308D01*
X1517Y1309D01*
X1521Y1311D01*
X1534Y1324D01*
X1534Y1324D01*
X1536Y1327D01*
X1537Y1331D01*
X1537Y1331D01*
Y1427D01*
X1540D01*
Y1486D01*
Y1545D01*
X1537D01*
Y1578D01*
X1559D01*
Y1600D01*
X1594Y1634D01*
X1597Y1639D01*
X1598Y1644D01*
Y1891D01*
X1700Y1993D01*
X1752D01*
Y2064D01*
D02*
G37*
G36*
X1521Y1673D02*
X1488D01*
Y1645D01*
X1521D01*
Y1673D01*
D02*
G37*
G36*
X1639D02*
X1606D01*
Y1645D01*
X1639D01*
Y1673D01*
D02*
G37*
G36*
X1912Y2024D02*
X1877D01*
X1878Y2018D01*
X1882Y2009D01*
X1888Y2000D01*
X1897Y1994D01*
X1906Y1990D01*
X1912Y1989D01*
Y2024D01*
D02*
G37*
G36*
X1956D02*
X1922D01*
Y1989D01*
X1927Y1990D01*
X1936Y1994D01*
X1945Y2000D01*
X1951Y2009D01*
X1955Y2018D01*
X1956Y2024D01*
D02*
G37*
G36*
X2017Y2064D02*
X2007Y2063D01*
X1999Y2060D01*
X1991Y2054D01*
X1986Y2046D01*
X1982Y2038D01*
X1981Y2029D01*
X1982Y2019D01*
X1986Y2011D01*
X1991Y2003D01*
X1999Y1998D01*
X2006Y1995D01*
Y1832D01*
X2003Y1830D01*
X1999Y1824D01*
X1998Y1817D01*
X1999Y1810D01*
X2003Y1804D01*
X2010Y1800D01*
X2017Y1798D01*
X2024Y1800D01*
X2030Y1804D01*
X2034Y1810D01*
X2036Y1817D01*
X2034Y1824D01*
X2030Y1830D01*
X2028Y1832D01*
Y1995D01*
X2034Y1998D01*
X2042Y2003D01*
X2048Y2011D01*
X2051Y2019D01*
X2052Y2029D01*
X2051Y2038D01*
X2048Y2046D01*
X2042Y2054D01*
X2034Y2060D01*
X2026Y2063D01*
X2017Y2064D01*
D02*
G37*
G36*
X2117D02*
X2107Y2063D01*
X2099Y2060D01*
X2091Y2054D01*
X2086Y2046D01*
X2082Y2038D01*
X2081Y2029D01*
X2082Y2019D01*
X2086Y2011D01*
X2091Y2003D01*
X2099Y1998D01*
X2105Y1995D01*
Y1971D01*
X2103Y1969D01*
X2099Y1963D01*
X2098Y1956D01*
X2099Y1949D01*
X2103Y1943D01*
X2109Y1939D01*
X2117Y1937D01*
X2124Y1939D01*
X2130Y1943D01*
X2134Y1949D01*
X2135Y1956D01*
X2134Y1963D01*
X2130Y1969D01*
X2128Y1971D01*
Y1995D01*
X2134Y1998D01*
X2142Y2003D01*
X2148Y2011D01*
X2151Y2019D01*
X2152Y2029D01*
X2151Y2038D01*
X2148Y2046D01*
X2142Y2054D01*
X2134Y2060D01*
X2126Y2063D01*
X2117Y2064D01*
D02*
G37*
G36*
X1912Y2068D02*
X1906Y2067D01*
X1897Y2063D01*
X1888Y2057D01*
X1882Y2048D01*
X1878Y2039D01*
X1877Y2034D01*
X1912D01*
Y2068D01*
D02*
G37*
G36*
X1922D02*
Y2034D01*
X1956D01*
X1955Y2039D01*
X1951Y2048D01*
X1945Y2057D01*
X1936Y2063D01*
X1927Y2067D01*
X1922Y2068D01*
D02*
G37*
G36*
X840Y2230D02*
X735D01*
X683Y2178D01*
Y2074D01*
X735Y2022D01*
X840D01*
X892Y2074D01*
Y2178D01*
X840Y2230D01*
D02*
G37*
G36*
X2808D02*
X2704D01*
X2651Y2178D01*
Y2074D01*
X2704Y2022D01*
X2808D01*
X2860Y2074D01*
Y2178D01*
X2808Y2230D01*
D02*
G37*
G36*
X2217Y2064D02*
X2207Y2063D01*
X2199Y2060D01*
X2191Y2054D01*
X2186Y2046D01*
X2182Y2038D01*
X2181Y2029D01*
X2182Y2019D01*
X2186Y2011D01*
X2191Y2003D01*
X2199Y1998D01*
X2205Y1995D01*
Y1963D01*
X1954Y1712D01*
X1952Y1713D01*
X1945Y1711D01*
X1938Y1707D01*
X1934Y1701D01*
X1933Y1694D01*
X1934Y1687D01*
X1937Y1683D01*
X1936Y1683D01*
X1933Y1679D01*
X1933Y1679D01*
X1828Y1785D01*
Y1995D01*
X1834Y1998D01*
X1842Y2003D01*
X1848Y2011D01*
X1851Y2019D01*
X1852Y2029D01*
X1851Y2038D01*
X1848Y2046D01*
X1842Y2054D01*
X1834Y2060D01*
X1826Y2063D01*
X1817Y2064D01*
X1807Y2063D01*
X1799Y2060D01*
X1791Y2054D01*
X1786Y2046D01*
X1782Y2038D01*
X1781Y2029D01*
X1782Y2019D01*
X1786Y2011D01*
X1791Y2003D01*
X1799Y1998D01*
X1805Y1995D01*
Y1780D01*
X1805Y1780D01*
X1806Y1776D01*
X1809Y1772D01*
X1809Y1772D01*
X1987Y1594D01*
Y1575D01*
X1982Y1572D01*
X1965Y1589D01*
X1966Y1592D01*
X1964Y1599D01*
X1960Y1605D01*
X1954Y1609D01*
X1947Y1610D01*
X1940Y1609D01*
X1934Y1605D01*
X1929Y1599D01*
X1928Y1592D01*
X1929Y1584D01*
X1934Y1578D01*
X1940Y1574D01*
X1947Y1573D01*
X1949Y1573D01*
X1967Y1555D01*
Y1541D01*
X1832D01*
X1830Y1546D01*
X1832Y1548D01*
X1836Y1554D01*
X1838Y1561D01*
X1836Y1568D01*
X1832Y1574D01*
X1826Y1578D01*
X1819Y1580D01*
X1812Y1578D01*
X1806Y1574D01*
X1804Y1572D01*
X1756D01*
X1752Y1571D01*
X1749Y1569D01*
X1749Y1569D01*
X1734Y1555D01*
X1732Y1551D01*
X1731Y1547D01*
X1731Y1547D01*
Y1541D01*
X1655D01*
Y1578D01*
X1677D01*
Y1637D01*
X1610D01*
Y1578D01*
X1632D01*
Y1541D01*
X1559D01*
Y1545D01*
X1550D01*
Y1486D01*
Y1427D01*
X1559D01*
Y1431D01*
X1928D01*
Y1425D01*
X1926Y1424D01*
X1922Y1418D01*
X1920Y1410D01*
X1922Y1403D01*
X1926Y1397D01*
X1932Y1393D01*
X1939Y1392D01*
X1946Y1393D01*
X1952Y1397D01*
X1956Y1403D01*
X1958Y1410D01*
X1956Y1418D01*
X1952Y1424D01*
X1950Y1425D01*
Y1431D01*
X2008D01*
Y1481D01*
X2008Y1482D01*
X2009Y1486D01*
Y1598D01*
X2009Y1598D01*
X2008Y1603D01*
X2006Y1606D01*
X2006Y1606D01*
X1972Y1640D01*
X1973Y1646D01*
X1974Y1646D01*
X1980Y1645D01*
X1988Y1646D01*
X1994Y1650D01*
X1995Y1652D01*
X2241D01*
X2301Y1593D01*
X2300Y1591D01*
X2301Y1583D01*
X2306Y1577D01*
X2312Y1573D01*
X2319Y1572D01*
X2326Y1573D01*
X2332Y1577D01*
X2336Y1583D01*
X2338Y1591D01*
X2336Y1598D01*
X2332Y1604D01*
X2326Y1608D01*
X2319Y1609D01*
X2316Y1609D01*
X2254Y1671D01*
X2250Y1674D01*
X2246Y1675D01*
X2246Y1675D01*
X1995D01*
X1994Y1677D01*
X1988Y1681D01*
X1980Y1682D01*
X1973Y1681D01*
X1970Y1679D01*
X1966Y1682D01*
X1969Y1687D01*
X1971Y1694D01*
X1970Y1696D01*
X2224Y1951D01*
X2224Y1951D01*
X2227Y1954D01*
X2228Y1959D01*
Y1995D01*
X2234Y1998D01*
X2242Y2003D01*
X2248Y2011D01*
X2251Y2019D01*
X2252Y2029D01*
X2251Y2038D01*
X2248Y2046D01*
X2242Y2054D01*
X2234Y2060D01*
X2226Y2063D01*
X2217Y2064D01*
D02*
G37*
G36*
X1639Y1712D02*
X1606D01*
Y1683D01*
X1639D01*
Y1712D01*
D02*
G37*
G36*
X1681D02*
X1649D01*
Y1683D01*
X1681D01*
Y1712D01*
D02*
G37*
G36*
X1521D02*
X1488D01*
Y1683D01*
X1521D01*
Y1712D01*
D02*
G37*
G36*
X1563D02*
X1531D01*
Y1683D01*
X1563D01*
Y1712D01*
D02*
G37*
G36*
X1178Y1733D02*
X1149D01*
Y1701D01*
X1178D01*
Y1733D01*
D02*
G37*
G36*
X1217D02*
X1188D01*
Y1701D01*
X1217D01*
Y1733D01*
D02*
G37*
G36*
X1093D02*
X1065D01*
Y1701D01*
X1093D01*
Y1733D01*
D02*
G37*
G36*
X1132D02*
X1103D01*
Y1701D01*
X1132D01*
Y1733D01*
D02*
G37*
G36*
X1577Y1412D02*
X1570Y1411D01*
X1564Y1407D01*
X1560Y1401D01*
X1559Y1393D01*
X1560Y1386D01*
X1564Y1380D01*
X1570Y1376D01*
X1577Y1375D01*
X1580Y1375D01*
X1959Y996D01*
X1963Y994D01*
X1967Y993D01*
X1967Y993D01*
X2012D01*
Y974D01*
Y935D01*
X2122D01*
Y974D01*
Y1014D01*
Y1053D01*
Y1092D01*
Y1131D01*
X2175D01*
Y1112D01*
X2242D01*
Y1131D01*
X2266D01*
X2267Y1128D01*
X2273Y1124D01*
X2280Y1123D01*
X2288Y1124D01*
X2294Y1128D01*
X2298Y1135D01*
X2299Y1142D01*
X2298Y1149D01*
X2294Y1155D01*
X2288Y1159D01*
X2280Y1161D01*
X2273Y1159D01*
X2267Y1155D01*
X2266Y1153D01*
X2242D01*
Y1171D01*
X2175D01*
Y1153D01*
X2122D01*
Y1185D01*
X2127Y1188D01*
X2131Y1185D01*
X2138Y1184D01*
X2146Y1185D01*
X2152Y1189D01*
X2156Y1195D01*
X2157Y1202D01*
X2156Y1210D01*
X2152Y1216D01*
X2150Y1217D01*
Y1281D01*
X2150Y1281D01*
X2149Y1286D01*
X2146Y1289D01*
X2129Y1307D01*
X2125Y1310D01*
X2122Y1310D01*
Y1329D01*
Y1367D01*
X2153D01*
X2197Y1323D01*
X2200Y1320D01*
X2205Y1319D01*
X2205Y1319D01*
X2219D01*
Y1297D01*
X2279D01*
Y1364D01*
X2219D01*
Y1342D01*
X2209D01*
X2165Y1386D01*
X2162Y1388D01*
X2157Y1389D01*
X2157Y1389D01*
X2126D01*
Y1393D01*
X2008D01*
Y1384D01*
X2012D01*
Y1369D01*
X2000D01*
X1999Y1375D01*
X1995Y1381D01*
X1989Y1385D01*
X1981Y1387D01*
X1974Y1385D01*
X1968Y1381D01*
X1964Y1375D01*
X1963Y1368D01*
X1964Y1361D01*
X1968Y1355D01*
X1974Y1351D01*
X1981Y1349D01*
X1984Y1350D01*
X1987Y1348D01*
X1991Y1347D01*
X1991Y1347D01*
X2012D01*
Y1304D01*
X2007Y1302D01*
X1971Y1338D01*
X1967Y1341D01*
X1963Y1342D01*
X1963Y1342D01*
X1944D01*
X1940Y1341D01*
X1936Y1338D01*
X1936Y1338D01*
X1919Y1321D01*
X1916Y1317D01*
X1915Y1313D01*
X1915Y1313D01*
Y1255D01*
X1911Y1251D01*
X1908Y1251D01*
X1901Y1250D01*
X1895Y1246D01*
X1891Y1240D01*
X1890Y1232D01*
X1891Y1227D01*
X1886Y1225D01*
X1861Y1249D01*
X1858Y1252D01*
X1853Y1253D01*
X1853Y1253D01*
X1833D01*
X1832Y1255D01*
X1826Y1259D01*
X1818Y1260D01*
X1811Y1259D01*
X1805Y1255D01*
X1801Y1249D01*
X1800Y1242D01*
X1801Y1234D01*
X1805Y1228D01*
X1811Y1224D01*
X1818Y1223D01*
X1826Y1224D01*
X1832Y1228D01*
X1833Y1230D01*
X1849D01*
X1883Y1196D01*
X1881Y1192D01*
X1833D01*
X1832Y1193D01*
X1831Y1200D01*
X1827Y1206D01*
X1821Y1210D01*
X1814Y1211D01*
X1806Y1210D01*
X1800Y1206D01*
X1796Y1200D01*
X1796Y1198D01*
X1790Y1196D01*
X1596Y1391D01*
X1596Y1393D01*
X1595Y1401D01*
X1591Y1407D01*
X1585Y1411D01*
X1577Y1412D01*
D02*
G37*
G36*
X2354Y1326D02*
X2325D01*
Y1293D01*
X2354D01*
Y1326D01*
D02*
G37*
G36*
X2315D02*
X2286D01*
Y1293D01*
X2315D01*
Y1326D01*
D02*
G37*
G36*
X1277Y1364D02*
X1248D01*
Y1332D01*
X1277D01*
Y1364D01*
D02*
G37*
G36*
X3170Y1444D02*
X3158Y1443D01*
X3147Y1438D01*
X3138Y1431D01*
X3131Y1422D01*
X3126Y1410D01*
X3125Y1399D01*
X3126Y1387D01*
X3131Y1376D01*
X3138Y1366D01*
X3147Y1359D01*
X3158Y1354D01*
X3170Y1353D01*
X3182Y1354D01*
X3193Y1359D01*
X3203Y1366D01*
X3210Y1376D01*
X3214Y1387D01*
X3216Y1399D01*
X3214Y1410D01*
X3210Y1422D01*
X3203Y1431D01*
X3193Y1438D01*
X3182Y1443D01*
X3170Y1444D01*
D02*
G37*
G36*
X2354Y1368D02*
X2325D01*
Y1336D01*
X2354D01*
Y1368D01*
D02*
G37*
G36*
X2315D02*
X2286D01*
Y1336D01*
X2315D01*
Y1368D01*
D02*
G37*
G36*
X1057Y1729D02*
X998D01*
Y1662D01*
X1014D01*
Y1569D01*
X1015Y1564D01*
X1018Y1560D01*
X1019Y1560D01*
X1018Y1558D01*
X1017Y1550D01*
X1018Y1542D01*
X1021Y1535D01*
X1026Y1529D01*
X1032Y1524D01*
X1039Y1521D01*
X1047Y1520D01*
X1054Y1521D01*
X1058Y1523D01*
X1138Y1443D01*
Y1249D01*
X1136Y1248D01*
X1132Y1241D01*
X1131Y1234D01*
X1132Y1227D01*
X1136Y1221D01*
X1142Y1217D01*
X1150Y1215D01*
X1157Y1217D01*
X1163Y1221D01*
X1167Y1227D01*
X1168Y1234D01*
X1167Y1241D01*
X1163Y1248D01*
X1161Y1249D01*
Y1447D01*
X1161Y1447D01*
X1160Y1452D01*
X1158Y1455D01*
X1158Y1455D01*
X1074Y1539D01*
X1076Y1542D01*
X1077Y1550D01*
X1076Y1558D01*
X1073Y1565D01*
X1068Y1571D01*
X1062Y1576D01*
X1054Y1579D01*
X1047Y1580D01*
X1044Y1580D01*
X1041Y1583D01*
Y1662D01*
X1057D01*
Y1729D01*
D02*
G37*
G36*
X1277Y1147D02*
X1248D01*
Y1114D01*
X1277D01*
Y1147D01*
D02*
G37*
G36*
X1238D02*
X1209D01*
Y1114D01*
X1238D01*
Y1147D01*
D02*
G37*
G36*
X645Y1481D02*
X555D01*
Y1445D01*
X645D01*
Y1450D01*
X849D01*
X1060Y1239D01*
X1060Y1236D01*
X1061Y1229D01*
X1065Y1223D01*
X1072Y1219D01*
X1079Y1217D01*
X1086Y1219D01*
X1092Y1223D01*
X1096Y1229D01*
X1098Y1236D01*
X1096Y1243D01*
X1092Y1250D01*
X1086Y1254D01*
X1079Y1255D01*
X1076Y1255D01*
X862Y1469D01*
X858Y1471D01*
X854Y1472D01*
X854Y1472D01*
X645D01*
Y1481D01*
D02*
G37*
G36*
X1277Y1324D02*
X1248D01*
Y1291D01*
X1277D01*
Y1324D01*
D02*
G37*
G36*
X2988Y1492D02*
X2917D01*
Y1421D01*
X2960D01*
X3096Y1285D01*
X3103Y1281D01*
X3110Y1279D01*
X3130D01*
X3131Y1277D01*
X3138Y1268D01*
X3147Y1261D01*
X3158Y1256D01*
X3170Y1254D01*
X3182Y1256D01*
X3193Y1261D01*
X3203Y1268D01*
X3210Y1277D01*
X3214Y1288D01*
X3216Y1300D01*
X3214Y1312D01*
X3210Y1323D01*
X3203Y1333D01*
X3193Y1340D01*
X3182Y1344D01*
X3170Y1346D01*
X3158Y1344D01*
X3147Y1340D01*
X3138Y1333D01*
X3131Y1323D01*
X3129Y1319D01*
X3119D01*
X2988Y1450D01*
Y1492D01*
D02*
G37*
G36*
X1277Y1281D02*
X1248D01*
Y1249D01*
X1277D01*
Y1281D01*
D02*
G37*
G36*
Y1407D02*
X1248D01*
Y1374D01*
X1277D01*
Y1407D01*
D02*
G37*
G36*
X3362Y1546D02*
X3354Y1545D01*
X3342Y1540D01*
X3332Y1532D01*
X3324Y1522D01*
X3319Y1510D01*
X3318Y1502D01*
X3362D01*
Y1546D01*
D02*
G37*
G36*
X2515Y1515D02*
X2513Y1515D01*
X2508Y1511D01*
X2504Y1506D01*
X2502Y1499D01*
Y1462D01*
X2515D01*
Y1515D01*
D02*
G37*
G36*
X3416Y1492D02*
X3372D01*
Y1448D01*
X3380Y1449D01*
X3392Y1454D01*
X3402Y1462D01*
X3410Y1472D01*
X3415Y1484D01*
X3416Y1492D01*
D02*
G37*
G36*
X3372Y1546D02*
Y1502D01*
X3416D01*
X3415Y1510D01*
X3410Y1522D01*
X3402Y1532D01*
X3392Y1540D01*
X3380Y1545D01*
X3372Y1546D01*
D02*
G37*
G36*
X2795Y1693D02*
X2786Y1691D01*
X2777Y1688D01*
X2770Y1682D01*
X2764Y1675D01*
X2761Y1666D01*
X2759Y1657D01*
X2761Y1647D01*
X2764Y1639D01*
X2770Y1631D01*
X2777Y1626D01*
X2786Y1622D01*
X2795Y1621D01*
X2805Y1622D01*
X2813Y1626D01*
X2821Y1631D01*
X2826Y1639D01*
X2830Y1647D01*
X2831Y1657D01*
X2830Y1666D01*
X2826Y1675D01*
X2821Y1682D01*
X2813Y1688D01*
X2805Y1691D01*
X2795Y1693D01*
D02*
G37*
G36*
X3170Y1641D02*
X3158Y1640D01*
X3147Y1635D01*
X3138Y1628D01*
X3131Y1618D01*
X3126Y1607D01*
X3125Y1595D01*
X3126Y1584D01*
X3131Y1573D01*
X3138Y1563D01*
X3147Y1556D01*
X3158Y1551D01*
X3170Y1550D01*
X3182Y1551D01*
X3193Y1556D01*
X3203Y1563D01*
X3210Y1573D01*
X3214Y1584D01*
X3216Y1595D01*
X3214Y1607D01*
X3210Y1618D01*
X3203Y1628D01*
X3193Y1635D01*
X3182Y1640D01*
X3170Y1641D01*
D02*
G37*
G36*
X1284Y1729D02*
X1224D01*
Y1662D01*
X1241D01*
Y1582D01*
X1239Y1580D01*
X1231Y1579D01*
X1224Y1576D01*
X1218Y1571D01*
X1213Y1565D01*
X1210Y1558D01*
X1209Y1550D01*
X1210Y1542D01*
X1211Y1539D01*
X1200Y1527D01*
X1200Y1527D01*
X1200Y1527D01*
X1198Y1525D01*
X1197Y1523D01*
X1197Y1523D01*
X1197Y1523D01*
X1197Y1521D01*
X1196Y1519D01*
X1196Y1519D01*
X1196Y1519D01*
X1197Y1193D01*
X1198Y1191D01*
X1198Y1189D01*
X1198Y1189D01*
X1198Y1189D01*
X1199Y1187D01*
X1201Y1185D01*
X1201Y1185D01*
X1201Y1185D01*
X1202Y1184D01*
X1204Y1183D01*
X1204Y1183D01*
X1204Y1183D01*
X1206Y1182D01*
X1208Y1182D01*
X1213D01*
Y1159D01*
X1273D01*
Y1226D01*
X1220D01*
X1220Y1245D01*
X1223Y1249D01*
X1238D01*
Y1286D01*
Y1324D01*
X1222D01*
X1221Y1327D01*
X1224Y1332D01*
X1238D01*
Y1369D01*
Y1407D01*
X1219D01*
X1219Y1514D01*
X1227Y1523D01*
X1231Y1521D01*
X1239Y1520D01*
X1247Y1521D01*
X1254Y1524D01*
X1260Y1529D01*
X1265Y1535D01*
X1268Y1542D01*
X1269Y1550D01*
X1268Y1558D01*
X1266Y1561D01*
X1267Y1565D01*
Y1662D01*
X1284D01*
Y1729D01*
D02*
G37*
G36*
X3362Y1492D02*
X3318D01*
X3319Y1484D01*
X3324Y1472D01*
X3332Y1462D01*
X3342Y1454D01*
X3354Y1449D01*
X3362Y1448D01*
Y1492D01*
D02*
G37*
G36*
X2354Y1412D02*
X2325D01*
Y1380D01*
X2354D01*
Y1412D01*
D02*
G37*
G36*
X2315D02*
X2286D01*
Y1380D01*
X2315D01*
Y1412D01*
D02*
G37*
G36*
X2515Y1452D02*
X2502D01*
Y1414D01*
X2504Y1408D01*
X2508Y1402D01*
X2513Y1398D01*
X2515Y1398D01*
Y1452D01*
D02*
G37*
G36*
X2315Y1455D02*
X2286D01*
Y1422D01*
X2315D01*
Y1455D01*
D02*
G37*
G36*
X2354D02*
X2325D01*
Y1422D01*
X2354D01*
Y1455D01*
D02*
G37*
%LPD*%
G36*
X2012Y1171D02*
Y1132D01*
Y1092D01*
Y1053D01*
Y1015D01*
X1972D01*
X1822Y1165D01*
X1824Y1170D01*
X1826Y1169D01*
X1826Y1169D01*
X1948D01*
X1948Y1169D01*
X1952Y1170D01*
X1956Y1173D01*
X1973Y1190D01*
X2012D01*
Y1171D01*
D02*
G37*
G36*
X917Y1214D02*
Y877D01*
X916Y876D01*
X911Y878D01*
Y927D01*
X849D01*
X848Y1117D01*
X852Y1120D01*
X854Y1120D01*
X862Y1121D01*
X868Y1125D01*
X872Y1131D01*
X873Y1138D01*
X872Y1146D01*
X868Y1152D01*
X862Y1156D01*
X854Y1157D01*
X852Y1157D01*
X844Y1164D01*
X844Y1164D01*
X843Y1166D01*
X839Y1168D01*
X835Y1169D01*
X835Y1169D01*
X645D01*
Y1178D01*
X561D01*
Y1185D01*
X645D01*
Y1190D01*
X869D01*
X882Y1177D01*
Y975D01*
X880Y974D01*
X876Y968D01*
X875Y960D01*
X876Y953D01*
X880Y947D01*
X886Y943D01*
X893Y942D01*
X901Y943D01*
X907Y947D01*
X911Y953D01*
X912Y960D01*
X911Y968D01*
X907Y974D01*
X905Y975D01*
Y1181D01*
X904Y1186D01*
X901Y1189D01*
X901Y1189D01*
X882Y1209D01*
X878Y1212D01*
X874Y1212D01*
X874Y1212D01*
X645D01*
Y1221D01*
X561D01*
Y1229D01*
X645D01*
Y1231D01*
X900D01*
X917Y1214D01*
D02*
G37*
G36*
X1614Y1188D02*
Y1117D01*
X1571Y1074D01*
X1512D01*
Y1112D01*
Y1150D01*
X1556D01*
X1556Y1150D01*
X1560Y1151D01*
X1564Y1153D01*
X1599Y1189D01*
X1601Y1188D01*
X1609Y1190D01*
X1609Y1190D01*
X1614Y1188D01*
D02*
G37*
G36*
X1356Y1311D02*
X1356Y1311D01*
X1360Y1309D01*
X1364Y1308D01*
X1364Y1308D01*
X1401D01*
Y1289D01*
Y1254D01*
X1397D01*
Y1245D01*
X1392Y1243D01*
X1390Y1245D01*
X1386Y1245D01*
X1386Y1245D01*
X1371D01*
X1344Y1273D01*
Y1317D01*
X1349Y1319D01*
X1356Y1311D01*
D02*
G37*
G36*
X1994Y1284D02*
X1991Y1279D01*
X1986Y1278D01*
X1980Y1274D01*
X1976Y1268D01*
X1974Y1261D01*
X1976Y1253D01*
X1980Y1247D01*
X1986Y1243D01*
X1993Y1242D01*
X1996Y1242D01*
X2001Y1237D01*
X1999Y1232D01*
X1944D01*
X1944Y1232D01*
X1939Y1231D01*
X1936Y1228D01*
X1936Y1228D01*
X1932Y1224D01*
X1926Y1225D01*
X1926Y1226D01*
X1927Y1232D01*
X1927Y1235D01*
X1934Y1243D01*
X1934Y1243D01*
X1937Y1246D01*
X1938Y1250D01*
Y1308D01*
X1949Y1319D01*
X1958D01*
X1994Y1284D01*
D02*
G37*
G36*
X709Y1103D02*
X710Y1103D01*
X712Y1099D01*
X673Y1060D01*
X671Y1056D01*
X670Y1052D01*
X670Y1052D01*
Y993D01*
X665Y992D01*
X563Y1094D01*
X565Y1099D01*
X645D01*
Y1103D01*
X709D01*
X709Y1103D01*
D02*
G37*
D10*
X1254Y1696D02*
D03*
X1183D02*
D03*
X1083Y296D02*
D03*
X1012D02*
D03*
X2249Y1417D02*
D03*
X2320D02*
D03*
X1314Y1018D02*
D03*
X1243D02*
D03*
X1314Y929D02*
D03*
X1243D02*
D03*
X1314Y1109D02*
D03*
X1243D02*
D03*
X1314Y1369D02*
D03*
X1243D02*
D03*
X1314Y1193D02*
D03*
X1243D02*
D03*
X1028Y1696D02*
D03*
X1098D02*
D03*
X2860Y571D02*
D03*
X2789D02*
D03*
X1243Y1286D02*
D03*
X1314D02*
D03*
X2320Y1331D02*
D03*
X2249D02*
D03*
X1514Y295D02*
D03*
X1443D02*
D03*
X1084Y196D02*
D03*
X1013D02*
D03*
D11*
X1742Y675D02*
D03*
Y746D02*
D03*
X1644Y1678D02*
D03*
Y1607D02*
D03*
X2209Y1142D02*
D03*
Y1071D02*
D03*
X2570Y1663D02*
D03*
Y1593D02*
D03*
X2481Y1662D02*
D03*
Y1592D02*
D03*
X2520Y1150D02*
D03*
Y1079D02*
D03*
X1526Y1607D02*
D03*
Y1678D02*
D03*
X782Y652D02*
D03*
Y722D02*
D03*
X877Y827D02*
D03*
Y898D02*
D03*
X781Y827D02*
D03*
Y898D02*
D03*
X681Y827D02*
D03*
Y898D02*
D03*
X1998Y742D02*
D03*
Y671D02*
D03*
X1532Y744D02*
D03*
Y673D02*
D03*
X681Y652D02*
D03*
Y722D02*
D03*
X1908Y671D02*
D03*
Y742D02*
D03*
D12*
X2596Y1457D02*
D03*
X2571D02*
D03*
X2545D02*
D03*
X2520D02*
D03*
X2596Y1260D02*
D03*
X2571D02*
D03*
X2545D02*
D03*
X2911Y906D02*
D03*
X2886D02*
D03*
X2860D02*
D03*
X2835D02*
D03*
X2911Y709D02*
D03*
X2886D02*
D03*
X2860D02*
D03*
D13*
X2520Y1260D02*
D03*
X2835Y709D02*
D03*
D14*
X1526Y1486D02*
D03*
X1545D02*
D03*
X1565D02*
D03*
X1585D02*
D03*
X1604D02*
D03*
X1624D02*
D03*
X1644D02*
D03*
X1663D02*
D03*
X1683D02*
D03*
X1703D02*
D03*
X1722D02*
D03*
X1742D02*
D03*
X1762D02*
D03*
X1781D02*
D03*
X1801D02*
D03*
X1821D02*
D03*
X1841D02*
D03*
X1860D02*
D03*
X1880D02*
D03*
X1900D02*
D03*
X1919D02*
D03*
X1939D02*
D03*
X1959D02*
D03*
X1978D02*
D03*
X1998D02*
D03*
Y876D02*
D03*
X1978D02*
D03*
X1959D02*
D03*
X1939D02*
D03*
X1919D02*
D03*
X1900D02*
D03*
X1880D02*
D03*
X1860D02*
D03*
X1841D02*
D03*
X1821D02*
D03*
X1801D02*
D03*
X1781D02*
D03*
X1762D02*
D03*
X1742D02*
D03*
X1722D02*
D03*
X1703D02*
D03*
X1683D02*
D03*
X1663D02*
D03*
X1644D02*
D03*
X1624D02*
D03*
X1604D02*
D03*
X1585D02*
D03*
X1565D02*
D03*
X1545D02*
D03*
X1526D02*
D03*
D15*
X2067Y1417D02*
D03*
Y1398D02*
D03*
Y1378D02*
D03*
Y1358D02*
D03*
Y1339D02*
D03*
Y1319D02*
D03*
Y1299D02*
D03*
Y1280D02*
D03*
Y1260D02*
D03*
Y1240D02*
D03*
Y1220D02*
D03*
Y1201D02*
D03*
Y1181D02*
D03*
Y1161D02*
D03*
Y1142D02*
D03*
Y1122D02*
D03*
Y1102D02*
D03*
Y1083D02*
D03*
Y1063D02*
D03*
Y1043D02*
D03*
Y1024D02*
D03*
Y1004D02*
D03*
Y984D02*
D03*
Y965D02*
D03*
Y945D02*
D03*
X1457D02*
D03*
Y965D02*
D03*
Y984D02*
D03*
Y1004D02*
D03*
Y1024D02*
D03*
Y1043D02*
D03*
Y1063D02*
D03*
Y1083D02*
D03*
Y1102D02*
D03*
Y1122D02*
D03*
Y1142D02*
D03*
Y1161D02*
D03*
Y1181D02*
D03*
Y1201D02*
D03*
Y1220D02*
D03*
Y1240D02*
D03*
Y1260D02*
D03*
Y1280D02*
D03*
Y1299D02*
D03*
Y1319D02*
D03*
Y1339D02*
D03*
Y1358D02*
D03*
Y1378D02*
D03*
Y1398D02*
D03*
D16*
Y1417D02*
D03*
D17*
X600Y1463D02*
D03*
Y1420D02*
D03*
Y1376D02*
D03*
Y1333D02*
D03*
Y1290D02*
D03*
Y1246D02*
D03*
Y1203D02*
D03*
Y1160D02*
D03*
Y1117D02*
D03*
D18*
X2835Y1050D02*
Y1110D01*
Y906D02*
Y1050D01*
X600Y1245D02*
X905D01*
X1247Y243D02*
X1249Y245D01*
X1200Y196D02*
X1247Y243D01*
X1585Y1644D02*
Y1897D01*
X1548Y1607D02*
X1585Y1644D01*
X1526Y1607D02*
X1548Y1607D01*
X1254Y1565D02*
Y1696D01*
X1239Y1550D02*
X1254Y1565D01*
X631Y814D02*
X643Y827D01*
X631Y664D02*
Y814D01*
Y664D02*
X643Y652D01*
X781Y827D02*
X875D01*
X1487Y737D02*
X1494Y744D01*
X1487Y453D02*
Y737D01*
Y453D02*
X1514Y426D01*
X1200Y396D02*
X1249Y347D01*
Y245D02*
Y347D01*
X1514Y245D02*
Y295D01*
X1247Y243D02*
X1512D01*
X1494Y744D02*
X1532D01*
X1084Y196D02*
X1200D01*
X1083Y296D02*
X1200D01*
X1012Y269D02*
Y291D01*
Y269D02*
X1084Y197D01*
X923Y295D02*
X1008D01*
X923D02*
Y652D01*
X2597Y1320D02*
X2624D01*
X2521D02*
X2597D01*
X2596Y1321D02*
Y1457D01*
X2570Y1593D02*
X2603D01*
X2739Y1457D01*
X2795D01*
X2624Y1320D02*
X2835Y1110D01*
X1314Y1286D02*
Y1369D01*
Y1033D02*
Y1109D01*
Y929D02*
Y1018D01*
X2835Y906D02*
X2860D01*
X2520Y1150D02*
Y1260D01*
X1028Y1569D02*
Y1696D01*
Y1569D02*
X1047Y1550D01*
X2835Y709D02*
X2860D01*
X2571Y1457D02*
Y1592D01*
X681Y652D02*
X782D01*
X681Y827D02*
X781D01*
X643Y652D02*
X681D01*
X643Y827D02*
X681D01*
X1514Y295D02*
Y426D01*
X1300Y296D02*
X1350Y346D01*
X1429D01*
X1443Y331D01*
Y295D02*
Y331D01*
X1585Y1897D02*
X1717Y2029D01*
X930Y869D02*
Y1219D01*
X905Y1245D02*
X930Y1219D01*
X782Y652D02*
X923D01*
X2249Y1417D02*
Y1456D01*
X2384Y1592D01*
X2481D01*
X2545Y1369D02*
Y1457D01*
X2520Y1344D02*
X2545Y1369D01*
X2520Y1260D02*
Y1319D01*
Y1344D01*
X886Y825D02*
X930Y869D01*
X2860Y1043D02*
X2897Y1080D01*
X2860Y906D02*
Y1043D01*
D19*
X1321Y1116D02*
X1374Y1063D01*
X1314Y923D02*
X1395Y1004D01*
X1314Y1123D02*
X1321Y1116D01*
X1314Y1033D02*
X1324Y1024D01*
X877Y825D02*
X886D01*
X875Y827D02*
X877Y825D01*
X1008Y295D02*
X1012Y291D01*
X600Y1158D02*
X835D01*
X837Y896D02*
X877D01*
X600Y1115D02*
X709D01*
X550Y1418D02*
X600D01*
Y1374D02*
X685D01*
X600Y1201D02*
X874D01*
X600Y1288D02*
X742D01*
X1391Y880D02*
X1526D01*
X600Y1461D02*
X854D01*
X3259Y837D02*
X3268D01*
X3242D02*
X3259D01*
X2652Y639D02*
Y1151D01*
X2596Y1206D02*
X2652Y1151D01*
X886Y825D02*
X1295D01*
X1300Y196D02*
X1313Y183D01*
X1571D01*
X1763Y375D01*
X2063D01*
X2384Y696D01*
Y780D02*
Y1526D01*
X2246Y1663D02*
X2319Y1591D01*
X1980Y1663D02*
X2246D01*
X1947Y1592D02*
X1978Y1560D01*
Y1486D02*
Y1560D01*
X874Y1201D02*
X893Y1181D01*
X1939Y1410D02*
Y1486D01*
X1512Y243D02*
X1514Y245D01*
X1532Y744D02*
X1570D01*
X1200Y196D02*
X1200Y196D01*
X1200Y296D02*
X1200Y296D01*
X1330Y675D02*
X1442Y564D01*
X2596Y1321D02*
X2597Y1320D01*
X2860Y571D02*
X2911Y622D01*
Y709D01*
X2860Y571D02*
Y709D01*
X854Y1461D02*
X1079Y1236D01*
X2896Y837D02*
X3181D01*
X549Y1417D02*
X550Y1418D01*
X549Y1091D02*
Y1417D01*
X2860Y801D02*
X2896Y837D01*
X1400Y1220D02*
X1457D01*
X1386Y1234D02*
X1400Y1220D01*
X1366Y1234D02*
X1386D01*
X1314Y1286D02*
X1366Y1234D01*
X1364Y1319D02*
X1457D01*
X1314Y1369D02*
X1364Y1319D01*
X1374Y1063D02*
X1457D01*
X1324Y1024D02*
X1457D01*
X1395Y1004D02*
X1457D01*
X1526Y1486D02*
Y1607D01*
X1998Y742D02*
Y876D01*
X1998Y876D02*
X1998Y876D01*
X2835Y1050D02*
X2838D01*
X2067Y1417D02*
X2249D01*
X2067Y1142D02*
X2209D01*
X1742Y746D02*
Y876D01*
X1644Y1486D02*
Y1607D01*
X1401Y1181D02*
X1457D01*
X1383Y1163D02*
X1401Y1181D01*
X1344Y1163D02*
X1383D01*
X1314Y1193D02*
X1344Y1163D01*
X1998Y1486D02*
Y1598D01*
X1817Y1780D02*
X1998Y1598D01*
X1817Y1780D02*
Y2029D01*
X2570Y1593D02*
X2571Y1592D01*
X1243Y1109D02*
X1243D01*
X1243Y1270D02*
Y1286D01*
X1959Y806D02*
Y876D01*
X1934Y782D02*
X1959Y806D01*
X1934Y767D02*
Y782D01*
X1908Y742D02*
X1934Y767D01*
X2911Y905D02*
Y906D01*
X2860Y709D02*
Y801D01*
X1457Y1319D02*
X1513D01*
X1526Y1331D01*
Y1486D01*
X1456Y1200D02*
X1457Y1201D01*
X1376Y1200D02*
X1456D01*
X1150Y1234D02*
Y1447D01*
X1047Y1550D02*
X1150Y1447D01*
X2205Y1331D02*
X2249D01*
X2157Y1378D02*
X2205Y1331D01*
X2067Y1378D02*
X2157D01*
X1998Y742D02*
X2544D01*
X2558Y756D01*
Y1149D01*
X2557Y1150D02*
X2558Y1149D01*
X2520Y1150D02*
X2557D01*
X1295Y825D02*
X1314Y844D01*
X2067Y1299D02*
X2121D01*
X2138Y1281D01*
Y1202D02*
Y1281D01*
X1457Y1063D02*
X1576D01*
X1625Y1112D01*
Y1229D01*
X1623Y1230D02*
X1625Y1229D01*
X1578Y1230D02*
X1623D01*
X1568Y1220D02*
X1578Y1230D01*
X1457Y1220D02*
X1568D01*
X2117Y1956D02*
Y2029D01*
X1556Y1161D02*
X1601Y1207D01*
X1457Y1161D02*
X1556D01*
X1944Y1220D02*
X2067D01*
X1920Y1196D02*
X1944Y1220D01*
X1899Y1196D02*
X1920D01*
X1853Y1242D02*
X1899Y1196D01*
X1818Y1242D02*
X1853D01*
X1532Y744D02*
Y769D01*
X1564Y801D01*
Y839D01*
X1565Y840D01*
Y876D01*
X1604Y636D02*
Y876D01*
X2405Y479D02*
X2626Y701D01*
Y1151D01*
X2571Y1206D02*
X2626Y1151D01*
X2571Y1206D02*
Y1260D01*
X2481Y1545D02*
Y1592D01*
Y1545D02*
X2494Y1532D01*
X2532D01*
X2545Y1519D01*
Y1457D02*
Y1519D01*
X1314Y1018D02*
Y1033D01*
X1730Y594D02*
X1742Y606D01*
X1584Y594D02*
X1730D01*
X1571Y606D02*
X1584Y594D01*
X1571Y606D02*
Y743D01*
X1570Y744D02*
X1571Y743D01*
X1998Y742D02*
X2037Y741D01*
Y631D02*
Y741D01*
X2025Y619D02*
X2037Y631D01*
X1755Y619D02*
X2025D01*
X1742Y631D02*
X1755Y619D01*
X1742Y631D02*
Y675D01*
X2520Y1319D02*
X2521Y1320D01*
X600Y1158D02*
X836Y1156D01*
X837Y896D01*
X781Y898D02*
Y1067D01*
X1908Y1232D02*
X1926Y1250D01*
Y1313D01*
X1944Y1330D01*
X1963D01*
X2014Y1280D01*
X2067D01*
X709Y1115D02*
X722Y1127D01*
X747D01*
X781Y1094D01*
Y1067D02*
Y1094D01*
X681Y1052D02*
X732Y1103D01*
X1993Y1261D02*
X2013Y1240D01*
X2067D01*
X681Y722D02*
Y768D01*
X782Y760D02*
X783Y761D01*
X782Y722D02*
X783Y761D01*
X910D01*
X1624Y793D02*
X1633Y784D01*
X1624Y793D02*
Y876D01*
X1967Y1004D02*
X2067D01*
X1577Y1393D02*
X1967Y1004D01*
X2209Y1142D02*
X2280D01*
X1411Y945D02*
X1457D01*
X1330Y864D02*
X1411Y945D01*
X1330Y675D02*
Y864D01*
X1526Y876D02*
Y880D01*
X1207Y1519D02*
X1239Y1550D01*
X1207Y1519D02*
X1208Y1193D01*
X1243D01*
X2017Y2029D02*
X2017Y2028D01*
Y1817D02*
Y2028D01*
X1981Y1368D02*
X1991Y1358D01*
X2067D01*
X2217Y1959D02*
Y2029D01*
X1952Y1694D02*
X2217Y1959D01*
X1756Y1561D02*
X1819D01*
X1742Y1547D02*
X1756Y1561D01*
X1742Y1486D02*
Y1547D01*
X2545Y1209D02*
Y1260D01*
Y1209D02*
X2582Y1171D01*
Y1066D02*
Y1171D01*
X1580Y777D02*
X1585Y782D01*
Y876D01*
X1814Y1193D02*
X1826Y1180D01*
X1948D01*
X1968Y1201D01*
X2067D01*
X1314Y844D02*
Y923D01*
Y929D01*
X1742Y606D02*
Y631D01*
X835Y1158D02*
X836Y1156D01*
X854Y1138D01*
X681Y898D02*
Y960D01*
Y1052D01*
X1969Y671D02*
X1998D01*
X2320Y1416D02*
Y1417D01*
X549Y1091D02*
X681Y960D01*
X893Y960D02*
Y1181D01*
D20*
X1314Y1109D02*
Y1123D01*
D21*
X3110Y1299D02*
X3169D01*
X2953Y1457D02*
X3110Y1299D01*
X2795Y1557D02*
X2953D01*
X3089Y1693D01*
X3169D01*
D22*
X1644Y821D02*
Y876D01*
Y821D02*
X1656Y808D01*
Y639D02*
Y808D01*
X2596Y1206D02*
Y1260D01*
D23*
X3367Y1497D02*
D03*
X3170Y1694D02*
D03*
Y1595D02*
D03*
Y1300D02*
D03*
Y1399D02*
D03*
D24*
X3259Y837D02*
D03*
Y738D02*
D03*
X3181D02*
D03*
Y837D02*
D03*
X2217Y2029D02*
D03*
X2117D02*
D03*
X2017D02*
D03*
X1917D02*
D03*
X1817D02*
D03*
X2314Y158D02*
D03*
X2214D02*
D03*
X2114D02*
D03*
X2014D02*
D03*
X1914D02*
D03*
X2795Y1657D02*
D03*
Y1557D02*
D03*
X2953D02*
D03*
X1300Y496D02*
D03*
X1200Y396D02*
D03*
X1300D02*
D03*
X1200Y296D02*
D03*
X1300D02*
D03*
X1200Y196D02*
D03*
X1300D02*
D03*
D25*
X3327Y1024D02*
D03*
Y551D02*
D03*
D26*
X787Y157D02*
D03*
X2756D02*
D03*
Y2126D02*
D03*
X787D02*
D03*
D27*
X1717Y2029D02*
D03*
X1814Y158D02*
D03*
D28*
X2795Y1457D02*
D03*
X2953D02*
D03*
X1200Y496D02*
D03*
D29*
X1047Y1550D02*
D03*
X1239D02*
D03*
X2898Y1081D02*
D03*
X2980D02*
D03*
D30*
X2652Y639D02*
D03*
X2384Y696D02*
D03*
Y780D02*
D03*
Y1526D02*
D03*
X2319Y1591D02*
D03*
X1980Y1663D02*
D03*
X1947Y1592D02*
D03*
X1939Y1410D02*
D03*
X1442Y564D02*
D03*
X1079Y1236D02*
D03*
X1376Y1200D02*
D03*
X1150Y1234D02*
D03*
X2138Y1202D02*
D03*
X2117Y1956D02*
D03*
X1601Y1207D02*
D03*
X1818Y1242D02*
D03*
X685Y1374D02*
D03*
X1656Y639D02*
D03*
X1604Y636D02*
D03*
X2405Y479D02*
D03*
X854Y1138D02*
D03*
X781Y1067D02*
D03*
X1908Y1232D02*
D03*
X732Y1103D02*
D03*
X1993Y1261D02*
D03*
X681Y768D02*
D03*
X893Y960D02*
D03*
X910Y761D02*
D03*
X1633Y784D02*
D03*
X1577Y1393D02*
D03*
X742Y1288D02*
D03*
X2280Y1142D02*
D03*
X1391Y880D02*
D03*
X2017Y1817D02*
D03*
X1981Y1368D02*
D03*
X1952Y1694D02*
D03*
X1819Y1561D02*
D03*
X2582Y1066D02*
D03*
X1580Y777D02*
D03*
X1814Y1193D02*
D03*
M02*
