G04 Layer_Physical_Order=2*
G04 Layer_Color=16711680*
%FSLAX23Y23*%
%MOIN*%
G70*
G01*
G75*
%ADD19C,0.010*%
%ADD23C,0.079*%
%ADD24C,0.059*%
%ADD25C,0.118*%
%ADD26P,0.213X8X202.5*%
%ADD27R,0.059X0.059*%
%ADD28R,0.059X0.059*%
%ADD29C,0.047*%
%ADD30C,0.025*%
G36*
X3143Y2244D02*
X3148Y2205D01*
X3158Y2167D01*
X3171Y2129D01*
X3188Y2094D01*
X3209Y2060D01*
X3232Y2028D01*
X3259Y1999D01*
X3288Y1972D01*
X3320Y1949D01*
X3354Y1928D01*
X3389Y1911D01*
X3426Y1898D01*
X3465Y1889D01*
X3504Y1883D01*
X3534Y1881D01*
Y403D01*
X3504Y401D01*
X3465Y395D01*
X3426Y386D01*
X3389Y372D01*
X3353Y356D01*
X3319Y335D01*
X3288Y312D01*
X3258Y285D01*
X3232Y256D01*
X3208Y224D01*
X3188Y190D01*
X3171Y154D01*
X3158Y117D01*
X3148Y79D01*
X3142Y40D01*
X3141Y9D01*
X403Y9D01*
X401Y40D01*
X395Y79D01*
X386Y117D01*
X372Y154D01*
X356Y190D01*
X335Y224D01*
X312Y256D01*
X285Y285D01*
X256Y312D01*
X224Y335D01*
X190Y356D01*
X154Y372D01*
X117Y386D01*
X79Y395D01*
X40Y401D01*
X9Y403D01*
X9Y1881D01*
X39Y1883D01*
X79Y1889D01*
X117Y1898D01*
X154Y1911D01*
X190Y1928D01*
X224Y1949D01*
X255Y1972D01*
X285Y1999D01*
X311Y2028D01*
X335Y2060D01*
X355Y2094D01*
X372Y2129D01*
X385Y2167D01*
X395Y2205D01*
X401Y2244D01*
X402Y2274D01*
X3141D01*
X3143Y2244D01*
D02*
G37*
%LPC*%
G36*
X2384Y798D02*
X2377Y797D01*
X2371Y793D01*
X2366Y787D01*
X2365Y780D01*
X2366Y772D01*
X2371Y766D01*
X2373Y765D01*
Y711D01*
X2371Y709D01*
X2366Y703D01*
X2365Y696D01*
X2366Y689D01*
X2371Y683D01*
X2377Y678D01*
X2384Y677D01*
X2391Y678D01*
X2397Y683D01*
X2401Y689D01*
X2403Y696D01*
X2401Y703D01*
X2397Y709D01*
X2395Y711D01*
Y765D01*
X2397Y766D01*
X2401Y772D01*
X2403Y780D01*
X2401Y787D01*
X2397Y793D01*
X2391Y797D01*
X2384Y798D01*
D02*
G37*
G36*
X2652Y658D02*
X2644Y656D01*
X2638Y652D01*
X2637Y650D01*
X2431D01*
X2430Y650D01*
X2409D01*
X2405Y649D01*
X2403Y647D01*
X2399Y647D01*
X2396Y647D01*
X2394Y649D01*
X2389Y650D01*
X1671D01*
X1670Y652D01*
X1664Y656D01*
X1656Y657D01*
X1649Y656D01*
X1643Y652D01*
X1639Y646D01*
X1638Y639D01*
X1639Y631D01*
X1643Y625D01*
X1649Y621D01*
X1656Y620D01*
X1664Y621D01*
X1670Y625D01*
X1671Y627D01*
X2378D01*
Y579D01*
X2379Y575D01*
X2381Y571D01*
X2385Y569D01*
X2389Y568D01*
X2409D01*
X2414Y569D01*
X2417Y571D01*
X2420Y575D01*
X2421Y579D01*
Y627D01*
X2431D01*
X2432Y628D01*
X2637D01*
X2638Y625D01*
X2644Y621D01*
X2652Y620D01*
X2659Y621D01*
X2665Y625D01*
X2669Y632D01*
X2670Y639D01*
X2669Y646D01*
X2665Y652D01*
X2659Y656D01*
X2652Y658D01*
D02*
G37*
G36*
X3259Y774D02*
X3250Y773D01*
X3241Y769D01*
X3234Y764D01*
X3228Y756D01*
X3225Y747D01*
X3223Y738D01*
X3225Y729D01*
X3228Y720D01*
X3234Y713D01*
X3241Y707D01*
X3250Y704D01*
X3259Y702D01*
X3269Y704D01*
X3277Y707D01*
X3285Y713D01*
X3290Y720D01*
X3294Y729D01*
X3295Y738D01*
X3294Y747D01*
X3290Y756D01*
X3285Y764D01*
X3277Y769D01*
X3269Y773D01*
X3259Y774D01*
D02*
G37*
G36*
X3181D02*
X3171Y773D01*
X3163Y769D01*
X3155Y764D01*
X3149Y756D01*
X3146Y747D01*
X3145Y738D01*
X3146Y729D01*
X3149Y720D01*
X3155Y713D01*
X3163Y707D01*
X3171Y704D01*
X3181Y702D01*
X3190Y704D01*
X3198Y707D01*
X3206Y713D01*
X3212Y720D01*
X3215Y729D01*
X3216Y738D01*
X3215Y747D01*
X3212Y756D01*
X3206Y764D01*
X3198Y769D01*
X3190Y773D01*
X3181Y774D01*
D02*
G37*
G36*
X1305Y535D02*
Y501D01*
X1339D01*
X1338Y506D01*
X1334Y516D01*
X1328Y524D01*
X1320Y531D01*
X1310Y535D01*
X1305Y535D01*
D02*
G37*
G36*
X1295D02*
X1289Y535D01*
X1280Y531D01*
X1272Y524D01*
X1265Y516D01*
X1261Y506D01*
X1261Y501D01*
X1295D01*
Y535D01*
D02*
G37*
G36*
X3332Y620D02*
Y556D01*
X3395D01*
X3395Y565D01*
X3391Y578D01*
X3384Y590D01*
X3376Y600D01*
X3365Y609D01*
X3353Y615D01*
X3340Y619D01*
X3332Y620D01*
D02*
G37*
G36*
X3322D02*
X3313Y619D01*
X3300Y615D01*
X3288Y609D01*
X3278Y600D01*
X3269Y590D01*
X3262Y578D01*
X3259Y565D01*
X3258Y556D01*
X3322D01*
Y620D01*
D02*
G37*
G36*
Y1093D02*
X3313Y1092D01*
X3300Y1088D01*
X3288Y1081D01*
X3278Y1073D01*
X3269Y1062D01*
X3262Y1050D01*
X3259Y1037D01*
X3258Y1029D01*
X3322D01*
Y1093D01*
D02*
G37*
G36*
X3395Y1019D02*
X3332D01*
Y955D01*
X3340Y956D01*
X3353Y960D01*
X3365Y966D01*
X3376Y975D01*
X3384Y985D01*
X3391Y997D01*
X3395Y1010D01*
X3395Y1019D01*
D02*
G37*
G36*
X2975Y1076D02*
X2947D01*
X2948Y1072D01*
X2951Y1064D01*
X2956Y1057D01*
X2963Y1051D01*
X2972Y1048D01*
X2975Y1047D01*
Y1076D01*
D02*
G37*
G36*
X3332Y1093D02*
Y1029D01*
X3395D01*
X3395Y1037D01*
X3391Y1050D01*
X3384Y1062D01*
X3376Y1073D01*
X3365Y1081D01*
X3353Y1088D01*
X3340Y1092D01*
X3332Y1093D01*
D02*
G37*
G36*
X3264Y876D02*
Y842D01*
X3298D01*
X3298Y847D01*
X3294Y857D01*
X3287Y865D01*
X3279Y871D01*
X3270Y875D01*
X3264Y876D01*
D02*
G37*
G36*
X3298Y832D02*
X3264D01*
Y797D01*
X3270Y798D01*
X3279Y802D01*
X3287Y808D01*
X3294Y817D01*
X3298Y826D01*
X3298Y832D01*
D02*
G37*
G36*
X3322Y1019D02*
X3258D01*
X3259Y1010D01*
X3262Y997D01*
X3269Y985D01*
X3278Y975D01*
X3288Y966D01*
X3300Y960D01*
X3313Y956D01*
X3322Y955D01*
Y1019D01*
D02*
G37*
G36*
X3254Y876D02*
X3249Y875D01*
X3239Y871D01*
X3231Y865D01*
X3225Y857D01*
X3221Y847D01*
X3220Y844D01*
X3215D01*
X3215Y846D01*
X3212Y855D01*
X3206Y862D01*
X3198Y868D01*
X3190Y871D01*
X3181Y872D01*
X3171Y871D01*
X3163Y868D01*
X3155Y862D01*
X3149Y855D01*
X3146Y846D01*
X3145Y837D01*
X3146Y827D01*
X3149Y819D01*
X3155Y811D01*
X3163Y806D01*
X3171Y802D01*
X3181Y801D01*
X3190Y802D01*
X3198Y806D01*
X3206Y811D01*
X3212Y819D01*
X3215Y827D01*
X3215Y829D01*
X3220D01*
X3221Y826D01*
X3225Y817D01*
X3231Y808D01*
X3239Y802D01*
X3249Y798D01*
X3254Y797D01*
Y837D01*
Y876D01*
D02*
G37*
G36*
X3395Y546D02*
X3332D01*
Y482D01*
X3340Y483D01*
X3353Y487D01*
X3365Y493D01*
X3376Y502D01*
X3384Y513D01*
X3391Y525D01*
X3395Y538D01*
X3395Y546D01*
D02*
G37*
G36*
X2114Y194D02*
X2105Y193D01*
X2096Y189D01*
X2089Y184D01*
X2083Y176D01*
X2079Y168D01*
X2078Y158D01*
X2079Y149D01*
X2083Y141D01*
X2089Y133D01*
X2096Y127D01*
X2105Y124D01*
X2114Y123D01*
X2123Y124D01*
X2132Y127D01*
X2139Y133D01*
X2145Y141D01*
X2149Y149D01*
X2150Y158D01*
X2149Y168D01*
X2145Y176D01*
X2139Y184D01*
X2132Y189D01*
X2123Y193D01*
X2114Y194D01*
D02*
G37*
G36*
X1442Y583D02*
X1435Y581D01*
X1429Y577D01*
X1425Y571D01*
X1423Y564D01*
X1425Y557D01*
X1429Y551D01*
X1435Y547D01*
X1442Y545D01*
X1444Y546D01*
X1671Y319D01*
X1671Y319D01*
X1675Y316D01*
X1679Y316D01*
X1679Y316D01*
X1797D01*
X1903Y209D01*
Y192D01*
X1896Y189D01*
X1889Y184D01*
X1883Y176D01*
X1879Y168D01*
X1878Y158D01*
X1879Y149D01*
X1883Y141D01*
X1889Y133D01*
X1896Y127D01*
X1905Y124D01*
X1914Y123D01*
X1923Y124D01*
X1932Y127D01*
X1939Y133D01*
X1945Y141D01*
X1949Y149D01*
X1950Y158D01*
X1949Y168D01*
X1945Y176D01*
X1939Y184D01*
X1932Y189D01*
X1925Y192D01*
Y214D01*
X1925Y214D01*
X1924Y218D01*
X1922Y222D01*
X1922Y222D01*
X1809Y335D01*
X1805Y337D01*
X1801Y338D01*
X1801Y338D01*
X1684D01*
X1460Y561D01*
X1461Y564D01*
X1459Y571D01*
X1455Y577D01*
X1449Y581D01*
X1442Y583D01*
D02*
G37*
G36*
X1850Y194D02*
X1778D01*
Y123D01*
X1850D01*
Y194D01*
D02*
G37*
G36*
X2314Y194D02*
X2305Y193D01*
X2296Y189D01*
X2289Y184D01*
X2283Y176D01*
X2279Y168D01*
X2278Y158D01*
X2279Y149D01*
X2283Y141D01*
X2289Y133D01*
X2296Y127D01*
X2305Y124D01*
X2314Y123D01*
X2323Y124D01*
X2332Y127D01*
X2339Y133D01*
X2345Y141D01*
X2349Y149D01*
X2350Y158D01*
X2349Y168D01*
X2345Y176D01*
X2339Y184D01*
X2332Y189D01*
X2323Y193D01*
X2314Y194D01*
D02*
G37*
G36*
X2808Y262D02*
X2704D01*
X2651Y210D01*
Y105D01*
X2704Y53D01*
X2808D01*
X2860Y105D01*
Y210D01*
X2808Y262D01*
D02*
G37*
G36*
X840D02*
X735D01*
X683Y210D01*
Y105D01*
X735Y53D01*
X840D01*
X892Y105D01*
Y210D01*
X840Y262D01*
D02*
G37*
G36*
X2253Y153D02*
X2219D01*
Y119D01*
X2224Y120D01*
X2234Y124D01*
X2242Y130D01*
X2249Y139D01*
X2252Y148D01*
X2253Y153D01*
D02*
G37*
G36*
X2209D02*
X2175D01*
X2175Y148D01*
X2179Y139D01*
X2186Y130D01*
X2194Y124D01*
X2204Y120D01*
X2209Y119D01*
Y153D01*
D02*
G37*
G36*
X1339Y491D02*
X1305D01*
Y457D01*
X1310Y458D01*
X1320Y462D01*
X1328Y468D01*
X1334Y476D01*
X1338Y486D01*
X1339Y491D01*
D02*
G37*
G36*
X1295D02*
X1261D01*
X1261Y486D01*
X1265Y476D01*
X1272Y468D01*
X1280Y462D01*
X1289Y458D01*
X1295Y457D01*
Y491D01*
D02*
G37*
G36*
X3322Y546D02*
X3258D01*
X3259Y538D01*
X3262Y525D01*
X3269Y513D01*
X3278Y502D01*
X3288Y493D01*
X3300Y487D01*
X3313Y483D01*
X3322Y482D01*
Y546D01*
D02*
G37*
G36*
X1604Y655D02*
X1597Y653D01*
X1591Y649D01*
X1587Y643D01*
X1585Y636D01*
X1587Y629D01*
X1591Y622D01*
X1597Y618D01*
X1604Y617D01*
X1607Y617D01*
X1753Y471D01*
X1757Y469D01*
X1761Y468D01*
X1761Y468D01*
X2390D01*
X2391Y466D01*
X2397Y462D01*
X2405Y460D01*
X2412Y462D01*
X2418Y466D01*
X2422Y472D01*
X2423Y479D01*
X2422Y487D01*
X2418Y493D01*
X2412Y497D01*
X2405Y498D01*
X2397Y497D01*
X2391Y493D01*
X2390Y491D01*
X1765D01*
X1623Y633D01*
X1623Y636D01*
X1622Y643D01*
X1618Y649D01*
X1612Y653D01*
X1604Y655D01*
D02*
G37*
G36*
X1300Y232D02*
X1291Y231D01*
X1282Y227D01*
X1274Y221D01*
X1269Y214D01*
X1265Y205D01*
X1264Y196D01*
X1265Y187D01*
X1269Y178D01*
X1274Y171D01*
X1282Y165D01*
X1291Y161D01*
X1300Y160D01*
X1309Y161D01*
X1318Y165D01*
X1325Y171D01*
X1331Y178D01*
X1334Y187D01*
X1336Y196D01*
X1334Y205D01*
X1331Y214D01*
X1325Y221D01*
X1318Y227D01*
X1309Y231D01*
X1300Y232D01*
D02*
G37*
G36*
X1200D02*
X1191Y231D01*
X1182Y227D01*
X1174Y221D01*
X1169Y214D01*
X1165Y205D01*
X1164Y196D01*
X1165Y187D01*
X1169Y178D01*
X1174Y171D01*
X1182Y165D01*
X1191Y161D01*
X1200Y160D01*
X1209Y161D01*
X1218Y165D01*
X1225Y171D01*
X1231Y178D01*
X1234Y187D01*
X1236Y196D01*
X1234Y205D01*
X1231Y214D01*
X1225Y221D01*
X1218Y227D01*
X1209Y231D01*
X1200Y232D01*
D02*
G37*
G36*
X2219Y198D02*
Y163D01*
X2253D01*
X2252Y169D01*
X2249Y178D01*
X2242Y187D01*
X2234Y193D01*
X2224Y197D01*
X2219Y198D01*
D02*
G37*
G36*
X2209D02*
X2204Y197D01*
X2194Y193D01*
X2186Y187D01*
X2179Y178D01*
X2175Y169D01*
X2175Y163D01*
X2209D01*
Y198D01*
D02*
G37*
G36*
X2117Y1975D02*
X2109Y1974D01*
X2103Y1969D01*
X2099Y1963D01*
X2098Y1956D01*
X2098Y1954D01*
X1593Y1449D01*
X1591Y1445D01*
X1590Y1441D01*
X1590Y1441D01*
Y1413D01*
X1586Y1410D01*
X1585Y1411D01*
X1577Y1412D01*
X1570Y1411D01*
X1564Y1407D01*
X1563Y1405D01*
X989D01*
Y1449D01*
X988Y1454D01*
X985Y1457D01*
X982Y1460D01*
X977Y1461D01*
X957D01*
X953Y1460D01*
X951Y1458D01*
X947Y1458D01*
X944Y1458D01*
X942Y1460D01*
X937Y1461D01*
X917D01*
X913Y1460D01*
X911Y1458D01*
X907Y1458D01*
X904Y1458D01*
X902Y1460D01*
X897Y1461D01*
X877D01*
X873Y1460D01*
X870Y1457D01*
X867Y1454D01*
X866Y1449D01*
Y1405D01*
X847D01*
X847Y1405D01*
X843Y1404D01*
X840Y1401D01*
X840Y1401D01*
X836Y1398D01*
X804Y1429D01*
X801Y1432D01*
X796Y1433D01*
X792Y1432D01*
X788Y1429D01*
X788Y1429D01*
X774Y1415D01*
X772Y1411D01*
X771Y1407D01*
X772Y1403D01*
X774Y1399D01*
X803Y1370D01*
Y1365D01*
X744Y1306D01*
X742Y1307D01*
X735Y1305D01*
X728Y1301D01*
X724Y1295D01*
X723Y1288D01*
X724Y1281D01*
X728Y1274D01*
X735Y1270D01*
X742Y1269D01*
X749Y1270D01*
X755Y1274D01*
X759Y1281D01*
X761Y1288D01*
X760Y1290D01*
X823Y1353D01*
X823Y1353D01*
X830Y1360D01*
X832Y1363D01*
X833Y1366D01*
X836Y1371D01*
X840Y1371D01*
X844Y1374D01*
X852Y1382D01*
X877D01*
X881Y1383D01*
X882Y1383D01*
X886Y1380D01*
Y1338D01*
X887Y1333D01*
X890Y1330D01*
X893Y1327D01*
X897Y1326D01*
X917D01*
X922Y1327D01*
X924Y1329D01*
X927Y1329D01*
X931Y1329D01*
X933Y1327D01*
X937Y1326D01*
X957D01*
X962Y1327D01*
X965Y1330D01*
X968Y1333D01*
X969Y1338D01*
Y1380D01*
X973Y1383D01*
X974Y1383D01*
X977Y1382D01*
X1563D01*
X1564Y1380D01*
X1570Y1376D01*
X1577Y1375D01*
X1585Y1376D01*
X1586Y1377D01*
X1590Y1374D01*
Y1222D01*
X1588Y1220D01*
X1584Y1214D01*
X1583Y1207D01*
X1583Y1206D01*
X1578Y1204D01*
X1507Y1275D01*
X1504Y1277D01*
X1499Y1278D01*
X1499Y1278D01*
X849D01*
X849Y1278D01*
X844Y1277D01*
X841Y1275D01*
X841Y1275D01*
X829Y1263D01*
X708D01*
X697Y1274D01*
Y1360D01*
X699Y1361D01*
X703Y1367D01*
X704Y1374D01*
X703Y1382D01*
X699Y1388D01*
X693Y1392D01*
X685Y1393D01*
X678Y1392D01*
X672Y1388D01*
X668Y1382D01*
X667Y1374D01*
X668Y1367D01*
X670Y1365D01*
Y783D01*
X668Y782D01*
X664Y776D01*
X662Y768D01*
X664Y761D01*
X668Y755D01*
X674Y751D01*
X681Y750D01*
X688Y751D01*
X694Y755D01*
X699Y761D01*
X700Y768D01*
X699Y776D01*
X694Y782D01*
X692Y783D01*
Y1239D01*
X697Y1242D01*
X699Y1241D01*
X703Y1240D01*
X833D01*
X833Y1240D01*
X838Y1241D01*
X841Y1244D01*
X853Y1256D01*
X1065D01*
X1067Y1251D01*
X1065Y1250D01*
X1061Y1243D01*
X1060Y1236D01*
X1061Y1229D01*
X1065Y1223D01*
X1072Y1219D01*
X1079Y1217D01*
X1081Y1218D01*
X1144Y1155D01*
X1142Y1150D01*
X1058D01*
Y1186D01*
X1057Y1190D01*
X1054Y1194D01*
X1051Y1196D01*
X1046Y1197D01*
X1026D01*
X1022Y1196D01*
X1020Y1195D01*
X1016Y1194D01*
X1013Y1195D01*
X1011Y1196D01*
X1006Y1197D01*
X986D01*
X982Y1196D01*
X978Y1194D01*
X976Y1190D01*
X975Y1186D01*
Y1150D01*
X869D01*
X868Y1152D01*
X862Y1156D01*
X854Y1157D01*
X847Y1156D01*
X841Y1152D01*
X837Y1146D01*
X836Y1138D01*
X837Y1131D01*
X841Y1125D01*
X847Y1121D01*
X854Y1120D01*
X862Y1121D01*
X868Y1125D01*
X869Y1127D01*
X986D01*
X991Y1128D01*
X993Y1130D01*
X996Y1130D01*
X1000Y1130D01*
X1002Y1128D01*
X1006Y1127D01*
X1026D01*
X1031Y1128D01*
X1033Y1130D01*
X1036Y1130D01*
X1040Y1130D01*
X1042Y1128D01*
X1046Y1127D01*
X1773D01*
X1773Y1127D01*
X1778Y1128D01*
X1781Y1131D01*
X1794Y1143D01*
X1821D01*
X1821Y1143D01*
X1825Y1144D01*
X1829Y1146D01*
X1845Y1163D01*
X1847Y1166D01*
X1848Y1170D01*
X1848Y1170D01*
Y1215D01*
X1864Y1230D01*
X1869Y1229D01*
Y1165D01*
X1853Y1149D01*
X1853Y1149D01*
X1850Y1147D01*
X1848Y1143D01*
X1847Y1139D01*
X1844Y1136D01*
X1840Y1135D01*
X1836Y1133D01*
X1836Y1133D01*
X1822Y1118D01*
X1822Y1118D01*
X1818Y1115D01*
X1771D01*
X1767Y1114D01*
X1765Y1112D01*
X1761Y1112D01*
X1758Y1112D01*
X1756Y1114D01*
X1751Y1115D01*
X747D01*
X746Y1117D01*
X740Y1121D01*
X732Y1122D01*
X725Y1121D01*
X719Y1117D01*
X715Y1111D01*
X714Y1103D01*
X715Y1096D01*
X719Y1090D01*
X725Y1086D01*
X732Y1085D01*
X740Y1086D01*
X746Y1090D01*
X747Y1092D01*
X969D01*
X973Y1087D01*
Y1079D01*
X795D01*
X794Y1081D01*
X788Y1085D01*
X781Y1086D01*
X773Y1085D01*
X767Y1081D01*
X763Y1075D01*
X762Y1067D01*
X763Y1060D01*
X767Y1054D01*
X773Y1050D01*
X781Y1049D01*
X788Y1050D01*
X794Y1054D01*
X795Y1056D01*
X984D01*
X988Y1057D01*
X989Y1057D01*
X993Y1054D01*
Y1019D01*
X994Y1015D01*
X996Y1011D01*
X1000Y1009D01*
X1004Y1008D01*
X1024D01*
X1029Y1009D01*
X1031Y1011D01*
X1034Y1011D01*
X1038Y1011D01*
X1040Y1009D01*
X1044Y1008D01*
X1064D01*
X1069Y1009D01*
X1071Y1011D01*
X1074Y1011D01*
X1078Y1011D01*
X1080Y1009D01*
X1084Y1008D01*
X1104D01*
X1109Y1009D01*
X1112Y1011D01*
X1115Y1015D01*
X1116Y1019D01*
Y1056D01*
X1877D01*
X1879Y1051D01*
X1867Y1039D01*
X1864Y1036D01*
X1864Y1035D01*
X1859Y1034D01*
X1858Y1035D01*
X1854Y1037D01*
X1850Y1038D01*
X1846Y1037D01*
X1842Y1035D01*
X1842Y1035D01*
X1828Y1021D01*
X1826Y1017D01*
X1825Y1013D01*
X1826Y1008D01*
X1828Y1005D01*
X1854Y979D01*
Y974D01*
X1654Y774D01*
X1650Y777D01*
X1652Y784D01*
X1650Y792D01*
X1646Y798D01*
X1640Y802D01*
X1633Y803D01*
X1630Y803D01*
X1485Y948D01*
X1481Y951D01*
X1477Y952D01*
X1477Y952D01*
X1139D01*
X1135Y951D01*
X1133Y949D01*
X1129Y949D01*
X1126Y949D01*
X1124Y951D01*
X1119Y952D01*
X1089D01*
X1089Y952D01*
X1085Y951D01*
X1082Y948D01*
X1082Y948D01*
X1073Y940D01*
X1073Y940D01*
X1067Y934D01*
X1033Y968D01*
X1029Y970D01*
X1025Y971D01*
X1021Y970D01*
X1017Y968D01*
X1017Y968D01*
X1003Y954D01*
X1000Y950D01*
X1000Y946D01*
X997Y943D01*
X992Y942D01*
X989Y940D01*
X989Y940D01*
X975Y925D01*
X972Y922D01*
X971Y917D01*
X972Y913D01*
X975Y910D01*
X1006Y878D01*
Y873D01*
X926Y793D01*
X922Y795D01*
Y943D01*
X921Y948D01*
X918Y951D01*
X918Y951D01*
X912Y958D01*
X912Y960D01*
X911Y968D01*
X907Y974D01*
X901Y978D01*
X893Y979D01*
X886Y978D01*
X880Y974D01*
X876Y968D01*
X875Y960D01*
X876Y953D01*
X880Y947D01*
X886Y943D01*
X893Y942D01*
X896Y942D01*
X899Y939D01*
Y776D01*
X897Y775D01*
X893Y769D01*
X892Y761D01*
X893Y754D01*
X897Y748D01*
X903Y744D01*
X910Y743D01*
X918Y744D01*
X924Y748D01*
X928Y754D01*
X929Y761D01*
X929Y764D01*
X1025Y860D01*
X1025Y860D01*
X1032Y868D01*
X1032Y868D01*
X1035Y871D01*
X1035Y871D01*
X1040Y872D01*
X1073Y840D01*
X1076Y837D01*
X1081Y836D01*
X1085Y837D01*
X1089Y840D01*
X1089Y840D01*
X1103Y854D01*
X1105Y857D01*
X1106Y862D01*
X1105Y866D01*
X1103Y870D01*
X1070Y902D01*
X1071Y907D01*
X1072Y908D01*
X1075Y910D01*
X1089Y924D01*
X1089Y924D01*
X1094Y929D01*
X1108D01*
Y881D01*
X1109Y877D01*
X1112Y873D01*
X1115Y871D01*
X1119Y870D01*
X1139D01*
X1144Y871D01*
X1147Y873D01*
X1150Y877D01*
X1151Y881D01*
Y929D01*
X1472D01*
X1615Y787D01*
X1614Y784D01*
X1616Y777D01*
X1616Y776D01*
X1614Y772D01*
X1602D01*
X1599Y775D01*
X1599Y777D01*
X1598Y785D01*
X1594Y791D01*
X1588Y795D01*
X1580Y796D01*
X1573Y795D01*
X1567Y791D01*
X1563Y785D01*
X1562Y777D01*
X1563Y770D01*
X1567Y764D01*
X1573Y760D01*
X1580Y759D01*
X1583Y759D01*
X1590Y753D01*
X1590Y753D01*
X1593Y750D01*
X1597Y749D01*
X1656D01*
X1656Y749D01*
X1661Y750D01*
X1664Y753D01*
X1873Y961D01*
X1873Y961D01*
X1880Y968D01*
X1883Y972D01*
X1883Y975D01*
X1887Y979D01*
X1891Y980D01*
X1894Y983D01*
X1909Y997D01*
X1911Y1000D01*
X1912Y1005D01*
X1915Y1008D01*
X1919Y1008D01*
X1923Y1011D01*
X1937Y1025D01*
X1937Y1025D01*
X1939Y1029D01*
X1940Y1033D01*
X1943Y1036D01*
X1947Y1037D01*
X1951Y1039D01*
X1965Y1053D01*
X1965Y1053D01*
X1968Y1057D01*
X1968Y1061D01*
X1971Y1064D01*
X1976Y1065D01*
X1979Y1067D01*
X1993Y1082D01*
X1996Y1085D01*
X1997Y1090D01*
X2000Y1092D01*
X2004Y1093D01*
X2008Y1096D01*
X2111Y1200D01*
X2117Y1198D01*
X2117Y1197D01*
X1618Y698D01*
X1390D01*
X1386Y697D01*
X1382Y694D01*
X1382Y694D01*
X1219Y532D01*
X1170D01*
Y643D01*
X1389Y862D01*
X1391Y862D01*
X1399Y863D01*
X1405Y867D01*
X1409Y873D01*
X1410Y880D01*
X1409Y888D01*
X1405Y894D01*
X1399Y898D01*
X1391Y899D01*
X1384Y898D01*
X1378Y894D01*
X1374Y888D01*
X1373Y880D01*
X1373Y878D01*
X1151Y655D01*
X1148Y652D01*
X1147Y647D01*
X1147Y647D01*
Y367D01*
X1147Y367D01*
X1148Y363D01*
X1151Y360D01*
X1174Y337D01*
X1174Y337D01*
X1177Y334D01*
X1181Y333D01*
X1182Y333D01*
X1182Y330D01*
X1181Y326D01*
X1174Y321D01*
X1169Y314D01*
X1165Y305D01*
X1164Y296D01*
X1165Y287D01*
X1169Y278D01*
X1174Y271D01*
X1182Y265D01*
X1191Y261D01*
X1200Y260D01*
X1209Y261D01*
X1218Y265D01*
X1225Y271D01*
X1231Y278D01*
X1234Y287D01*
X1236Y296D01*
X1234Y305D01*
X1231Y314D01*
X1225Y321D01*
X1218Y327D01*
X1215Y328D01*
X1216Y333D01*
X1284D01*
X1285Y328D01*
X1282Y327D01*
X1274Y321D01*
X1269Y314D01*
X1265Y305D01*
X1264Y296D01*
X1265Y287D01*
X1269Y278D01*
X1274Y271D01*
X1282Y265D01*
X1291Y261D01*
X1300Y260D01*
X1309Y261D01*
X1318Y265D01*
X1325Y271D01*
X1331Y278D01*
X1334Y287D01*
X1336Y296D01*
X1334Y305D01*
X1331Y314D01*
X1325Y321D01*
X1318Y327D01*
X1315Y328D01*
X1316Y333D01*
X1525D01*
Y274D01*
X1525Y274D01*
X1526Y269D01*
X1529Y266D01*
X1732Y62D01*
X1732Y62D01*
X1736Y60D01*
X1740Y59D01*
X1740Y59D01*
X1925D01*
X1925Y59D01*
X1930Y60D01*
X1933Y62D01*
X1998Y127D01*
X2005Y124D01*
X2014Y123D01*
X2023Y124D01*
X2032Y127D01*
X2039Y133D01*
X2045Y141D01*
X2049Y149D01*
X2050Y158D01*
X2049Y168D01*
X2045Y176D01*
X2039Y184D01*
X2032Y189D01*
X2023Y193D01*
X2014Y194D01*
X2005Y193D01*
X1996Y189D01*
X1989Y184D01*
X1983Y176D01*
X1979Y168D01*
X1978Y158D01*
X1979Y149D01*
X1982Y142D01*
X1921Y81D01*
X1745D01*
X1548Y278D01*
Y344D01*
X1547Y349D01*
X1544Y352D01*
X1541Y355D01*
X1536Y356D01*
X1304D01*
X1303Y361D01*
X1309Y361D01*
X1318Y365D01*
X1325Y371D01*
X1331Y378D01*
X1334Y387D01*
X1336Y396D01*
X1334Y405D01*
X1331Y414D01*
X1325Y421D01*
X1318Y427D01*
X1309Y431D01*
X1300Y432D01*
X1291Y431D01*
X1282Y427D01*
X1274Y421D01*
X1269Y414D01*
X1265Y405D01*
X1264Y396D01*
X1265Y387D01*
X1269Y378D01*
X1274Y371D01*
X1282Y365D01*
X1291Y361D01*
X1296Y361D01*
X1296Y356D01*
X1204D01*
X1203Y361D01*
X1209Y361D01*
X1218Y365D01*
X1225Y371D01*
X1231Y378D01*
X1234Y387D01*
X1236Y396D01*
X1234Y405D01*
X1231Y414D01*
X1225Y421D01*
X1218Y427D01*
X1209Y431D01*
X1200Y432D01*
X1191Y431D01*
X1182Y427D01*
X1175Y422D01*
X1173Y422D01*
X1170Y423D01*
Y461D01*
X1235D01*
Y516D01*
X1395Y675D01*
X1622D01*
X1622Y675D01*
X1627Y676D01*
X1630Y679D01*
X2136Y1184D01*
X2138Y1184D01*
X2146Y1185D01*
X2152Y1189D01*
X2156Y1195D01*
X2156Y1198D01*
X2162Y1200D01*
X2305Y1059D01*
X2306Y1057D01*
X2308Y1056D01*
X2308Y1056D01*
X2308Y1056D01*
X2310Y1056D01*
X2312Y1055D01*
X2568D01*
X2569Y1053D01*
X2575Y1049D01*
X2582Y1048D01*
X2590Y1049D01*
X2596Y1053D01*
X2600Y1059D01*
X2601Y1066D01*
X2600Y1074D01*
X2596Y1080D01*
X2590Y1084D01*
X2582Y1085D01*
X2575Y1084D01*
X2569Y1080D01*
X2568Y1078D01*
X2317D01*
X2276Y1119D01*
X2278Y1123D01*
X2280Y1123D01*
X2288Y1124D01*
X2294Y1128D01*
X2298Y1135D01*
X2299Y1142D01*
X2299Y1144D01*
X2779Y1625D01*
X2786Y1622D01*
X2795Y1621D01*
X2805Y1622D01*
X2813Y1626D01*
X2821Y1631D01*
X2826Y1639D01*
X2830Y1647D01*
X2831Y1657D01*
X2830Y1666D01*
X2826Y1675D01*
X2821Y1682D01*
X2813Y1688D01*
X2805Y1691D01*
X2795Y1693D01*
X2786Y1691D01*
X2777Y1688D01*
X2770Y1682D01*
X2764Y1675D01*
X2761Y1666D01*
X2759Y1657D01*
X2761Y1647D01*
X2763Y1641D01*
X2283Y1160D01*
X2280Y1161D01*
X2273Y1159D01*
X2267Y1155D01*
X2263Y1149D01*
X2261Y1142D01*
X2262Y1139D01*
X2257Y1137D01*
X2144Y1248D01*
X2143Y1250D01*
X2141Y1251D01*
X2141Y1251D01*
X2141Y1251D01*
X2139Y1251D01*
X2136Y1252D01*
X2136Y1252D01*
X2136Y1252D01*
X2134Y1251D01*
X2132Y1251D01*
X2132Y1251D01*
X2132Y1251D01*
X2130Y1250D01*
X2129Y1248D01*
X2002Y1122D01*
X1997D01*
X1971Y1148D01*
X1968Y1150D01*
X1963Y1151D01*
X1959Y1150D01*
X1955Y1148D01*
X1955Y1148D01*
X1941Y1134D01*
X1939Y1130D01*
X1938Y1126D01*
X1939Y1122D01*
X1941Y1118D01*
X1942Y1117D01*
X1941Y1113D01*
X1940Y1112D01*
X1937Y1110D01*
X1937Y1110D01*
X1925Y1097D01*
X1920Y1099D01*
Y1218D01*
X1922Y1219D01*
X1926Y1225D01*
X1927Y1232D01*
X1926Y1240D01*
X1923Y1244D01*
X1925Y1249D01*
X1978D01*
X1980Y1247D01*
X1986Y1243D01*
X1993Y1242D01*
X2000Y1243D01*
X2006Y1247D01*
X2010Y1253D01*
X2012Y1261D01*
X2010Y1268D01*
X2006Y1274D01*
X2000Y1278D01*
X1993Y1279D01*
X1986Y1278D01*
X1980Y1274D01*
X1978Y1272D01*
X1902D01*
X1898Y1271D01*
X1894Y1269D01*
X1894Y1269D01*
X1893Y1268D01*
X1889Y1269D01*
Y1307D01*
X1947Y1365D01*
X1947Y1365D01*
X1949Y1369D01*
X1950Y1373D01*
Y1396D01*
X1952Y1397D01*
X1956Y1403D01*
X1958Y1410D01*
X1956Y1418D01*
X1952Y1424D01*
X1946Y1428D01*
X1939Y1429D01*
X1932Y1428D01*
X1926Y1424D01*
X1922Y1418D01*
X1920Y1410D01*
X1922Y1403D01*
X1926Y1397D01*
X1928Y1396D01*
Y1378D01*
X1870Y1319D01*
X1867Y1316D01*
X1866Y1311D01*
X1866Y1311D01*
Y1265D01*
X1842Y1240D01*
X1840Y1241D01*
X1837Y1242D01*
X1836Y1249D01*
X1832Y1255D01*
X1826Y1259D01*
X1818Y1260D01*
X1811Y1259D01*
X1805Y1255D01*
X1801Y1249D01*
X1800Y1242D01*
X1800Y1239D01*
X1752Y1191D01*
X1619D01*
X1616Y1196D01*
X1619Y1200D01*
X1620Y1207D01*
X1619Y1214D01*
X1615Y1220D01*
X1613Y1222D01*
Y1436D01*
X1993Y1817D01*
X1998Y1815D01*
X1999Y1810D01*
X2003Y1804D01*
X2006Y1802D01*
Y1408D01*
X1984Y1386D01*
X1981Y1387D01*
X1974Y1385D01*
X1968Y1381D01*
X1964Y1375D01*
X1963Y1368D01*
X1964Y1361D01*
X1968Y1355D01*
X1974Y1351D01*
X1981Y1349D01*
X1989Y1351D01*
X1995Y1355D01*
X1999Y1361D01*
X2000Y1368D01*
X2000Y1371D01*
X2025Y1395D01*
X2025Y1395D01*
X2027Y1399D01*
X2028Y1403D01*
Y1802D01*
X2030Y1804D01*
X2034Y1810D01*
X2036Y1817D01*
X2034Y1824D01*
X2030Y1830D01*
X2024Y1834D01*
X2019Y1835D01*
X2017Y1841D01*
X2114Y1938D01*
X2117Y1937D01*
X2124Y1939D01*
X2130Y1943D01*
X2134Y1949D01*
X2135Y1956D01*
X2134Y1963D01*
X2130Y1969D01*
X2124Y1974D01*
X2117Y1975D01*
D02*
G37*
G36*
X3170Y1740D02*
X3158Y1738D01*
X3147Y1734D01*
X3138Y1726D01*
X3131Y1717D01*
X3126Y1706D01*
X3125Y1694D01*
X3126Y1682D01*
X3131Y1671D01*
X3138Y1662D01*
X3147Y1654D01*
X3158Y1650D01*
X3170Y1648D01*
X3182Y1650D01*
X3193Y1654D01*
X3203Y1662D01*
X3210Y1671D01*
X3214Y1682D01*
X3216Y1694D01*
X3214Y1706D01*
X3210Y1717D01*
X3203Y1726D01*
X3193Y1734D01*
X3182Y1738D01*
X3170Y1740D01*
D02*
G37*
G36*
X1956Y2024D02*
X1922D01*
Y1989D01*
X1927Y1990D01*
X1936Y1994D01*
X1945Y2000D01*
X1951Y2009D01*
X1955Y2018D01*
X1956Y2024D01*
D02*
G37*
G36*
X1912D02*
X1877D01*
X1878Y2018D01*
X1882Y2009D01*
X1888Y2000D01*
X1897Y1994D01*
X1906Y1990D01*
X1912Y1989D01*
Y2024D01*
D02*
G37*
G36*
X2953Y1593D02*
X2943Y1591D01*
X2935Y1588D01*
X2927Y1582D01*
X2922Y1575D01*
X2918Y1566D01*
X2917Y1557D01*
X2918Y1547D01*
X2922Y1539D01*
X2927Y1531D01*
X2935Y1526D01*
X2943Y1522D01*
X2953Y1521D01*
X2962Y1522D01*
X2971Y1526D01*
X2978Y1531D01*
X2984Y1539D01*
X2987Y1547D01*
X2989Y1557D01*
X2987Y1566D01*
X2984Y1575D01*
X2978Y1582D01*
X2971Y1588D01*
X2962Y1591D01*
X2953Y1593D01*
D02*
G37*
G36*
X2795D02*
X2786Y1591D01*
X2777Y1588D01*
X2770Y1582D01*
X2764Y1575D01*
X2761Y1566D01*
X2759Y1557D01*
X2761Y1547D01*
X2764Y1539D01*
X2770Y1531D01*
X2777Y1526D01*
X2786Y1522D01*
X2795Y1521D01*
X2805Y1522D01*
X2813Y1526D01*
X2821Y1531D01*
X2826Y1539D01*
X2830Y1547D01*
X2831Y1557D01*
X2830Y1566D01*
X2826Y1575D01*
X2821Y1582D01*
X2813Y1588D01*
X2805Y1591D01*
X2795Y1593D01*
D02*
G37*
G36*
X1952Y1713D02*
X1945Y1711D01*
X1938Y1707D01*
X1934Y1701D01*
X1933Y1694D01*
X1933Y1691D01*
X1821Y1579D01*
X1819Y1580D01*
X1812Y1578D01*
X1806Y1574D01*
X1801Y1568D01*
X1800Y1561D01*
X1801Y1554D01*
X1806Y1548D01*
X1812Y1544D01*
X1819Y1542D01*
X1826Y1544D01*
X1832Y1548D01*
X1836Y1554D01*
X1838Y1561D01*
X1837Y1564D01*
X1949Y1676D01*
X1952Y1675D01*
X1959Y1676D01*
X1962Y1679D01*
X1966Y1675D01*
X1963Y1671D01*
X1961Y1663D01*
X1962Y1661D01*
X1939Y1638D01*
X1936Y1634D01*
X1936Y1630D01*
X1936Y1630D01*
Y1606D01*
X1934Y1605D01*
X1929Y1599D01*
X1928Y1592D01*
X1929Y1584D01*
X1934Y1578D01*
X1940Y1574D01*
X1947Y1573D01*
X1954Y1574D01*
X1960Y1578D01*
X1964Y1584D01*
X1966Y1592D01*
X1964Y1599D01*
X1960Y1605D01*
X1958Y1606D01*
Y1625D01*
X1978Y1645D01*
X1980Y1645D01*
X1988Y1646D01*
X1994Y1650D01*
X1998Y1656D01*
X1999Y1663D01*
X1998Y1671D01*
X1994Y1677D01*
X1988Y1681D01*
X1980Y1682D01*
X1973Y1681D01*
X1970Y1679D01*
X1966Y1682D01*
X1969Y1687D01*
X1971Y1694D01*
X1969Y1701D01*
X1965Y1707D01*
X1959Y1711D01*
X1952Y1713D01*
D02*
G37*
G36*
X3170Y1641D02*
X3158Y1640D01*
X3147Y1635D01*
X3138Y1628D01*
X3131Y1618D01*
X3126Y1607D01*
X3125Y1595D01*
X3126Y1584D01*
X3131Y1573D01*
X3138Y1563D01*
X3147Y1556D01*
X3158Y1551D01*
X3170Y1550D01*
X3182Y1551D01*
X3193Y1556D01*
X3203Y1563D01*
X3210Y1573D01*
X3214Y1584D01*
X3216Y1595D01*
X3214Y1607D01*
X3210Y1618D01*
X3203Y1628D01*
X3193Y1635D01*
X3182Y1640D01*
X3170Y1641D01*
D02*
G37*
G36*
X1817Y2064D02*
X1807Y2063D01*
X1799Y2060D01*
X1791Y2054D01*
X1786Y2046D01*
X1782Y2038D01*
X1781Y2029D01*
X1782Y2019D01*
X1786Y2011D01*
X1791Y2003D01*
X1799Y1998D01*
X1807Y1994D01*
X1817Y1993D01*
X1826Y1994D01*
X1834Y1998D01*
X1842Y2003D01*
X1848Y2011D01*
X1851Y2019D01*
X1852Y2029D01*
X1851Y2038D01*
X1848Y2046D01*
X1842Y2054D01*
X1834Y2060D01*
X1826Y2063D01*
X1817Y2064D01*
D02*
G37*
G36*
X2808Y2230D02*
X2704D01*
X2651Y2178D01*
Y2074D01*
X2704Y2022D01*
X2808D01*
X2860Y2074D01*
Y2178D01*
X2808Y2230D01*
D02*
G37*
G36*
X840D02*
X735D01*
X683Y2178D01*
Y2074D01*
X735Y2022D01*
X840D01*
X892Y2074D01*
Y2178D01*
X840Y2230D01*
D02*
G37*
G36*
X1922Y2068D02*
Y2034D01*
X1956D01*
X1955Y2039D01*
X1951Y2048D01*
X1945Y2057D01*
X1936Y2063D01*
X1927Y2067D01*
X1922Y2068D01*
D02*
G37*
G36*
X1912D02*
X1906Y2067D01*
X1897Y2063D01*
X1888Y2057D01*
X1882Y2048D01*
X1878Y2039D01*
X1877Y2034D01*
X1912D01*
Y2068D01*
D02*
G37*
G36*
X2117Y2064D02*
X2107Y2063D01*
X2099Y2060D01*
X2091Y2054D01*
X2086Y2046D01*
X2082Y2038D01*
X2081Y2029D01*
X2082Y2019D01*
X2086Y2011D01*
X2091Y2003D01*
X2099Y1998D01*
X2107Y1994D01*
X2117Y1993D01*
X2126Y1994D01*
X2134Y1998D01*
X2142Y2003D01*
X2148Y2011D01*
X2151Y2019D01*
X2152Y2029D01*
X2151Y2038D01*
X2148Y2046D01*
X2142Y2054D01*
X2134Y2060D01*
X2126Y2063D01*
X2117Y2064D01*
D02*
G37*
G36*
X2017D02*
X2007Y2063D01*
X1999Y2060D01*
X1991Y2054D01*
X1986Y2046D01*
X1982Y2038D01*
X1981Y2029D01*
X1982Y2019D01*
X1986Y2011D01*
X1991Y2003D01*
X1999Y1998D01*
X2007Y1994D01*
X2017Y1993D01*
X2026Y1994D01*
X2034Y1998D01*
X2042Y2003D01*
X2048Y2011D01*
X2051Y2019D01*
X2052Y2029D01*
X2051Y2038D01*
X2048Y2046D01*
X2042Y2054D01*
X2034Y2060D01*
X2026Y2063D01*
X2017Y2064D01*
D02*
G37*
G36*
X1752Y2064D02*
X1681D01*
Y1993D01*
X1752D01*
Y2064D01*
D02*
G37*
G36*
X2217Y2064D02*
X2207Y2063D01*
X2199Y2060D01*
X2191Y2054D01*
X2186Y2046D01*
X2182Y2038D01*
X2181Y2029D01*
X2182Y2019D01*
X2186Y2011D01*
X2191Y2003D01*
X2199Y1998D01*
X2207Y1994D01*
X2217Y1993D01*
X2226Y1994D01*
X2234Y1998D01*
X2242Y2003D01*
X2248Y2011D01*
X2251Y2019D01*
X2252Y2029D01*
X2251Y2038D01*
X2248Y2046D01*
X2242Y2054D01*
X2234Y2060D01*
X2226Y2063D01*
X2217Y2064D01*
D02*
G37*
G36*
X3170Y1346D02*
X3158Y1344D01*
X3147Y1340D01*
X3138Y1333D01*
X3131Y1323D01*
X3126Y1312D01*
X3125Y1300D01*
X3126Y1288D01*
X3131Y1277D01*
X3138Y1268D01*
X3147Y1261D01*
X3158Y1256D01*
X3170Y1254D01*
X3182Y1256D01*
X3193Y1261D01*
X3203Y1268D01*
X3210Y1277D01*
X3214Y1288D01*
X3216Y1300D01*
X3214Y1312D01*
X3210Y1323D01*
X3203Y1333D01*
X3193Y1340D01*
X3182Y1344D01*
X3170Y1346D01*
D02*
G37*
G36*
Y1444D02*
X3158Y1443D01*
X3147Y1438D01*
X3138Y1431D01*
X3131Y1422D01*
X3126Y1410D01*
X3125Y1399D01*
X3126Y1387D01*
X3131Y1376D01*
X3138Y1366D01*
X3147Y1359D01*
X3158Y1354D01*
X3170Y1353D01*
X3182Y1354D01*
X3193Y1359D01*
X3203Y1366D01*
X3210Y1376D01*
X3214Y1387D01*
X3216Y1399D01*
X3214Y1410D01*
X3210Y1422D01*
X3203Y1431D01*
X3193Y1438D01*
X3182Y1443D01*
X3170Y1444D01*
D02*
G37*
G36*
X2831Y1492D02*
X2760D01*
Y1421D01*
X2831D01*
Y1492D01*
D02*
G37*
G36*
X2985Y1114D02*
Y1086D01*
X3014D01*
X3013Y1089D01*
X3010Y1098D01*
X3004Y1105D01*
X2997Y1110D01*
X2989Y1113D01*
X2985Y1114D01*
D02*
G37*
G36*
X3014Y1076D02*
X2985D01*
Y1047D01*
X2989Y1048D01*
X2997Y1051D01*
X3004Y1057D01*
X3010Y1064D01*
X3013Y1072D01*
X3014Y1076D01*
D02*
G37*
G36*
X2898Y1111D02*
X2890Y1110D01*
X2883Y1107D01*
X2877Y1102D01*
X2872Y1096D01*
X2869Y1088D01*
X2868Y1081D01*
X2869Y1073D01*
X2872Y1066D01*
X2877Y1060D01*
X2883Y1055D01*
X2890Y1052D01*
X2898Y1051D01*
X2905Y1052D01*
X2913Y1055D01*
X2919Y1060D01*
X2924Y1066D01*
X2926Y1073D01*
X2928Y1081D01*
X2926Y1088D01*
X2924Y1096D01*
X2919Y1102D01*
X2913Y1107D01*
X2905Y1110D01*
X2898Y1111D01*
D02*
G37*
G36*
X2975Y1114D02*
X2972Y1113D01*
X2963Y1110D01*
X2956Y1105D01*
X2951Y1098D01*
X2948Y1089D01*
X2947Y1086D01*
X2975D01*
Y1114D01*
D02*
G37*
G36*
X2988Y1492D02*
X2917D01*
Y1421D01*
X2988D01*
Y1492D01*
D02*
G37*
G36*
X2319Y1609D02*
X2312Y1608D01*
X2306Y1604D01*
X2301Y1598D01*
X2300Y1591D01*
X2301Y1583D01*
X2306Y1577D01*
X2312Y1573D01*
X2319Y1572D01*
X2321Y1572D01*
X2365Y1528D01*
X2365Y1526D01*
X2366Y1518D01*
X2371Y1512D01*
X2377Y1508D01*
X2384Y1507D01*
X2391Y1508D01*
X2397Y1512D01*
X2401Y1518D01*
X2403Y1526D01*
X2401Y1533D01*
X2397Y1539D01*
X2391Y1543D01*
X2384Y1544D01*
X2381Y1544D01*
X2337Y1588D01*
X2338Y1591D01*
X2336Y1598D01*
X2332Y1604D01*
X2326Y1608D01*
X2319Y1609D01*
D02*
G37*
G36*
X3372Y1546D02*
Y1502D01*
X3416D01*
X3415Y1510D01*
X3410Y1522D01*
X3402Y1532D01*
X3392Y1540D01*
X3380Y1545D01*
X3372Y1546D01*
D02*
G37*
G36*
X1239Y1580D02*
X1231Y1579D01*
X1224Y1576D01*
X1218Y1571D01*
X1213Y1565D01*
X1210Y1558D01*
X1209Y1550D01*
X1210Y1542D01*
X1213Y1535D01*
X1218Y1529D01*
X1224Y1524D01*
X1231Y1521D01*
X1239Y1520D01*
X1247Y1521D01*
X1254Y1524D01*
X1260Y1529D01*
X1265Y1535D01*
X1268Y1542D01*
X1269Y1550D01*
X1268Y1558D01*
X1265Y1565D01*
X1260Y1571D01*
X1254Y1576D01*
X1247Y1579D01*
X1239Y1580D01*
D02*
G37*
G36*
X1047D02*
X1039Y1579D01*
X1032Y1576D01*
X1026Y1571D01*
X1021Y1565D01*
X1018Y1558D01*
X1017Y1550D01*
X1018Y1542D01*
X1021Y1535D01*
X1026Y1529D01*
X1032Y1524D01*
X1039Y1521D01*
X1047Y1520D01*
X1054Y1521D01*
X1062Y1524D01*
X1068Y1529D01*
X1073Y1535D01*
X1076Y1542D01*
X1077Y1550D01*
X1076Y1558D01*
X1073Y1565D01*
X1068Y1571D01*
X1062Y1576D01*
X1054Y1579D01*
X1047Y1580D01*
D02*
G37*
G36*
X3416Y1492D02*
X3372D01*
Y1448D01*
X3380Y1449D01*
X3392Y1454D01*
X3402Y1462D01*
X3410Y1472D01*
X3415Y1484D01*
X3416Y1492D01*
D02*
G37*
G36*
X3362Y1546D02*
X3354Y1545D01*
X3342Y1540D01*
X3332Y1532D01*
X3324Y1522D01*
X3319Y1510D01*
X3318Y1502D01*
X3362D01*
Y1546D01*
D02*
G37*
G36*
Y1492D02*
X3318D01*
X3319Y1484D01*
X3324Y1472D01*
X3332Y1462D01*
X3342Y1454D01*
X3354Y1449D01*
X3362Y1448D01*
Y1492D01*
D02*
G37*
%LPD*%
G36*
X1575Y1175D02*
X1573Y1170D01*
X1161D01*
X1097Y1234D01*
X1098Y1236D01*
X1096Y1243D01*
X1092Y1250D01*
X1091Y1251D01*
X1092Y1256D01*
X1139D01*
X1141Y1251D01*
X1136Y1248D01*
X1132Y1241D01*
X1131Y1234D01*
X1132Y1227D01*
X1136Y1221D01*
X1142Y1217D01*
X1150Y1215D01*
X1152Y1216D01*
X1176Y1192D01*
X1176Y1192D01*
X1180Y1189D01*
X1184Y1189D01*
X1184Y1189D01*
X1361D01*
X1363Y1186D01*
X1369Y1182D01*
X1376Y1181D01*
X1383Y1182D01*
X1389Y1186D01*
X1393Y1193D01*
X1395Y1200D01*
X1393Y1207D01*
X1389Y1213D01*
X1383Y1217D01*
X1376Y1219D01*
X1369Y1217D01*
X1363Y1213D01*
X1361Y1211D01*
X1189D01*
X1168Y1232D01*
X1168Y1234D01*
X1167Y1241D01*
X1163Y1248D01*
X1159Y1251D01*
X1160Y1256D01*
X1495D01*
X1575Y1175D01*
D02*
G37*
G36*
X1740Y1083D02*
X1736Y1079D01*
X1104D01*
X1101Y1078D01*
X1100Y1078D01*
X1096Y1081D01*
Y1087D01*
X1100Y1092D01*
X1740D01*
Y1083D01*
D02*
G37*
D19*
X681Y768D02*
Y1374D01*
X2312Y1066D02*
X2582D01*
X2136Y1240D02*
X2312Y1066D01*
X1656Y760D02*
X1865Y969D01*
X2000Y1104D02*
X2136Y1240D01*
X1963Y1140D02*
X2000Y1104D01*
X1949Y1126D02*
X1963Y1140D01*
X1949Y1126D02*
X1986Y1090D01*
X1971Y1075D02*
X1986Y1090D01*
X1945Y1102D02*
X1971Y1075D01*
X1931Y1088D02*
X1945Y1102D01*
X1931Y1088D02*
X1957Y1061D01*
X1943Y1047D02*
X1957Y1061D01*
X1923Y1068D02*
X1943Y1047D01*
X1909Y1053D02*
X1923Y1068D01*
X1909Y1053D02*
X1929Y1033D01*
X1915Y1019D02*
X1929Y1033D01*
X1889Y1045D02*
X1915Y1019D01*
X1874Y1031D02*
X1889Y1045D01*
X1874Y1031D02*
X1901Y1005D01*
X1887Y991D02*
X1901Y1005D01*
X1850Y1027D02*
X1887Y991D01*
X1836Y1013D02*
X1850Y1027D01*
X1836Y1013D02*
X1872Y976D01*
X1865Y969D02*
X1872Y976D01*
X1597Y760D02*
X1656D01*
X1580Y777D02*
X1597Y760D01*
X2419Y639D02*
X2431D01*
X1656D02*
X2025D01*
X2389D01*
Y579D02*
Y639D01*
Y579D02*
X2409D01*
Y639D01*
X2419D01*
X1908Y1089D02*
Y1232D01*
X1887Y1067D02*
X1908Y1089D01*
X1161Y1067D02*
X1887D01*
X781D02*
X974D01*
X1104D02*
X1161D01*
X1104Y1019D02*
Y1067D01*
X1084Y1019D02*
X1104D01*
X1084D02*
Y1067D01*
Y1087D01*
X1064D02*
X1084D01*
X1064Y1067D02*
Y1087D01*
Y1019D02*
Y1067D01*
X1044Y1019D02*
X1064D01*
X1044D02*
Y1067D01*
Y1087D01*
X1024D02*
X1044D01*
X1024Y1067D02*
Y1087D01*
Y1019D02*
Y1067D01*
X1004Y1019D02*
X1024D01*
X1004D02*
Y1067D01*
Y1087D01*
X984D02*
X1004D01*
X984Y1067D02*
Y1087D01*
X974Y1067D02*
X984D01*
X1939Y1373D02*
Y1410D01*
X1877Y1311D02*
X1939Y1373D01*
X1877Y1260D02*
Y1311D01*
X1837Y1219D02*
X1877Y1260D01*
X1837Y1170D02*
Y1219D01*
X1821Y1154D02*
X1837Y1170D01*
X1789Y1154D02*
X1821D01*
X1773Y1138D02*
X1789Y1154D01*
X1102Y1138D02*
X1773D01*
X854D02*
X976D01*
X1046D02*
X1102D01*
X1046D02*
Y1186D01*
X1026D02*
X1046D01*
X1026Y1138D02*
Y1186D01*
X1006Y1138D02*
X1026D01*
X1006D02*
Y1186D01*
X986D02*
X1006D01*
X986Y1138D02*
Y1186D01*
X976Y1138D02*
X986D01*
X1477Y940D02*
X1633Y784D01*
X1156Y940D02*
X1477D01*
X1139D02*
X1156D01*
X1139Y881D02*
Y940D01*
X1119Y881D02*
X1139D01*
X1119D02*
Y940D01*
X1099D02*
X1119D01*
X1089D02*
X1099D01*
X910Y761D02*
X1017Y868D01*
X1081Y932D02*
X1089Y940D01*
X1067Y918D02*
X1081Y932D01*
X1025Y960D02*
X1067Y918D01*
X1011Y946D02*
X1025Y960D01*
X1011Y946D02*
X1053Y904D01*
X1095Y862D01*
X1081Y848D02*
X1095Y862D01*
X1039Y890D02*
X1081Y848D01*
X997Y932D02*
X1039Y890D01*
X982Y917D02*
X997Y932D01*
X982Y917D02*
X1024Y875D01*
X1017Y868D02*
X1024Y875D01*
X1902Y1261D02*
X1993D01*
X1880Y1238D02*
X1902Y1261D01*
X1880Y1160D02*
Y1238D01*
X1861Y1141D02*
X1880Y1160D01*
X1858Y1139D02*
X1861Y1141D01*
X1858Y1139D02*
X1879Y1118D01*
X1865Y1104D02*
X1879Y1118D01*
X1844Y1125D02*
X1865Y1104D01*
X1830Y1111D02*
X1844Y1125D01*
X1823Y1103D02*
X1830Y1111D01*
X732Y1103D02*
X1721D01*
X1811D02*
X1823D01*
X1791D02*
X1811D01*
X1771D02*
X1791D01*
X1771Y1083D02*
Y1103D01*
X1751Y1083D02*
X1771D01*
X1751D02*
Y1103D01*
X1731D02*
X1751D01*
X1721D02*
X1731D01*
X1009Y1393D02*
X1577D01*
X977D02*
X1009D01*
X977D02*
Y1449D01*
X957D02*
X977D01*
X957Y1393D02*
Y1449D01*
Y1338D02*
Y1393D01*
X937Y1338D02*
X957D01*
X937D02*
Y1393D01*
Y1449D01*
X917D02*
X937D01*
X917Y1393D02*
Y1449D01*
Y1338D02*
Y1393D01*
X897Y1338D02*
X917D01*
X897D02*
Y1393D01*
Y1449D01*
X877D02*
X897D01*
X877Y1393D02*
Y1449D01*
X857Y1393D02*
X877D01*
X847D02*
X857D01*
X742Y1288D02*
X815Y1361D01*
X836Y1382D02*
X847Y1393D01*
X796Y1421D02*
X836Y1382D01*
X782Y1407D02*
X796Y1421D01*
X782Y1407D02*
X822Y1368D01*
X815Y1361D02*
X822Y1368D01*
X2431Y639D02*
X2652D01*
X1679Y327D02*
X1801D01*
X1914Y214D01*
Y158D02*
Y214D01*
X1925Y70D02*
X2014Y158D01*
X1740Y70D02*
X1925D01*
X1536Y274D02*
X1740Y70D01*
X1536Y274D02*
Y344D01*
X2384Y696D02*
Y780D01*
X2319Y1591D02*
X2384Y1526D01*
X1947Y1630D02*
X1980Y1663D01*
X1947Y1592D02*
Y1630D01*
X1442Y564D02*
X1679Y327D01*
X1079Y1236D02*
X1157Y1158D01*
X1757Y1180D02*
X1818Y1242D01*
X1586Y1180D02*
X1757D01*
X1499Y1267D02*
X1586Y1180D01*
X849Y1267D02*
X1499D01*
X833Y1251D02*
X849Y1267D01*
X703Y1251D02*
X833D01*
X685Y1269D02*
X703Y1251D01*
X685Y1269D02*
Y1374D01*
X1184Y1200D02*
X1376D01*
X1150Y1234D02*
X1184Y1200D01*
X1622Y686D02*
X2138Y1202D01*
X1390Y686D02*
X1622D01*
X1200Y496D02*
X1390Y686D01*
X1601Y1441D02*
X2117Y1956D01*
X1601Y1207D02*
Y1441D01*
X1604Y636D02*
X1761Y479D01*
X2405D01*
X893Y960D02*
X910Y943D01*
Y761D02*
Y943D01*
X2280Y1142D02*
X2795Y1657D01*
X1158Y647D02*
X1391Y880D01*
X1158Y367D02*
Y647D01*
Y367D02*
X1181Y344D01*
X1536D01*
X2017Y1403D02*
Y1817D01*
X1981Y1368D02*
X2017Y1403D01*
X1819Y1561D02*
X1952Y1694D01*
X1157Y1158D02*
X1761D01*
X1795Y1193D01*
X1814D01*
D23*
X3367Y1497D02*
D03*
X3170Y1694D02*
D03*
Y1595D02*
D03*
Y1300D02*
D03*
Y1399D02*
D03*
D24*
X3259Y837D02*
D03*
Y738D02*
D03*
X3181D02*
D03*
Y837D02*
D03*
X2217Y2029D02*
D03*
X2117D02*
D03*
X2017D02*
D03*
X1917D02*
D03*
X1817D02*
D03*
X2314Y158D02*
D03*
X2214D02*
D03*
X2114D02*
D03*
X2014D02*
D03*
X1914D02*
D03*
X2795Y1657D02*
D03*
Y1557D02*
D03*
X2953D02*
D03*
X1300Y496D02*
D03*
X1200Y396D02*
D03*
X1300D02*
D03*
X1200Y296D02*
D03*
X1300D02*
D03*
X1200Y196D02*
D03*
X1300D02*
D03*
D25*
X3327Y1024D02*
D03*
Y551D02*
D03*
D26*
X787Y157D02*
D03*
X2756D02*
D03*
Y2126D02*
D03*
X787D02*
D03*
D27*
X1717Y2029D02*
D03*
X1814Y158D02*
D03*
D28*
X2795Y1457D02*
D03*
X2953D02*
D03*
X1200Y496D02*
D03*
D29*
X1047Y1550D02*
D03*
X1239D02*
D03*
X2898Y1081D02*
D03*
X2980D02*
D03*
D30*
X2652Y639D02*
D03*
X2384Y696D02*
D03*
Y780D02*
D03*
Y1526D02*
D03*
X2319Y1591D02*
D03*
X1980Y1663D02*
D03*
X1947Y1592D02*
D03*
X1939Y1410D02*
D03*
X1442Y564D02*
D03*
X1079Y1236D02*
D03*
X1376Y1200D02*
D03*
X1150Y1234D02*
D03*
X2138Y1202D02*
D03*
X2117Y1956D02*
D03*
X1601Y1207D02*
D03*
X1818Y1242D02*
D03*
X685Y1374D02*
D03*
X1656Y639D02*
D03*
X1604Y636D02*
D03*
X2405Y479D02*
D03*
X854Y1138D02*
D03*
X781Y1067D02*
D03*
X1908Y1232D02*
D03*
X732Y1103D02*
D03*
X1993Y1261D02*
D03*
X681Y768D02*
D03*
X893Y960D02*
D03*
X910Y761D02*
D03*
X1633Y784D02*
D03*
X1577Y1393D02*
D03*
X742Y1288D02*
D03*
X2280Y1142D02*
D03*
X1391Y880D02*
D03*
X2017Y1817D02*
D03*
X1981Y1368D02*
D03*
X1952Y1694D02*
D03*
X1819Y1561D02*
D03*
X2582Y1066D02*
D03*
X1580Y777D02*
D03*
X1814Y1193D02*
D03*
M02*
