G04 Layer_Color=32896*
%FSLAX23Y23*%
%MOIN*%
G70*
G01*
G75*
%ADD33C,0.007*%
D33*
X3245Y1947D02*
X3265D01*
X3275Y1937D01*
Y1898D01*
X3265Y1888D01*
X3245D01*
X3235Y1898D01*
Y1937D01*
X3245Y1947D01*
X3216Y1888D02*
X3196D01*
X3206D01*
Y1947D01*
X3216D01*
X3166Y1888D02*
X3147D01*
X3157D01*
Y1927D01*
X3166D01*
X3117D02*
X3097Y1888D01*
X3078Y1927D01*
X3058Y1888D02*
X3038D01*
X3048D01*
Y1927D01*
X3058D01*
X2979Y1888D02*
X2999D01*
X3009Y1898D01*
Y1917D01*
X2999Y1927D01*
X2979D01*
X2970Y1917D01*
Y1907D01*
X3009D01*
X2950Y1927D02*
Y1888D01*
Y1907D01*
X2940Y1917D01*
X2930Y1927D01*
X2920D01*
X2832Y1947D02*
Y1907D01*
X2812Y1888D01*
X2792Y1907D01*
Y1947D01*
X2763Y1927D02*
X2743D01*
X2733Y1917D01*
Y1888D01*
X2763D01*
X2773Y1898D01*
X2763Y1907D01*
X2733D01*
X2714Y1888D02*
Y1927D01*
X2684D01*
X2674Y1917D01*
Y1888D01*
X2556Y1947D02*
Y1888D01*
X2586D01*
X2596Y1898D01*
Y1917D01*
X2586Y1927D01*
X2556D01*
X2507Y1888D02*
X2527D01*
X2537Y1898D01*
Y1917D01*
X2527Y1927D01*
X2507D01*
X2497Y1917D01*
Y1907D01*
X2537D01*
X2478Y1888D02*
Y1927D01*
X2448D01*
X2438Y1917D01*
Y1888D01*
X2320Y1947D02*
X2360D01*
Y1888D01*
X2320D01*
X2360Y1917D02*
X2340D01*
X2271Y1888D02*
X2291D01*
X2301Y1898D01*
Y1917D01*
X2291Y1927D01*
X2271D01*
X2261Y1917D01*
Y1907D01*
X2301D01*
X2202Y1947D02*
Y1888D01*
X2232D01*
X2241Y1898D01*
Y1917D01*
X2232Y1927D01*
X2202D01*
X2153Y1888D02*
X2173D01*
X2182Y1898D01*
Y1917D01*
X2173Y1927D01*
X2153D01*
X2143Y1917D01*
Y1907D01*
X2182D01*
X3368Y1867D02*
Y1808D01*
X3348Y1828D01*
X3329Y1808D01*
Y1867D01*
X3309Y1808D02*
X3289D01*
X3299D01*
Y1847D01*
X3309D01*
X3260D02*
Y1808D01*
Y1828D01*
X3250Y1838D01*
X3240Y1847D01*
X3230D01*
X3171Y1808D02*
X3191D01*
X3201Y1818D01*
Y1838D01*
X3191Y1847D01*
X3171D01*
X3161Y1838D01*
Y1828D01*
X3201D01*
X3142Y1808D02*
X3122D01*
X3132D01*
Y1867D01*
X3142D01*
X3063Y1808D02*
X3083D01*
X3093Y1818D01*
Y1838D01*
X3083Y1847D01*
X3063D01*
X3053Y1838D01*
Y1828D01*
X3093D01*
X3034Y1808D02*
X3004D01*
X2994Y1818D01*
X3004Y1828D01*
X3024D01*
X3034Y1838D01*
X3024Y1847D01*
X2994D01*
X2975Y1808D02*
X2945D01*
X2935Y1818D01*
X2945Y1828D01*
X2965D01*
X2975Y1838D01*
X2965Y1847D01*
X2935D01*
X2817Y1867D02*
X2837D01*
X2827D01*
Y1818D01*
X2837Y1808D01*
X2847D01*
X2856Y1818D01*
X2797Y1847D02*
Y1818D01*
X2788Y1808D01*
X2758D01*
Y1847D01*
X2738Y1808D02*
Y1867D01*
Y1828D02*
X2709Y1847D01*
X2738Y1828D02*
X2709Y1808D01*
X2650D02*
X2670D01*
X2679Y1818D01*
Y1838D01*
X2670Y1847D01*
X2650D01*
X2640Y1838D01*
Y1828D01*
X2679D01*
X2620Y1867D02*
Y1808D01*
X2591D01*
X2581Y1818D01*
Y1828D01*
Y1838D01*
X2591Y1847D01*
X2620D01*
X2551Y1808D02*
X2532D01*
X2522Y1818D01*
Y1838D01*
X2532Y1847D01*
X2551D01*
X2561Y1838D01*
Y1818D01*
X2551Y1808D01*
X2502Y1847D02*
X2463Y1808D01*
X2483Y1828D01*
X2463Y1847D01*
X2502Y1808D01*
X2384Y1867D02*
Y1828D01*
X2364Y1808D01*
X2345Y1828D01*
Y1867D01*
X2325Y1808D02*
X2305D01*
X2315D01*
Y1867D01*
X2325Y1857D01*
X2276Y1808D02*
Y1818D01*
X2266D01*
Y1808D01*
X2276D01*
X2227Y1857D02*
X2217Y1867D01*
X2197D01*
X2187Y1857D01*
Y1818D01*
X2197Y1808D01*
X2217D01*
X2227Y1818D01*
Y1857D01*
X3387Y1712D02*
X3426D01*
X3387Y1751D01*
Y1761D01*
X3397Y1771D01*
X3416D01*
X3426Y1761D01*
X3367D02*
X3357Y1771D01*
X3338D01*
X3328Y1761D01*
Y1721D01*
X3338Y1712D01*
X3357D01*
X3367Y1721D01*
Y1761D01*
X3308Y1712D02*
X3288D01*
X3298D01*
Y1771D01*
X3308Y1761D01*
X3220Y1771D02*
X3239Y1761D01*
X3259Y1741D01*
Y1721D01*
X3249Y1712D01*
X3229D01*
X3220Y1721D01*
Y1731D01*
X3229Y1741D01*
X3259D01*
M02*
