G04 Layer_Color=65535*
%FSLAX23Y23*%
%MOIN*%
G70*
G01*
G75*
%ADD18C,0.010*%
%ADD22C,0.008*%
%ADD31C,0.006*%
%ADD32C,0.006*%
%ADD33C,0.007*%
%ADD34C,0.008*%
D18*
X3079Y1779D02*
X3089D01*
X3099Y1789D01*
Y1839D01*
X3149D02*
X3169D01*
X3179Y1829D01*
Y1799D01*
X3149D01*
X3139Y1809D01*
X3149Y1819D01*
X3179D01*
X3239Y1839D02*
X3209D01*
X3199Y1829D01*
Y1809D01*
X3209Y1799D01*
X3239D01*
X3259D02*
Y1859D01*
Y1819D02*
X3289Y1839D01*
X3259Y1819D02*
X3289Y1799D01*
X3108Y1157D02*
Y1127D01*
X3118Y1117D01*
X3148D01*
Y1157D01*
X3168Y1117D02*
X3198D01*
X3208Y1127D01*
X3198Y1137D01*
X3178D01*
X3168Y1147D01*
X3178Y1157D01*
X3208D01*
X3228Y1177D02*
Y1117D01*
X3258D01*
X3268Y1127D01*
Y1137D01*
Y1147D01*
X3258Y1157D01*
X3228D01*
X3328D02*
X3298D01*
X3288Y1147D01*
Y1127D01*
X3298Y1117D01*
X3328D01*
X3358D02*
X3378D01*
X3388Y1127D01*
Y1147D01*
X3378Y1157D01*
X3358D01*
X3348Y1147D01*
Y1127D01*
X3358Y1117D01*
X3408D02*
Y1157D01*
X3438D01*
X3448Y1147D01*
Y1117D01*
X2963Y590D02*
X2953Y600D01*
X2933D01*
X2923Y590D01*
Y550D01*
X2933Y540D01*
X2953D01*
X2963Y550D01*
X2983Y540D02*
X3003D01*
X2993D01*
Y600D01*
X2983Y590D01*
X2263Y1537D02*
X2253Y1547D01*
X2233D01*
X2223Y1537D01*
Y1497D01*
X2233Y1487D01*
X2253D01*
X2263Y1497D01*
X2283Y1537D02*
X2293Y1547D01*
X2313D01*
X2323Y1537D01*
Y1527D01*
X2313Y1517D01*
X2303D01*
X2313D01*
X2323Y1507D01*
Y1497D01*
X2313Y1487D01*
X2293D01*
X2283Y1497D01*
X1269Y857D02*
X1259Y867D01*
X1239D01*
X1229Y857D01*
Y817D01*
X1239Y807D01*
X1259D01*
X1269Y817D01*
X1319Y807D02*
Y867D01*
X1289Y837D01*
X1329D01*
X2099Y683D02*
X2089Y693D01*
X2069D01*
X2059Y683D01*
Y643D01*
X2069Y633D01*
X2089D01*
X2099Y643D01*
X2159Y693D02*
X2119D01*
Y663D01*
X2139Y673D01*
X2149D01*
X2159Y663D01*
Y643D01*
X2149Y633D01*
X2129D01*
X2119Y643D01*
X1072Y1398D02*
X1062Y1408D01*
X1042D01*
X1032Y1398D01*
Y1358D01*
X1042Y1348D01*
X1062D01*
X1072Y1358D01*
X1132Y1408D02*
X1112Y1398D01*
X1092Y1378D01*
Y1358D01*
X1102Y1348D01*
X1122D01*
X1132Y1358D01*
Y1368D01*
X1122Y1378D01*
X1092D01*
X1536Y1793D02*
X1526Y1803D01*
X1506D01*
X1496Y1793D01*
Y1753D01*
X1506Y1743D01*
X1526D01*
X1536Y1753D01*
X1556Y1803D02*
X1596D01*
Y1793D01*
X1556Y1753D01*
Y1743D01*
X1514Y594D02*
X1504Y604D01*
X1484D01*
X1474Y594D01*
Y554D01*
X1484Y544D01*
X1504D01*
X1514Y554D01*
X1534Y594D02*
X1544Y604D01*
X1564D01*
X1574Y594D01*
Y584D01*
X1564Y574D01*
X1574Y564D01*
Y554D01*
X1564Y544D01*
X1544D01*
X1534Y554D01*
Y564D01*
X1544Y574D01*
X1534Y584D01*
Y594D01*
X1544Y574D02*
X1564D01*
X1074Y1314D02*
X1064Y1324D01*
X1044D01*
X1034Y1314D01*
Y1274D01*
X1044Y1264D01*
X1064D01*
X1074Y1274D01*
X1094D02*
X1104Y1264D01*
X1124D01*
X1134Y1274D01*
Y1314D01*
X1124Y1324D01*
X1104D01*
X1094Y1314D01*
Y1304D01*
X1104Y1294D01*
X1134D01*
X1070Y1033D02*
X1061Y1043D01*
X1041D01*
X1031Y1033D01*
Y993D01*
X1041Y983D01*
X1061D01*
X1070Y993D01*
X1090Y983D02*
X1110D01*
X1100D01*
Y1043D01*
X1090Y1033D01*
X1140D02*
X1150Y1043D01*
X1170D01*
X1180Y1033D01*
Y993D01*
X1170Y983D01*
X1150D01*
X1140Y993D01*
Y1033D01*
X1070Y1130D02*
X1061Y1140D01*
X1041D01*
X1031Y1130D01*
Y1090D01*
X1041Y1080D01*
X1061D01*
X1070Y1090D01*
X1090Y1080D02*
X1110D01*
X1100D01*
Y1140D01*
X1090Y1130D01*
X1140Y1080D02*
X1160D01*
X1150D01*
Y1140D01*
X1140Y1130D01*
X1873Y603D02*
X1863Y613D01*
X1843D01*
X1833Y603D01*
Y563D01*
X1843Y553D01*
X1863D01*
X1873Y563D01*
X1893Y553D02*
X1913D01*
X1903D01*
Y613D01*
X1893Y603D01*
X1983Y553D02*
X1943D01*
X1983Y593D01*
Y603D01*
X1973Y613D01*
X1953D01*
X1943Y603D01*
X2257Y1263D02*
X2247Y1273D01*
X2227D01*
X2217Y1263D01*
Y1223D01*
X2227Y1213D01*
X2247D01*
X2257Y1223D01*
X2277Y1213D02*
X2297D01*
X2287D01*
Y1273D01*
X2277Y1263D01*
X2326D02*
X2336Y1273D01*
X2356D01*
X2366Y1263D01*
Y1253D01*
X2356Y1243D01*
X2346D01*
X2356D01*
X2366Y1233D01*
Y1223D01*
X2356Y1213D01*
X2336D01*
X2326Y1223D01*
X1357Y1709D02*
X1347Y1719D01*
X1327D01*
X1317Y1709D01*
Y1669D01*
X1327Y1659D01*
X1347D01*
X1357Y1669D01*
X1377Y1659D02*
X1397D01*
X1387D01*
Y1719D01*
X1377Y1709D01*
X1457Y1659D02*
Y1719D01*
X1427Y1689D01*
X1467D01*
X835Y1708D02*
X825Y1718D01*
X805D01*
X795Y1708D01*
Y1668D01*
X805Y1658D01*
X825D01*
X835Y1668D01*
X855Y1658D02*
X875D01*
X865D01*
Y1718D01*
X855Y1708D01*
X945Y1718D02*
X905D01*
Y1688D01*
X925Y1698D01*
X935D01*
X945Y1688D01*
Y1668D01*
X935Y1658D01*
X915D01*
X905Y1668D01*
X1008Y123D02*
X998Y133D01*
X979D01*
X969Y123D01*
Y83D01*
X979Y73D01*
X998D01*
X1008Y83D01*
X1028Y73D02*
X1048D01*
X1038D01*
Y133D01*
X1028Y123D01*
X1118Y133D02*
X1098Y123D01*
X1078Y103D01*
Y83D01*
X1088Y73D01*
X1108D01*
X1118Y83D01*
Y93D01*
X1108Y103D01*
X1078D01*
X2318Y1667D02*
X2308Y1677D01*
X2288D01*
X2278Y1667D01*
Y1627D01*
X2288Y1617D01*
X2308D01*
X2318Y1627D01*
X2338Y1617D02*
X2358D01*
X2348D01*
Y1677D01*
X2338Y1667D01*
X2388Y1677D02*
X2428D01*
Y1667D01*
X2388Y1627D01*
Y1617D01*
X2355Y1152D02*
X2345Y1162D01*
X2325D01*
X2315Y1152D01*
Y1112D01*
X2325Y1102D01*
X2345D01*
X2355Y1112D01*
X2375Y1102D02*
X2395D01*
X2385D01*
Y1162D01*
X2375Y1152D01*
X2425D02*
X2435Y1162D01*
X2455D01*
X2465Y1152D01*
Y1142D01*
X2455Y1132D01*
X2465Y1122D01*
Y1112D01*
X2455Y1102D01*
X2435D01*
X2425Y1112D01*
Y1122D01*
X2435Y1132D01*
X2425Y1142D01*
Y1152D01*
X2435Y1132D02*
X2455D01*
X2570Y1776D02*
X2560Y1786D01*
X2540D01*
X2530Y1776D01*
Y1736D01*
X2540Y1726D01*
X2560D01*
X2570Y1736D01*
X2590Y1726D02*
X2610D01*
X2600D01*
Y1786D01*
X2590Y1776D01*
X2639Y1736D02*
X2649Y1726D01*
X2669D01*
X2679Y1736D01*
Y1776D01*
X2669Y1786D01*
X2649D01*
X2639Y1776D01*
Y1766D01*
X2649Y1756D01*
X2679D01*
X2182Y1016D02*
X2172Y1026D01*
X2152D01*
X2142Y1016D01*
Y976D01*
X2152Y966D01*
X2172D01*
X2182Y976D01*
X2242Y966D02*
X2202D01*
X2242Y1006D01*
Y1016D01*
X2232Y1026D01*
X2212D01*
X2202Y1016D01*
X2262D02*
X2272Y1026D01*
X2292D01*
X2302Y1016D01*
Y976D01*
X2292Y966D01*
X2272D01*
X2262Y976D01*
Y1016D01*
X2666Y1401D02*
Y1341D01*
X2696D01*
X2706Y1351D01*
Y1391D01*
X2696Y1401D01*
X2666D01*
X2736Y1381D02*
X2756D01*
X2766Y1371D01*
Y1341D01*
X2736D01*
X2726Y1351D01*
X2736Y1361D01*
X2766D01*
X2826Y1381D02*
X2796D01*
X2786Y1371D01*
Y1351D01*
X2796Y1341D01*
X2826D01*
X1098Y642D02*
Y582D01*
Y612D01*
X1138D01*
Y642D01*
Y582D01*
X1158D02*
X1178D01*
X1168D01*
Y642D01*
X1158Y632D01*
X2777Y743D02*
X2717D01*
X2737Y763D01*
X2717Y783D01*
X2777D01*
X2737Y813D02*
Y833D01*
X2747Y843D01*
X2777D01*
Y813D01*
X2767Y803D01*
X2757Y813D01*
Y843D01*
X2737Y863D02*
X2777Y903D01*
X2757Y883D01*
X2737Y903D01*
X2777Y863D01*
Y923D02*
Y943D01*
Y933D01*
X2717D01*
X2727Y923D01*
Y973D02*
X2717Y983D01*
Y1003D01*
X2727Y1013D01*
X2737D01*
X2747Y1003D01*
X2757Y1013D01*
X2767D01*
X2777Y1003D01*
Y983D01*
X2767Y973D01*
X2757D01*
X2747Y983D01*
X2737Y973D01*
X2727D01*
X2747Y983D02*
Y1003D01*
X2727Y1033D02*
X2717Y1043D01*
Y1063D01*
X2727Y1073D01*
X2767D01*
X2777Y1063D01*
Y1043D01*
X2767Y1033D01*
X2727D01*
X2717Y1133D02*
X2727Y1113D01*
X2747Y1093D01*
X2767D01*
X2777Y1103D01*
Y1123D01*
X2767Y1133D01*
X2757D01*
X2747Y1123D01*
Y1093D01*
X1713Y2162D02*
X1703Y2172D01*
X1683D01*
X1673Y2162D01*
Y2152D01*
X1683Y2142D01*
X1703D01*
X1713Y2132D01*
Y2122D01*
X1703Y2112D01*
X1683D01*
X1673Y2122D01*
X1733Y2172D02*
Y2112D01*
X1753Y2132D01*
X1773Y2112D01*
Y2172D01*
X1793D02*
Y2112D01*
X1823D01*
X1833Y2122D01*
Y2162D01*
X1823Y2172D01*
X1793D01*
X1771Y302D02*
Y253D01*
X1781Y243D01*
X1801D01*
X1810Y253D01*
Y302D01*
X1830Y243D02*
Y282D01*
X1850Y302D01*
X1870Y282D01*
Y243D01*
Y273D01*
X1830D01*
X1890Y243D02*
Y302D01*
X1920D01*
X1930Y292D01*
Y273D01*
X1920Y263D01*
X1890D01*
X1910D02*
X1930Y243D01*
X1950Y302D02*
X1990D01*
X1970D01*
Y243D01*
X2752Y1740D02*
Y1800D01*
X2782D01*
X2792Y1790D01*
Y1770D01*
X2782Y1760D01*
X2752D01*
X2852Y1800D02*
X2832Y1790D01*
X2812Y1770D01*
Y1750D01*
X2822Y1740D01*
X2842D01*
X2852Y1750D01*
Y1760D01*
X2842Y1770D01*
X2812D01*
X2909Y1640D02*
Y1700D01*
X2939D01*
X2949Y1690D01*
Y1670D01*
X2939Y1660D01*
X2909D01*
X2969Y1700D02*
X3009D01*
Y1690D01*
X2969Y1650D01*
Y1640D01*
X1041Y1168D02*
Y1228D01*
X1071D01*
X1081Y1218D01*
Y1198D01*
X1071Y1188D01*
X1041D01*
X1061D02*
X1081Y1168D01*
X1101D02*
X1121D01*
X1111D01*
Y1228D01*
X1101Y1218D01*
X986Y366D02*
Y425D01*
X1016D01*
X1026Y415D01*
Y396D01*
X1016Y386D01*
X986D01*
X1006D02*
X1026Y366D01*
X1086D02*
X1046D01*
X1086Y405D01*
Y415D01*
X1076Y425D01*
X1056D01*
X1046Y415D01*
X1486Y347D02*
Y407D01*
X1516D01*
X1526Y397D01*
Y377D01*
X1516Y367D01*
X1486D01*
X1506D02*
X1526Y347D01*
X1546Y397D02*
X1556Y407D01*
X1576D01*
X1586Y397D01*
Y387D01*
X1576Y377D01*
X1566D01*
X1576D01*
X1586Y367D01*
Y357D01*
X1576Y347D01*
X1556D01*
X1546Y357D01*
X1661Y1728D02*
Y1788D01*
X1691D01*
X1701Y1778D01*
Y1758D01*
X1691Y1748D01*
X1661D01*
X1681D02*
X1701Y1728D01*
X1751D02*
Y1788D01*
X1721Y1758D01*
X1761D01*
X1673Y554D02*
Y614D01*
X1703D01*
X1713Y604D01*
Y584D01*
X1703Y574D01*
X1673D01*
X1693D02*
X1713Y554D01*
X1773Y614D02*
X1733D01*
Y584D01*
X1753Y594D01*
X1763D01*
X1773Y584D01*
Y564D01*
X1763Y554D01*
X1743D01*
X1733Y564D01*
X594Y539D02*
Y599D01*
X623D01*
X633Y589D01*
Y569D01*
X623Y559D01*
X594D01*
X613D02*
X633Y539D01*
X653Y569D02*
X693D01*
X713Y539D02*
Y599D01*
X743D01*
X753Y589D01*
Y569D01*
X743Y559D01*
X713D01*
X773Y579D02*
Y549D01*
X783Y539D01*
X813D01*
Y579D01*
X833Y539D02*
X853D01*
X843D01*
Y599D01*
X833D01*
X883Y539D02*
X903D01*
X893D01*
Y599D01*
X883D01*
X933Y579D02*
Y549D01*
X943Y539D01*
X973D01*
Y579D01*
X993Y519D02*
Y579D01*
X1023D01*
X1033Y569D01*
Y549D01*
X1023Y539D01*
X993D01*
X1603Y1277D02*
X1593Y1287D01*
X1573D01*
X1563Y1277D01*
Y1267D01*
X1573Y1257D01*
X1593D01*
X1603Y1247D01*
Y1237D01*
X1593Y1227D01*
X1573D01*
X1563Y1237D01*
X1633Y1277D02*
Y1267D01*
X1623D01*
X1643D01*
X1633D01*
Y1237D01*
X1643Y1227D01*
X1673D02*
Y1267D01*
X1683D01*
X1693Y1257D01*
Y1227D01*
Y1257D01*
X1703Y1267D01*
X1713Y1257D01*
Y1227D01*
X1733Y1277D02*
X1743Y1287D01*
X1763D01*
X1773Y1277D01*
Y1267D01*
X1763Y1257D01*
X1753D01*
X1763D01*
X1773Y1247D01*
Y1237D01*
X1763Y1227D01*
X1743D01*
X1733Y1237D01*
X1833Y1227D02*
X1793D01*
X1833Y1267D01*
Y1277D01*
X1823Y1287D01*
X1803D01*
X1793Y1277D01*
X1893Y1287D02*
X1853D01*
Y1257D01*
X1873D01*
X1853D01*
Y1227D01*
X1943D02*
Y1287D01*
X1913Y1257D01*
X1953D01*
X1417Y1540D02*
X1457Y1480D01*
Y1540D02*
X1417Y1480D01*
X1477D02*
X1497D01*
X1487D01*
Y1540D01*
X1477Y1530D01*
X15Y1531D02*
X45D01*
X55Y1541D01*
X45Y1551D01*
X25D01*
X15Y1561D01*
X25Y1571D01*
X55D01*
X115Y1591D02*
Y1531D01*
X85D01*
X75Y1541D01*
Y1561D01*
X85Y1571D01*
X115D01*
X2886Y1263D02*
X2876Y1273D01*
X2856D01*
X2846Y1263D01*
Y1223D01*
X2856Y1213D01*
X2876D01*
X2886Y1223D01*
X2946Y1213D02*
X2906D01*
X2946Y1253D01*
Y1263D01*
X2936Y1273D01*
X2916D01*
X2906Y1263D01*
D22*
X2507Y1352D02*
G03*
X2507Y1365I0J6D01*
G01*
X2822Y801D02*
G03*
X2822Y813I0J6D01*
G01*
X3037Y1081D02*
G03*
X3037Y1081I-98J0D01*
G01*
X1219Y1672D02*
Y1719D01*
X1719Y711D02*
X1766D01*
X1620Y1643D02*
X1667D01*
X2185Y1106D02*
X2232D01*
X2546Y1628D02*
X2594D01*
X2458Y1627D02*
X2505D01*
X2496Y1114D02*
X2543D01*
X2507Y1342D02*
X2609D01*
Y1375D01*
X2507D02*
X2609D01*
X2507Y1365D02*
Y1375D01*
Y1342D02*
Y1352D01*
X1667Y1979D02*
X2267D01*
X1667Y2079D02*
X2267D01*
X1667Y1979D02*
Y2079D01*
X2267Y1979D02*
Y2079D01*
X1047Y273D02*
Y320D01*
X1764Y108D02*
X2364D01*
X1764Y208D02*
X2364D01*
X1764Y108D02*
Y208D01*
X2364Y108D02*
Y208D01*
X2284Y1394D02*
Y1441D01*
X1502Y1643D02*
X1549D01*
X2745Y1407D02*
X2845D01*
X2745D02*
Y1707D01*
X2845D01*
Y1407D02*
Y1707D01*
X2903Y1407D02*
Y1607D01*
Y1407D02*
X3003D01*
Y1607D01*
X2903D02*
X3003D01*
X759Y687D02*
X806D01*
X853Y862D02*
X901D01*
X757Y862D02*
X804D01*
X657D02*
X705D01*
X1974Y707D02*
X2022D01*
X1509Y709D02*
X1556D01*
X1279Y994D02*
Y1041D01*
Y906D02*
Y953D01*
X1527Y1346D02*
X1597Y1416D01*
X1997D01*
Y946D02*
Y1416D01*
X1527Y946D02*
X1997D01*
X1527D02*
Y1346D01*
X1279Y1086D02*
Y1133D01*
Y1345D02*
Y1393D01*
Y1169D02*
Y1217D01*
X1063Y1672D02*
Y1719D01*
X657Y687D02*
X705D01*
X2825Y547D02*
Y594D01*
X1279Y1263D02*
Y1310D01*
X2822Y791D02*
X2924D01*
Y823D01*
X2822D02*
X2924D01*
X2822Y813D02*
Y823D01*
Y791D02*
Y801D01*
X2284Y1307D02*
Y1354D01*
X1885Y707D02*
X1932D01*
X1478Y272D02*
Y319D01*
X1048Y172D02*
Y219D01*
X1150Y146D02*
X1350D01*
X1150Y546D02*
X1350D01*
Y146D02*
Y546D01*
X1150Y146D02*
Y546D01*
X2880Y1026D02*
X2920D01*
X2900Y1006D02*
Y1046D01*
D31*
X978Y1642D02*
G03*
X978Y1459I0J-92D01*
G01*
X1293Y1459D02*
G03*
X1293Y1642I0J92D01*
G01*
D32*
X3072Y1251D02*
Y1746D01*
X3534D01*
Y1251D02*
Y1746D01*
X3072Y1251D02*
X3534D01*
X3101Y551D02*
Y1024D01*
X3481Y551D02*
Y1024D01*
X3101Y551D02*
X3196D01*
X3161D02*
X3196D01*
X3396D02*
X3481D01*
X3196D02*
X3256D01*
X3101Y1026D02*
X3256D01*
X3396D02*
X3481D01*
X963Y1459D02*
X1293D01*
X968Y1642D02*
X1293D01*
X575Y1488D02*
Y1498D01*
Y918D02*
Y1093D01*
X11Y917D02*
X571D01*
X10Y918D02*
X11Y917D01*
X10Y918D02*
Y1498D01*
X571D01*
D33*
X279Y1707D02*
X239D01*
X279Y1746D01*
Y1756D01*
X269Y1766D01*
X249D01*
X239Y1756D01*
X298D02*
X308Y1766D01*
X328D01*
X338Y1756D01*
Y1717D01*
X328Y1707D01*
X308D01*
X298Y1717D01*
Y1756D01*
X357Y1707D02*
X377D01*
X367D01*
Y1766D01*
X357Y1756D01*
X446Y1766D02*
X426Y1756D01*
X406Y1736D01*
Y1717D01*
X416Y1707D01*
X436D01*
X446Y1717D01*
Y1726D01*
X436Y1736D01*
X406D01*
X239Y1867D02*
Y1808D01*
X259Y1828D01*
X279Y1808D01*
Y1867D01*
X298Y1808D02*
X318D01*
X308D01*
Y1847D01*
X298D01*
X347D02*
Y1808D01*
Y1828D01*
X357Y1838D01*
X367Y1847D01*
X377D01*
X436Y1808D02*
X416D01*
X406Y1818D01*
Y1838D01*
X416Y1847D01*
X436D01*
X446Y1838D01*
Y1828D01*
X406D01*
X465Y1808D02*
X485D01*
X475D01*
Y1867D01*
X465D01*
X544Y1808D02*
X525D01*
X515Y1818D01*
Y1838D01*
X525Y1847D01*
X544D01*
X554Y1838D01*
Y1828D01*
X515D01*
X574Y1808D02*
X603D01*
X613Y1818D01*
X603Y1828D01*
X584D01*
X574Y1838D01*
X584Y1847D01*
X613D01*
X633Y1808D02*
X662D01*
X672Y1818D01*
X662Y1828D01*
X643D01*
X633Y1838D01*
X643Y1847D01*
X672D01*
X790Y1867D02*
X770D01*
X780D01*
Y1818D01*
X770Y1808D01*
X761D01*
X751Y1818D01*
X810Y1847D02*
Y1818D01*
X820Y1808D01*
X849D01*
Y1847D01*
X869Y1808D02*
Y1867D01*
Y1828D02*
X898Y1847D01*
X869Y1828D02*
X898Y1808D01*
X957D02*
X938D01*
X928Y1818D01*
Y1838D01*
X938Y1847D01*
X957D01*
X967Y1838D01*
Y1828D01*
X928D01*
X987Y1867D02*
Y1808D01*
X1016D01*
X1026Y1818D01*
Y1828D01*
Y1838D01*
X1016Y1847D01*
X987D01*
X1056Y1808D02*
X1076D01*
X1085Y1818D01*
Y1838D01*
X1076Y1847D01*
X1056D01*
X1046Y1838D01*
Y1818D01*
X1056Y1808D01*
X1105Y1847D02*
X1144Y1808D01*
X1125Y1828D01*
X1144Y1847D01*
X1105Y1808D01*
X1223Y1867D02*
Y1828D01*
X1243Y1808D01*
X1262Y1828D01*
Y1867D01*
X1282Y1808D02*
X1302D01*
X1292D01*
Y1867D01*
X1282Y1857D01*
X1331Y1808D02*
Y1818D01*
X1341D01*
Y1808D01*
X1331D01*
X1381Y1857D02*
X1390Y1867D01*
X1410D01*
X1420Y1857D01*
Y1818D01*
X1410Y1808D01*
X1390D01*
X1381Y1818D01*
Y1857D01*
X307Y1961D02*
X287D01*
X278Y1951D01*
Y1911D01*
X287Y1902D01*
X307D01*
X317Y1911D01*
Y1951D01*
X307Y1961D01*
X337Y1902D02*
X356D01*
X346D01*
Y1961D01*
X337D01*
X386Y1902D02*
X405D01*
X396D01*
Y1941D01*
X386D01*
X435D02*
X455Y1902D01*
X474Y1941D01*
X494Y1902D02*
X514D01*
X504D01*
Y1941D01*
X494D01*
X573Y1902D02*
X553D01*
X543Y1911D01*
Y1931D01*
X553Y1941D01*
X573D01*
X583Y1931D01*
Y1921D01*
X543D01*
X602Y1941D02*
Y1902D01*
Y1921D01*
X612Y1931D01*
X622Y1941D01*
X632D01*
X720Y1961D02*
Y1921D01*
X740Y1902D01*
X760Y1921D01*
Y1961D01*
X789Y1941D02*
X809D01*
X819Y1931D01*
Y1902D01*
X789D01*
X779Y1911D01*
X789Y1921D01*
X819D01*
X838Y1902D02*
Y1941D01*
X868D01*
X878Y1931D01*
Y1902D01*
X996Y1961D02*
Y1902D01*
X966D01*
X956Y1911D01*
Y1931D01*
X966Y1941D01*
X996D01*
X1045Y1902D02*
X1025D01*
X1016Y1911D01*
Y1931D01*
X1025Y1941D01*
X1045D01*
X1055Y1931D01*
Y1921D01*
X1016D01*
X1075Y1902D02*
Y1941D01*
X1104D01*
X1114Y1931D01*
Y1902D01*
X1232Y1961D02*
X1193D01*
Y1902D01*
X1232D01*
X1193Y1931D02*
X1212D01*
X1281Y1902D02*
X1261D01*
X1252Y1911D01*
Y1931D01*
X1261Y1941D01*
X1281D01*
X1291Y1931D01*
Y1921D01*
X1252D01*
X1350Y1961D02*
Y1902D01*
X1321D01*
X1311Y1911D01*
Y1931D01*
X1321Y1941D01*
X1350D01*
X1399Y1902D02*
X1380D01*
X1370Y1911D01*
Y1931D01*
X1380Y1941D01*
X1399D01*
X1409Y1931D01*
Y1921D01*
X1370D01*
X1732Y1960D02*
X1712D01*
X1702Y1950D01*
X1712Y1940D01*
X1732D01*
X1722Y1910D02*
Y1925D01*
X1717Y1930D01*
X1707D01*
X1702Y1925D01*
Y1910D01*
X1722Y1880D02*
Y1895D01*
X1717Y1900D01*
X1707D01*
X1702Y1895D01*
Y1880D01*
D34*
X1195Y116D02*
Y83D01*
X1212Y99D02*
X1179D01*
X1330Y618D02*
X1321Y627D01*
X1305D01*
X1296Y618D01*
Y585D01*
X1305Y577D01*
X1321D01*
X1330Y585D01*
Y602D01*
X1313D01*
X1346Y577D02*
Y610D01*
X1371D01*
X1380Y602D01*
Y577D01*
X1430Y627D02*
Y577D01*
X1405D01*
X1396Y585D01*
Y602D01*
X1405Y610D01*
X1430D01*
M02*
