G04 Layer_Color=8388736*
%FSLAX23Y23*%
%MOIN*%
G70*
G01*
G75*
%ADD35R,0.055X0.063*%
%ADD36R,0.063X0.055*%
%ADD37O,0.022X0.106*%
%ADD38R,0.022X0.106*%
%ADD39R,0.016X0.106*%
%ADD40R,0.106X0.016*%
%ADD41O,0.106X0.016*%
%ADD42R,0.087X0.031*%
%ADD43C,0.087*%
%ADD44C,0.067*%
%ADD45C,0.126*%
%ADD46P,0.222X8X202.5*%
%ADD47R,0.067X0.067*%
%ADD48R,0.067X0.067*%
%ADD49C,0.055*%
%ADD50C,0.033*%
D35*
X1254Y1696D02*
D03*
X1183D02*
D03*
X1083Y296D02*
D03*
X1012D02*
D03*
X2249Y1417D02*
D03*
X2320D02*
D03*
X1314Y1018D02*
D03*
X1243D02*
D03*
X1314Y929D02*
D03*
X1243D02*
D03*
X1314Y1109D02*
D03*
X1243D02*
D03*
X1314Y1369D02*
D03*
X1243D02*
D03*
X1314Y1193D02*
D03*
X1243D02*
D03*
X1028Y1696D02*
D03*
X1098D02*
D03*
X2860Y571D02*
D03*
X2789D02*
D03*
X1243Y1286D02*
D03*
X1314D02*
D03*
X2320Y1331D02*
D03*
X2249D02*
D03*
X1514Y295D02*
D03*
X1443D02*
D03*
X1084Y196D02*
D03*
X1013D02*
D03*
D36*
X1742Y675D02*
D03*
Y746D02*
D03*
X1644Y1678D02*
D03*
Y1607D02*
D03*
X2209Y1142D02*
D03*
Y1071D02*
D03*
X2570Y1663D02*
D03*
Y1593D02*
D03*
X2481Y1662D02*
D03*
Y1592D02*
D03*
X2520Y1150D02*
D03*
Y1079D02*
D03*
X1526Y1607D02*
D03*
Y1678D02*
D03*
X782Y652D02*
D03*
Y722D02*
D03*
X877Y827D02*
D03*
Y898D02*
D03*
X781Y827D02*
D03*
Y898D02*
D03*
X681Y827D02*
D03*
Y898D02*
D03*
X1998Y742D02*
D03*
Y671D02*
D03*
X1532Y744D02*
D03*
Y673D02*
D03*
X681Y652D02*
D03*
Y722D02*
D03*
X1908Y671D02*
D03*
Y742D02*
D03*
D37*
X2596Y1457D02*
D03*
X2571D02*
D03*
X2545D02*
D03*
X2520D02*
D03*
X2596Y1260D02*
D03*
X2571D02*
D03*
X2545D02*
D03*
X2911Y906D02*
D03*
X2886D02*
D03*
X2860D02*
D03*
X2835D02*
D03*
X2911Y709D02*
D03*
X2886D02*
D03*
X2860D02*
D03*
D38*
X2520Y1260D02*
D03*
X2835Y709D02*
D03*
D39*
X1526Y1486D02*
D03*
X1545D02*
D03*
X1565D02*
D03*
X1585D02*
D03*
X1604D02*
D03*
X1624D02*
D03*
X1644D02*
D03*
X1663D02*
D03*
X1683D02*
D03*
X1703D02*
D03*
X1722D02*
D03*
X1742D02*
D03*
X1762D02*
D03*
X1781D02*
D03*
X1801D02*
D03*
X1821D02*
D03*
X1841D02*
D03*
X1860D02*
D03*
X1880D02*
D03*
X1900D02*
D03*
X1919D02*
D03*
X1939D02*
D03*
X1959D02*
D03*
X1978D02*
D03*
X1998D02*
D03*
Y876D02*
D03*
X1978D02*
D03*
X1959D02*
D03*
X1939D02*
D03*
X1919D02*
D03*
X1900D02*
D03*
X1880D02*
D03*
X1860D02*
D03*
X1841D02*
D03*
X1821D02*
D03*
X1801D02*
D03*
X1781D02*
D03*
X1762D02*
D03*
X1742D02*
D03*
X1722D02*
D03*
X1703D02*
D03*
X1683D02*
D03*
X1663D02*
D03*
X1644D02*
D03*
X1624D02*
D03*
X1604D02*
D03*
X1585D02*
D03*
X1565D02*
D03*
X1545D02*
D03*
X1526D02*
D03*
D40*
X2067Y1417D02*
D03*
Y1398D02*
D03*
Y1378D02*
D03*
Y1358D02*
D03*
Y1339D02*
D03*
Y1319D02*
D03*
Y1299D02*
D03*
Y1280D02*
D03*
Y1260D02*
D03*
Y1240D02*
D03*
Y1220D02*
D03*
Y1201D02*
D03*
Y1181D02*
D03*
Y1161D02*
D03*
Y1142D02*
D03*
Y1122D02*
D03*
Y1102D02*
D03*
Y1083D02*
D03*
Y1063D02*
D03*
Y1043D02*
D03*
Y1024D02*
D03*
Y1004D02*
D03*
Y984D02*
D03*
Y965D02*
D03*
Y945D02*
D03*
X1457D02*
D03*
Y965D02*
D03*
Y984D02*
D03*
Y1004D02*
D03*
Y1024D02*
D03*
Y1043D02*
D03*
Y1063D02*
D03*
Y1083D02*
D03*
Y1102D02*
D03*
Y1122D02*
D03*
Y1142D02*
D03*
Y1161D02*
D03*
Y1181D02*
D03*
Y1201D02*
D03*
Y1220D02*
D03*
Y1240D02*
D03*
Y1260D02*
D03*
Y1280D02*
D03*
Y1299D02*
D03*
Y1319D02*
D03*
Y1339D02*
D03*
Y1358D02*
D03*
Y1378D02*
D03*
Y1398D02*
D03*
D41*
Y1417D02*
D03*
D42*
X600Y1463D02*
D03*
Y1420D02*
D03*
Y1376D02*
D03*
Y1333D02*
D03*
Y1290D02*
D03*
Y1246D02*
D03*
Y1203D02*
D03*
Y1160D02*
D03*
Y1117D02*
D03*
D43*
X3367Y1497D02*
D03*
X3170Y1694D02*
D03*
Y1595D02*
D03*
Y1300D02*
D03*
Y1399D02*
D03*
D44*
X3259Y837D02*
D03*
Y738D02*
D03*
X3181D02*
D03*
Y837D02*
D03*
X2217Y2029D02*
D03*
X2117D02*
D03*
X2017D02*
D03*
X1917D02*
D03*
X1817D02*
D03*
X2314Y158D02*
D03*
X2214D02*
D03*
X2114D02*
D03*
X2014D02*
D03*
X1914D02*
D03*
X2795Y1657D02*
D03*
Y1557D02*
D03*
X2953D02*
D03*
X1300Y496D02*
D03*
X1200Y396D02*
D03*
X1300D02*
D03*
X1200Y296D02*
D03*
X1300D02*
D03*
X1200Y196D02*
D03*
X1300D02*
D03*
D45*
X3327Y1024D02*
D03*
Y551D02*
D03*
D46*
X787Y157D02*
D03*
X2756D02*
D03*
Y2126D02*
D03*
X787D02*
D03*
D47*
X1717Y2029D02*
D03*
X1814Y158D02*
D03*
D48*
X2795Y1457D02*
D03*
X2953D02*
D03*
X1200Y496D02*
D03*
D49*
X1047Y1550D02*
D03*
X1239D02*
D03*
X2898Y1081D02*
D03*
X2980D02*
D03*
D50*
X2652Y639D02*
D03*
X2384Y696D02*
D03*
Y780D02*
D03*
Y1526D02*
D03*
X2319Y1591D02*
D03*
X1980Y1663D02*
D03*
X1947Y1592D02*
D03*
X1939Y1410D02*
D03*
X1442Y564D02*
D03*
X1079Y1236D02*
D03*
X1376Y1200D02*
D03*
X1150Y1234D02*
D03*
X2138Y1202D02*
D03*
X2117Y1956D02*
D03*
X1601Y1207D02*
D03*
X1818Y1242D02*
D03*
X685Y1374D02*
D03*
X1656Y639D02*
D03*
X1604Y636D02*
D03*
X2405Y479D02*
D03*
X854Y1138D02*
D03*
X781Y1067D02*
D03*
X1908Y1232D02*
D03*
X732Y1103D02*
D03*
X1993Y1261D02*
D03*
X681Y768D02*
D03*
X893Y960D02*
D03*
X910Y761D02*
D03*
X1633Y784D02*
D03*
X1577Y1393D02*
D03*
X742Y1288D02*
D03*
X2280Y1142D02*
D03*
X1391Y880D02*
D03*
X2017Y1817D02*
D03*
X1981Y1368D02*
D03*
X1952Y1694D02*
D03*
X1819Y1561D02*
D03*
X2582Y1066D02*
D03*
X1580Y777D02*
D03*
X1814Y1193D02*
D03*
M02*
