M48
;Layer_Color=9474304
;FILE_FORMAT=2:3
INCH,LZ
;TYPE=PLATED
T1F00S00C0.012
T2F00S00C0.024
T3F00S00C0.035
T4F00S00C0.039
T5F00S00C0.059
T6F00S00C0.091
T7F00S00C0.138
%
T01
X01442Y00564
X01604Y00636
X01656Y00639
X01633Y00784
X0158Y00777
X01391Y0088
X02384Y0078
Y00696
X02405Y00479
X02652Y00639
X02582Y01066
X0228Y01142
X00854Y01138
X00781Y01067
X00732Y01103
X00893Y0096
X0091Y00761
X00681Y00768
X00742Y01288
X00685Y01374
X01079Y01236
X0115Y01234
X01376Y012
X01601Y01207
X01577Y01393
X01939Y0141
X01981Y01368
X01993Y01261
X01908Y01232
X01818Y01242
X01814Y01193
X02138Y01202
X02384Y01526
X02319Y01591
X01947Y01592
X0198Y01663
X01952Y01694
X02017Y01817
X02117Y01956
X01819Y01561
T02
X01047Y0155
X01239
T03
X012Y00196
Y00296
Y00396
Y00496
X013
Y00396
Y00296
Y00196
X01814Y00158
X01914
X02014
X02114
X02214
X02314
X02217Y02029
X02117
X02017
X01917
X01817
X01717
X02795Y01657
Y01557
Y01457
X02953
Y01557
T04
X03181Y00738
X03259
Y00837
X03181
T05
X0317Y013
Y01399
Y01595
Y01694
X03367Y01497
T06
X03327Y00551
Y01024
T07
X02756Y00157
X00787
Y02126
X02756
M30
