G04 Layer_Color=2752767*
%FSLAX23Y23*%
%MOIN*%
G70*
G01*
G75*
%ADD53C,0.005*%
D53*
X3367Y1497D02*
Y1530D01*
X3384Y1547D01*
X3400Y1530D01*
Y1497D01*
Y1522D01*
X3367D01*
X3170Y1694D02*
Y1727D01*
X3187Y1744D01*
X3204Y1727D01*
Y1694D01*
Y1719D01*
X3170D01*
Y1595D02*
Y1629D01*
X3187Y1645D01*
X3204Y1629D01*
Y1595D01*
Y1620D01*
X3170D01*
Y1300D02*
Y1334D01*
X3187Y1350D01*
X3204Y1334D01*
Y1300D01*
Y1325D01*
X3170D01*
Y1399D02*
Y1432D01*
X3187Y1449D01*
X3204Y1432D01*
Y1399D01*
Y1424D01*
X3170D01*
X3259Y887D02*
Y837D01*
X3284D01*
X3293Y845D01*
Y853D01*
X3284Y862D01*
X3259D01*
X3284D01*
X3293Y870D01*
Y878D01*
X3284Y887D01*
X3259D01*
Y788D02*
Y738D01*
X3284D01*
X3293Y747D01*
Y755D01*
X3284Y763D01*
X3259D01*
X3284D01*
X3293Y772D01*
Y780D01*
X3284Y788D01*
X3259D01*
X3181D02*
Y738D01*
X3206D01*
X3214Y747D01*
Y755D01*
X3206Y763D01*
X3181D01*
X3206D01*
X3214Y772D01*
Y780D01*
X3206Y788D01*
X3181D01*
Y887D02*
Y837D01*
X3206D01*
X3214Y845D01*
Y853D01*
X3206Y862D01*
X3181D01*
X3206D01*
X3214Y870D01*
Y878D01*
X3206Y887D01*
X3181D01*
X3360Y1065D02*
X3352Y1074D01*
X3335D01*
X3327Y1065D01*
Y1032D01*
X3335Y1024D01*
X3352D01*
X3360Y1032D01*
Y593D02*
X3352Y601D01*
X3335D01*
X3327Y593D01*
Y560D01*
X3335Y551D01*
X3352D01*
X3360Y560D01*
X787Y207D02*
Y157D01*
X812D01*
X821Y166D01*
Y199D01*
X812Y207D01*
X787D01*
X2756D02*
Y157D01*
X2781D01*
X2789Y166D01*
Y199D01*
X2781Y207D01*
X2756D01*
Y2176D02*
Y2126D01*
X2781D01*
X2789Y2134D01*
Y2168D01*
X2781Y2176D01*
X2756D01*
X787D02*
Y2126D01*
X812D01*
X821Y2134D01*
Y2168D01*
X812Y2176D01*
X787D01*
X2250Y2079D02*
X2217D01*
Y2029D01*
X2250D01*
X2217Y2054D02*
X2233D01*
X2150Y2079D02*
X2117D01*
Y2029D01*
X2150D01*
X2117Y2054D02*
X2133D01*
X2050Y2079D02*
X2017D01*
Y2029D01*
X2050D01*
X2017Y2054D02*
X2033D01*
X1950Y2079D02*
X1917D01*
Y2029D01*
X1950D01*
X1917Y2054D02*
X1933D01*
X1850Y2079D02*
X1817D01*
Y2029D01*
X1850D01*
X1817Y2054D02*
X1833D01*
X1750Y2079D02*
X1717D01*
Y2029D01*
X1750D01*
X1717Y2054D02*
X1733D01*
X2347Y208D02*
X2314D01*
Y158D01*
X2347D01*
X2314Y183D02*
X2331D01*
X2247Y208D02*
X2214D01*
Y158D01*
X2247D01*
X2214Y183D02*
X2231D01*
X2147Y208D02*
X2114D01*
Y158D01*
X2147D01*
X2114Y183D02*
X2131D01*
X2047Y208D02*
X2014D01*
Y158D01*
X2047D01*
X2014Y183D02*
X2031D01*
X1947Y208D02*
X1914D01*
Y158D01*
X1947D01*
X1914Y183D02*
X1931D01*
X1847Y208D02*
X1814D01*
Y158D01*
X1847D01*
X1814Y183D02*
X1831D01*
X2829Y1707D02*
X2795D01*
Y1657D01*
X2829D01*
X2795Y1682D02*
X2812D01*
X2829Y1607D02*
X2795D01*
Y1557D01*
X2829D01*
X2795Y1582D02*
X2812D01*
X2829Y1507D02*
X2795D01*
Y1457D01*
X2829D01*
X2795Y1482D02*
X2812D01*
X2986Y1607D02*
X2953D01*
Y1557D01*
X2986D01*
X2953Y1582D02*
X2969D01*
X2986Y1507D02*
X2953D01*
Y1457D01*
X2986D01*
X2953Y1482D02*
X2969D01*
X1080Y1600D02*
X1047D01*
Y1575D01*
X1063D01*
X1047D01*
Y1550D01*
X1272Y1600D02*
X1239D01*
Y1575D01*
X1255D01*
X1239D01*
Y1550D01*
X1233Y546D02*
X1200D01*
Y496D01*
X1233D01*
X1200Y521D02*
X1216D01*
X1333Y546D02*
X1300D01*
Y496D01*
X1333D01*
X1300Y521D02*
X1316D01*
X1233Y446D02*
X1200D01*
Y396D01*
X1233D01*
X1200Y421D02*
X1216D01*
X1333Y446D02*
X1300D01*
Y396D01*
X1333D01*
X1300Y421D02*
X1316D01*
X1233Y346D02*
X1200D01*
Y296D01*
X1233D01*
X1200Y321D02*
X1216D01*
X1333Y346D02*
X1300D01*
Y296D01*
X1333D01*
X1300Y321D02*
X1316D01*
X1233Y246D02*
X1200D01*
Y196D01*
X1233D01*
X1200Y221D02*
X1216D01*
X1333Y246D02*
X1300D01*
Y196D01*
X1333D01*
X1300Y221D02*
X1316D01*
X2685Y680D02*
X2677Y689D01*
X2660D01*
X2652Y680D01*
Y647D01*
X2660Y639D01*
X2677D01*
X2685Y647D01*
Y664D01*
X2668D01*
X2417Y738D02*
X2409Y746D01*
X2392D01*
X2384Y738D01*
Y704D01*
X2392Y696D01*
X2409D01*
X2417Y704D01*
Y721D01*
X2401D01*
X2417Y821D02*
X2409Y830D01*
X2392D01*
X2384Y821D01*
Y788D01*
X2392Y780D01*
X2409D01*
X2417Y788D01*
Y805D01*
X2401D01*
X2417Y1567D02*
X2409Y1576D01*
X2392D01*
X2384Y1567D01*
Y1534D01*
X2392Y1526D01*
X2409D01*
X2417Y1534D01*
Y1551D01*
X2401D01*
X2352Y1632D02*
X2344Y1641D01*
X2327D01*
X2319Y1632D01*
Y1599D01*
X2327Y1591D01*
X2344D01*
X2352Y1599D01*
Y1616D01*
X2336D01*
X2014Y1705D02*
X2005Y1713D01*
X1989D01*
X1980Y1705D01*
Y1672D01*
X1989Y1663D01*
X2005D01*
X2014Y1672D01*
Y1688D01*
X1997D01*
X1980Y1633D02*
X1972Y1642D01*
X1955D01*
X1947Y1633D01*
Y1600D01*
X1955Y1592D01*
X1972D01*
X1980Y1600D01*
Y1617D01*
X1964D01*
X1972Y1452D02*
X1964Y1460D01*
X1947D01*
X1939Y1452D01*
Y1419D01*
X1947Y1410D01*
X1964D01*
X1972Y1419D01*
Y1435D01*
X1956D01*
X1475Y606D02*
X1467Y614D01*
X1450D01*
X1442Y606D01*
Y572D01*
X1450Y564D01*
X1467D01*
X1475Y572D01*
Y589D01*
X1459D01*
X1112Y1278D02*
X1104Y1286D01*
X1087D01*
X1079Y1278D01*
Y1245D01*
X1087Y1236D01*
X1104D01*
X1112Y1245D01*
Y1261D01*
X1095D01*
X1409Y1241D02*
X1401Y1250D01*
X1384D01*
X1376Y1241D01*
Y1208D01*
X1384Y1200D01*
X1401D01*
X1409Y1208D01*
Y1225D01*
X1393D01*
X1183Y1276D02*
X1175Y1284D01*
X1158D01*
X1150Y1276D01*
Y1243D01*
X1158Y1234D01*
X1175D01*
X1183Y1243D01*
Y1259D01*
X1166D01*
X2172Y1244D02*
X2163Y1252D01*
X2147D01*
X2138Y1244D01*
Y1211D01*
X2147Y1202D01*
X2163D01*
X2172Y1211D01*
Y1227D01*
X2155D01*
X2150Y1998D02*
X2142Y2006D01*
X2125D01*
X2117Y1998D01*
Y1964D01*
X2125Y1956D01*
X2142D01*
X2150Y1964D01*
Y1981D01*
X2133D01*
X1635Y1249D02*
X1626Y1257D01*
X1610D01*
X1601Y1249D01*
Y1215D01*
X1610Y1207D01*
X1626D01*
X1635Y1215D01*
Y1232D01*
X1618D01*
X1852Y1283D02*
X1843Y1292D01*
X1827D01*
X1818Y1283D01*
Y1250D01*
X1827Y1242D01*
X1843D01*
X1852Y1250D01*
Y1267D01*
X1835D01*
X719Y1416D02*
X710Y1424D01*
X694D01*
X685Y1416D01*
Y1383D01*
X694Y1374D01*
X710D01*
X719Y1383D01*
Y1399D01*
X702D01*
X1690Y680D02*
X1681Y689D01*
X1665D01*
X1656Y680D01*
Y647D01*
X1665Y639D01*
X1681D01*
X1690Y647D01*
Y664D01*
X1673D01*
X1638Y677D02*
X1629Y686D01*
X1613D01*
X1604Y677D01*
Y644D01*
X1613Y636D01*
X1629D01*
X1638Y644D01*
Y661D01*
X1621D01*
X2438Y521D02*
X2430Y529D01*
X2413D01*
X2405Y521D01*
Y488D01*
X2413Y479D01*
X2430D01*
X2438Y488D01*
Y504D01*
X2421D01*
X888Y1180D02*
X879Y1188D01*
X863D01*
X854Y1180D01*
Y1147D01*
X863Y1138D01*
X879D01*
X888Y1147D01*
Y1163D01*
X871D01*
X814Y1109D02*
X806Y1117D01*
X789D01*
X781Y1109D01*
Y1076D01*
X789Y1067D01*
X806D01*
X814Y1076D01*
Y1092D01*
X797D01*
X1942Y1274D02*
X1933Y1282D01*
X1917D01*
X1908Y1274D01*
Y1241D01*
X1917Y1232D01*
X1933D01*
X1942Y1241D01*
Y1257D01*
X1925D01*
X766Y1145D02*
X757Y1153D01*
X741D01*
X732Y1145D01*
Y1112D01*
X741Y1103D01*
X757D01*
X766Y1112D01*
Y1128D01*
X749D01*
X2026Y1302D02*
X2018Y1311D01*
X2001D01*
X1993Y1302D01*
Y1269D01*
X2001Y1261D01*
X2018D01*
X2026Y1269D01*
Y1286D01*
X2010D01*
X714Y810D02*
X706Y818D01*
X689D01*
X681Y810D01*
Y777D01*
X689Y768D01*
X706D01*
X714Y777D01*
Y793D01*
X698D01*
X927Y1002D02*
X918Y1010D01*
X902D01*
X893Y1002D01*
Y969D01*
X902Y960D01*
X918D01*
X927Y969D01*
Y985D01*
X910D01*
X944Y803D02*
X935Y811D01*
X919D01*
X910Y803D01*
Y770D01*
X919Y761D01*
X935D01*
X944Y770D01*
Y786D01*
X927D01*
X1666Y826D02*
X1658Y834D01*
X1641D01*
X1633Y826D01*
Y793D01*
X1641Y784D01*
X1658D01*
X1666Y793D01*
Y809D01*
X1650D01*
X1611Y1435D02*
X1602Y1443D01*
X1586D01*
X1577Y1435D01*
Y1402D01*
X1586Y1393D01*
X1602D01*
X1611Y1402D01*
Y1418D01*
X1594D01*
X775Y1329D02*
X767Y1338D01*
X750D01*
X742Y1329D01*
Y1296D01*
X750Y1288D01*
X767D01*
X775Y1296D01*
Y1313D01*
X758D01*
X2314Y1183D02*
X2305Y1192D01*
X2289D01*
X2280Y1183D01*
Y1150D01*
X2289Y1142D01*
X2305D01*
X2314Y1150D01*
Y1167D01*
X2297D01*
X1425Y922D02*
X1416Y930D01*
X1400D01*
X1391Y922D01*
Y889D01*
X1400Y880D01*
X1416D01*
X1425Y889D01*
Y905D01*
X1408D01*
X2050Y1859D02*
X2042Y1867D01*
X2025D01*
X2017Y1859D01*
Y1825D01*
X2025Y1817D01*
X2042D01*
X2050Y1825D01*
Y1842D01*
X2033D01*
X2015Y1410D02*
X2006Y1418D01*
X1990D01*
X1981Y1410D01*
Y1376D01*
X1990Y1368D01*
X2006D01*
X2015Y1376D01*
Y1393D01*
X1998D01*
X1985Y1736D02*
X1977Y1744D01*
X1960D01*
X1952Y1736D01*
Y1702D01*
X1960Y1694D01*
X1977D01*
X1985Y1702D01*
Y1719D01*
X1968D01*
X1852Y1603D02*
X1844Y1611D01*
X1827D01*
X1819Y1603D01*
Y1569D01*
X1827Y1561D01*
X1844D01*
X1852Y1569D01*
Y1586D01*
X1836D01*
X2616Y1108D02*
X2607Y1116D01*
X2591D01*
X2582Y1108D01*
Y1075D01*
X2591Y1066D01*
X2607D01*
X2616Y1075D01*
Y1091D01*
X2599D01*
X1614Y819D02*
X1605Y827D01*
X1589D01*
X1580Y819D01*
Y786D01*
X1589Y777D01*
X1605D01*
X1614Y786D01*
Y802D01*
X1597D01*
X1847Y1234D02*
X1839Y1243D01*
X1822D01*
X1814Y1234D01*
Y1201D01*
X1822Y1193D01*
X1839D01*
X1847Y1201D01*
Y1218D01*
X1830D01*
M02*
