G04 Layer_Color=2752767*
%FSLAX23Y23*%
%MOIN*%
G70*
G01*
G75*
%ADD53C,0.005*%
D53*
X3367Y1497D02*
Y1530D01*
X3384Y1547D01*
X3400Y1530D01*
Y1497D01*
Y1522D01*
X3367D01*
X3170Y1694D02*
Y1727D01*
X3187Y1744D01*
X3204Y1727D01*
Y1694D01*
Y1719D01*
X3170D01*
Y1595D02*
Y1629D01*
X3187Y1645D01*
X3204Y1629D01*
Y1595D01*
Y1620D01*
X3170D01*
Y1300D02*
Y1334D01*
X3187Y1350D01*
X3204Y1334D01*
Y1300D01*
Y1325D01*
X3170D01*
Y1399D02*
Y1432D01*
X3187Y1449D01*
X3204Y1432D01*
Y1399D01*
Y1424D01*
X3170D01*
X3259Y887D02*
Y837D01*
X3284D01*
X3293Y845D01*
Y853D01*
X3284Y862D01*
X3259D01*
X3284D01*
X3293Y870D01*
Y878D01*
X3284Y887D01*
X3259D01*
Y788D02*
Y738D01*
X3284D01*
X3293Y747D01*
Y755D01*
X3284Y763D01*
X3259D01*
X3284D01*
X3293Y772D01*
Y780D01*
X3284Y788D01*
X3259D01*
X3181D02*
Y738D01*
X3206D01*
X3214Y747D01*
Y755D01*
X3206Y763D01*
X3181D01*
X3206D01*
X3214Y772D01*
Y780D01*
X3206Y788D01*
X3181D01*
Y887D02*
Y837D01*
X3206D01*
X3214Y845D01*
Y853D01*
X3206Y862D01*
X3181D01*
X3206D01*
X3214Y870D01*
Y878D01*
X3206Y887D01*
X3181D01*
X3360Y1065D02*
X3352Y1074D01*
X3335D01*
X3327Y1065D01*
Y1032D01*
X3335Y1024D01*
X3352D01*
X3360Y1032D01*
Y593D02*
X3352Y601D01*
X3335D01*
X3327Y593D01*
Y560D01*
X3335Y551D01*
X3352D01*
X3360Y560D01*
X787Y207D02*
Y157D01*
X812D01*
X821Y166D01*
Y199D01*
X812Y207D01*
X787D01*
X2756D02*
Y157D01*
X2781D01*
X2789Y166D01*
Y199D01*
X2781Y207D01*
X2756D01*
Y2176D02*
Y2126D01*
X2781D01*
X2789Y2134D01*
Y2168D01*
X2781Y2176D01*
X2756D01*
X787D02*
Y2126D01*
X812D01*
X821Y2134D01*
Y2168D01*
X812Y2176D01*
X787D01*
X2250Y2079D02*
X2217D01*
Y2029D01*
X2250D01*
X2217Y2054D02*
X2233D01*
X2150Y2079D02*
X2117D01*
Y2029D01*
X2150D01*
X2117Y2054D02*
X2133D01*
X2050Y2079D02*
X2017D01*
Y2029D01*
X2050D01*
X2017Y2054D02*
X2033D01*
X1950Y2079D02*
X1917D01*
Y2029D01*
X1950D01*
X1917Y2054D02*
X1933D01*
X1850Y2079D02*
X1817D01*
Y2029D01*
X1850D01*
X1817Y2054D02*
X1833D01*
X1750Y2079D02*
X1717D01*
Y2029D01*
X1750D01*
X1717Y2054D02*
X1733D01*
X2347Y208D02*
X2314D01*
Y158D01*
X2347D01*
X2314Y183D02*
X2331D01*
X2247Y208D02*
X2214D01*
Y158D01*
X2247D01*
X2214Y183D02*
X2231D01*
X2147Y208D02*
X2114D01*
Y158D01*
X2147D01*
X2114Y183D02*
X2131D01*
X2047Y208D02*
X2014D01*
Y158D01*
X2047D01*
X2014Y183D02*
X2031D01*
X1947Y208D02*
X1914D01*
Y158D01*
X1947D01*
X1914Y183D02*
X1931D01*
X1847Y208D02*
X1814D01*
Y158D01*
X1847D01*
X1814Y183D02*
X1831D01*
X2829Y1707D02*
X2795D01*
Y1657D01*
X2829D01*
X2795Y1682D02*
X2812D01*
X2829Y1607D02*
X2795D01*
Y1557D01*
X2829D01*
X2795Y1582D02*
X2812D01*
X2829Y1507D02*
X2795D01*
Y1457D01*
X2829D01*
X2795Y1482D02*
X2812D01*
X2986Y1607D02*
X2953D01*
Y1557D01*
X2986D01*
X2953Y1582D02*
X2969D01*
X2986Y1507D02*
X2953D01*
Y1457D01*
X2986D01*
X2953Y1482D02*
X2969D01*
X1080Y1600D02*
X1047D01*
Y1575D01*
X1063D01*
X1047D01*
Y1550D01*
X1272Y1600D02*
X1239D01*
Y1575D01*
X1255D01*
X1239D01*
Y1550D01*
X1233Y546D02*
X1200D01*
Y496D01*
X1233D01*
X1200Y521D02*
X1216D01*
X1333Y546D02*
X1300D01*
Y496D01*
X1333D01*
X1300Y521D02*
X1316D01*
X1233Y446D02*
X1200D01*
Y396D01*
X1233D01*
X1200Y421D02*
X1216D01*
X1333Y446D02*
X1300D01*
Y396D01*
X1333D01*
X1300Y421D02*
X1316D01*
X1233Y346D02*
X1200D01*
Y296D01*
X1233D01*
X1200Y321D02*
X1216D01*
X1333Y346D02*
X1300D01*
Y296D01*
X1333D01*
X1300Y321D02*
X1316D01*
X1233Y246D02*
X1200D01*
Y196D01*
X1233D01*
X1200Y221D02*
X1216D01*
X1333Y246D02*
X1300D01*
Y196D01*
X1333D01*
X1300Y221D02*
X1316D01*
X2931Y1122D02*
X2923Y1131D01*
X2906D01*
X2898Y1122D01*
Y1089D01*
X2906Y1081D01*
X2923D01*
X2931Y1089D01*
Y1106D01*
X2914D01*
X3014Y1122D02*
X3005Y1131D01*
X2989D01*
X2980Y1122D01*
Y1089D01*
X2989Y1081D01*
X3005D01*
X3014Y1089D01*
Y1106D01*
X2997D01*
X2652Y689D02*
Y639D01*
Y664D01*
X2685D01*
Y689D01*
Y639D01*
X2384Y746D02*
Y696D01*
Y721D01*
X2417D01*
Y746D01*
Y696D01*
X2384Y830D02*
Y780D01*
Y805D01*
X2417D01*
Y830D01*
Y780D01*
X2384Y1576D02*
Y1526D01*
Y1551D01*
X2417D01*
Y1576D01*
Y1526D01*
X2319Y1641D02*
Y1591D01*
Y1616D01*
X2352D01*
Y1641D01*
Y1591D01*
X1980Y1713D02*
Y1663D01*
Y1688D01*
X2014D01*
Y1713D01*
Y1663D01*
X1947Y1642D02*
Y1592D01*
Y1617D01*
X1980D01*
Y1642D01*
Y1592D01*
X1939Y1460D02*
Y1410D01*
Y1435D01*
X1972D01*
Y1460D01*
Y1410D01*
X1442Y614D02*
Y564D01*
Y589D01*
X1475D01*
Y614D01*
Y564D01*
X1079Y1286D02*
Y1236D01*
Y1261D01*
X1112D01*
Y1286D01*
Y1236D01*
X1376Y1250D02*
Y1200D01*
Y1225D01*
X1409D01*
Y1250D01*
Y1200D01*
X1150Y1284D02*
Y1234D01*
Y1259D01*
X1183D01*
Y1284D01*
Y1234D01*
X2138Y1252D02*
Y1202D01*
Y1227D01*
X2172D01*
Y1252D01*
Y1202D01*
X2117Y2006D02*
Y1956D01*
Y1981D01*
X2150D01*
Y2006D01*
Y1956D01*
X1601Y1257D02*
Y1207D01*
Y1232D01*
X1635D01*
Y1257D01*
Y1207D01*
X1818Y1292D02*
Y1242D01*
Y1267D01*
X1852D01*
Y1292D01*
Y1242D01*
X685Y1424D02*
Y1374D01*
Y1399D01*
X719D01*
Y1424D01*
Y1374D01*
X1656Y689D02*
Y639D01*
Y664D01*
X1690D01*
Y689D01*
Y639D01*
X1604Y686D02*
Y636D01*
Y661D01*
X1638D01*
Y686D01*
Y636D01*
X2405Y529D02*
Y479D01*
Y504D01*
X2438D01*
Y529D01*
Y479D01*
X854Y1188D02*
Y1138D01*
Y1163D01*
X888D01*
Y1188D01*
Y1138D01*
X781Y1117D02*
Y1067D01*
Y1092D01*
X814D01*
Y1117D01*
Y1067D01*
X1908Y1282D02*
Y1232D01*
Y1257D01*
X1942D01*
Y1282D01*
Y1232D01*
X732Y1153D02*
Y1103D01*
Y1128D01*
X766D01*
Y1153D01*
Y1103D01*
X1993Y1311D02*
Y1261D01*
Y1286D01*
X2026D01*
Y1311D01*
Y1261D01*
X681Y818D02*
Y768D01*
Y793D01*
X714D01*
Y818D01*
Y768D01*
X893Y1010D02*
Y960D01*
Y985D01*
X927D01*
Y1010D01*
Y960D01*
X910Y811D02*
Y761D01*
Y786D01*
X944D01*
Y811D01*
Y761D01*
X1633Y834D02*
Y784D01*
Y809D01*
X1666D01*
Y834D01*
Y784D01*
X1577Y1443D02*
Y1393D01*
Y1418D01*
X1611D01*
Y1443D01*
Y1393D01*
X742Y1338D02*
Y1288D01*
Y1313D01*
X775D01*
Y1338D01*
Y1288D01*
X2280Y1192D02*
Y1142D01*
Y1167D01*
X2314D01*
Y1192D01*
Y1142D01*
X1391Y930D02*
Y880D01*
Y905D01*
X1425D01*
Y930D01*
Y880D01*
X2017Y1867D02*
Y1817D01*
Y1842D01*
X2050D01*
Y1867D01*
Y1817D01*
X1981Y1418D02*
Y1368D01*
Y1393D01*
X2015D01*
Y1418D01*
Y1368D01*
X1952Y1744D02*
Y1694D01*
Y1719D01*
X1985D01*
Y1744D01*
Y1694D01*
X1819Y1611D02*
Y1561D01*
Y1586D01*
X1852D01*
Y1611D01*
Y1561D01*
X2582Y1116D02*
Y1066D01*
Y1091D01*
X2616D01*
Y1116D01*
Y1066D01*
X1580Y827D02*
Y777D01*
Y802D01*
X1614D01*
Y827D01*
Y777D01*
X1814Y1243D02*
Y1193D01*
Y1218D01*
X1847D01*
Y1243D01*
Y1193D01*
M02*
